<mxfile host="app.diagrams.net" modified="2024-03-18T19:58:10.941Z" agent="Mozilla/5.0 (Windows NT 10.0; Win64; x64) AppleWebKit/537.36 (KHTML, like Gecko) Chrome/122.0.0.0 Safari/537.36" etag="Ap1dI6TNzCF2dM57OOzn" version="22.1.21" type="device">
  <diagram name="Page-1" id="h1Edoe80L_xj9RVx0cX_">
    <mxGraphModel dx="3457" dy="1404" grid="1" gridSize="10" guides="1" tooltips="1" connect="1" arrows="1" fold="1" page="1" pageScale="1" pageWidth="850" pageHeight="1100" math="0" shadow="0">
      <root>
        <mxCell id="0" />
        <mxCell id="1" parent="0" />
        <mxCell id="7PJMX-n2CAUdrs0Bl3GC-318" style="edgeStyle=orthogonalEdgeStyle;rounded=0;orthogonalLoop=1;jettySize=auto;html=1;strokeWidth=3;" parent="1" source="7PJMX-n2CAUdrs0Bl3GC-225" target="7PJMX-n2CAUdrs0Bl3GC-226" edge="1">
          <mxGeometry relative="1" as="geometry" />
        </mxCell>
        <mxCell id="7PJMX-n2CAUdrs0Bl3GC-225" value="" style="shape=cube;whiteSpace=wrap;html=1;boundedLbl=1;backgroundOutline=1;darkOpacity=0.05;darkOpacity2=0.1;size=37;fillColor=#dae8fc;strokeColor=#6c8ebf;" parent="1" vertex="1">
          <mxGeometry x="1360" y="465.63" width="40" height="256" as="geometry" />
        </mxCell>
        <mxCell id="7PJMX-n2CAUdrs0Bl3GC-224" value="" style="shape=cube;whiteSpace=wrap;html=1;boundedLbl=1;backgroundOutline=1;darkOpacity=0.05;darkOpacity2=0.1;size=37;fillColor=#dae8fc;strokeColor=#6c8ebf;" parent="1" vertex="1">
          <mxGeometry x="1295" y="501.25" width="50" height="200" as="geometry" />
        </mxCell>
        <mxCell id="7PJMX-n2CAUdrs0Bl3GC-316" style="edgeStyle=orthogonalEdgeStyle;rounded=0;orthogonalLoop=1;jettySize=auto;html=1;entryX=0.019;entryY=0.5;entryDx=0;entryDy=0;entryPerimeter=0;strokeWidth=2;" parent="1" source="7PJMX-n2CAUdrs0Bl3GC-223" target="7PJMX-n2CAUdrs0Bl3GC-224" edge="1">
          <mxGeometry relative="1" as="geometry">
            <mxPoint x="1290" y="620" as="targetPoint" />
          </mxGeometry>
        </mxCell>
        <mxCell id="7PJMX-n2CAUdrs0Bl3GC-223" value="" style="shape=cube;whiteSpace=wrap;html=1;boundedLbl=1;backgroundOutline=1;darkOpacity=0.05;darkOpacity2=0.1;size=37;fillColor=#dae8fc;strokeColor=#6c8ebf;" parent="1" vertex="1">
          <mxGeometry x="1235" y="501.25" width="50" height="200" as="geometry" />
        </mxCell>
        <mxCell id="7PJMX-n2CAUdrs0Bl3GC-222" value="" style="shape=cube;whiteSpace=wrap;html=1;boundedLbl=1;backgroundOutline=1;darkOpacity=0.05;darkOpacity2=0.1;size=37;fillColor=#dae8fc;strokeColor=#6c8ebf;" parent="1" vertex="1">
          <mxGeometry x="1160" y="548" width="70" height="150" as="geometry" />
        </mxCell>
        <mxCell id="7PJMX-n2CAUdrs0Bl3GC-221" value="" style="shape=cube;whiteSpace=wrap;html=1;boundedLbl=1;backgroundOutline=1;darkOpacity=0.05;darkOpacity2=0.1;size=37;fillColor=#dae8fc;strokeColor=#6c8ebf;" parent="1" vertex="1">
          <mxGeometry x="1000" y="566" width="100" height="100" as="geometry" />
        </mxCell>
        <mxCell id="7PJMX-n2CAUdrs0Bl3GC-276" style="edgeStyle=orthogonalEdgeStyle;rounded=0;orthogonalLoop=1;jettySize=auto;html=1;strokeWidth=6;" parent="1" source="7PJMX-n2CAUdrs0Bl3GC-259" target="7PJMX-n2CAUdrs0Bl3GC-218" edge="1">
          <mxGeometry relative="1" as="geometry">
            <Array as="points">
              <mxPoint x="783" y="520" />
              <mxPoint x="783" y="520" />
              <mxPoint x="783" y="616" />
            </Array>
          </mxGeometry>
        </mxCell>
        <mxCell id="7PJMX-n2CAUdrs0Bl3GC-259" value="" style="shape=cube;whiteSpace=wrap;html=1;boundedLbl=1;backgroundOutline=1;darkOpacity=0.05;darkOpacity2=0.1;size=37;fillColor=#f8cecc;strokeColor=#b85450;gradientColor=#ea6b66;" parent="1" vertex="1">
          <mxGeometry x="665" y="425.88" width="235" height="50" as="geometry" />
        </mxCell>
        <mxCell id="7PJMX-n2CAUdrs0Bl3GC-213" value="" style="shape=cube;whiteSpace=wrap;html=1;boundedLbl=1;backgroundOutline=1;darkOpacity=0.05;darkOpacity2=0.1;size=37;fillColor=#fff2cc;gradientColor=#ffd966;strokeColor=#d6b656;" parent="1" vertex="1">
          <mxGeometry x="140" y="363.25" width="100" height="50" as="geometry" />
        </mxCell>
        <mxCell id="7PJMX-n2CAUdrs0Bl3GC-262" style="edgeStyle=orthogonalEdgeStyle;rounded=0;orthogonalLoop=1;jettySize=auto;html=1;entryX=1;entryY=0.5;entryDx=0;entryDy=0;strokeWidth=6;" parent="1" source="7PJMX-n2CAUdrs0Bl3GC-212" target="7PJMX-n2CAUdrs0Bl3GC-261" edge="1">
          <mxGeometry relative="1" as="geometry">
            <Array as="points">
              <mxPoint x="75" y="160" />
              <mxPoint x="470" y="160" />
              <mxPoint x="470" y="323" />
              <mxPoint x="395" y="323" />
            </Array>
          </mxGeometry>
        </mxCell>
        <mxCell id="7PJMX-n2CAUdrs0Bl3GC-212" value="" style="shape=cube;whiteSpace=wrap;html=1;boundedLbl=1;backgroundOutline=1;darkOpacity=0.05;darkOpacity2=0.1;size=37;fillColor=#fff2cc;gradientColor=#ffd966;strokeColor=#d6b656;" parent="1" vertex="1">
          <mxGeometry x="5" y="333.25" width="140" height="80" as="geometry" />
        </mxCell>
        <mxCell id="7PJMX-n2CAUdrs0Bl3GC-273" style="edgeStyle=orthogonalEdgeStyle;rounded=0;orthogonalLoop=1;jettySize=auto;html=1;entryX=0;entryY=0.5;entryDx=0;entryDy=0;strokeWidth=6;" parent="1" source="7PJMX-n2CAUdrs0Bl3GC-211" target="7PJMX-n2CAUdrs0Bl3GC-265" edge="1">
          <mxGeometry relative="1" as="geometry">
            <Array as="points">
              <mxPoint x="-40" y="480" />
            </Array>
          </mxGeometry>
        </mxCell>
        <mxCell id="7PJMX-n2CAUdrs0Bl3GC-211" value="" style="shape=cube;whiteSpace=wrap;html=1;boundedLbl=1;backgroundOutline=1;darkOpacity=0.05;darkOpacity2=0.1;size=37;fillColor=#fff2cc;gradientColor=#ffd966;strokeColor=#d6b656;" parent="1" vertex="1">
          <mxGeometry x="-74.5" y="313.25" width="100" height="100" as="geometry" />
        </mxCell>
        <mxCell id="7PJMX-n2CAUdrs0Bl3GC-210" value="" style="shape=cube;whiteSpace=wrap;html=1;boundedLbl=1;backgroundOutline=1;darkOpacity=0.05;darkOpacity2=0.1;size=37;fillColor=#fff2cc;gradientColor=#ffd966;strokeColor=#d6b656;" parent="1" vertex="1">
          <mxGeometry x="-153.5" y="313.25" width="100" height="100" as="geometry" />
        </mxCell>
        <mxCell id="7PJMX-n2CAUdrs0Bl3GC-209" value="" style="shape=cube;whiteSpace=wrap;html=1;boundedLbl=1;backgroundOutline=1;darkOpacity=0.05;darkOpacity2=0.1;size=37;fillColor=#fff2cc;gradientColor=#ffd966;strokeColor=#d6b656;" parent="1" vertex="1">
          <mxGeometry x="-205" y="263.25" width="70" height="150" as="geometry" />
        </mxCell>
        <mxCell id="7PJMX-n2CAUdrs0Bl3GC-208" value="" style="shape=cube;whiteSpace=wrap;html=1;boundedLbl=1;backgroundOutline=1;darkOpacity=0.05;darkOpacity2=0.1;size=37;fillColor=#fff2cc;gradientColor=#ffd966;strokeColor=#d6b656;" parent="1" vertex="1">
          <mxGeometry x="-260" y="213.25" width="70" height="200" as="geometry" />
        </mxCell>
        <mxCell id="7PJMX-n2CAUdrs0Bl3GC-198" value="" style="rounded=0;whiteSpace=wrap;html=1;" parent="1" vertex="1">
          <mxGeometry x="-500" y="622" width="160" height="102.5" as="geometry" />
        </mxCell>
        <mxCell id="7PJMX-n2CAUdrs0Bl3GC-197" value="" style="rounded=0;whiteSpace=wrap;html=1;" parent="1" vertex="1">
          <mxGeometry x="-500" y="262" width="160" height="102.5" as="geometry" />
        </mxCell>
        <mxCell id="7PJMX-n2CAUdrs0Bl3GC-24" value="&lt;b&gt;&lt;font style=&quot;font-size: 36px;&quot;&gt;Scaling&lt;br&gt;224x224&lt;/font&gt;&lt;/b&gt;" style="text;html=1;strokeColor=none;fillColor=none;align=center;verticalAlign=middle;whiteSpace=wrap;rounded=0;" parent="1" vertex="1">
          <mxGeometry x="-490" y="630" width="140" height="86.5" as="geometry" />
        </mxCell>
        <mxCell id="7PJMX-n2CAUdrs0Bl3GC-119" value="&lt;span style=&quot;font-size: 48px;&quot;&gt;&lt;b&gt;Encoder&lt;/b&gt;&lt;/span&gt;" style="text;html=1;align=center;verticalAlign=middle;whiteSpace=wrap;rounded=0;" parent="1" vertex="1">
          <mxGeometry x="-250" y="70" width="260" height="80" as="geometry" />
        </mxCell>
        <mxCell id="7PJMX-n2CAUdrs0Bl3GC-120" value="&lt;span style=&quot;font-size: 48px;&quot;&gt;&lt;b&gt;Decoder&lt;/b&gt;&lt;/span&gt;" style="text;html=1;align=center;verticalAlign=middle;whiteSpace=wrap;rounded=0;" parent="1" vertex="1">
          <mxGeometry x="1040" y="63.75" width="210" height="105" as="geometry" />
        </mxCell>
        <mxCell id="7PJMX-n2CAUdrs0Bl3GC-121" value="&lt;span style=&quot;font-size: 48px;&quot;&gt;&lt;b&gt;Pyramid&lt;/b&gt;&lt;/span&gt;" style="text;html=1;align=center;verticalAlign=middle;whiteSpace=wrap;rounded=0;" parent="1" vertex="1">
          <mxGeometry x="230" y="60" width="250" height="100" as="geometry" />
        </mxCell>
        <mxCell id="7PJMX-n2CAUdrs0Bl3GC-122" value="&lt;span style=&quot;font-size: 48px;&quot;&gt;&lt;b&gt;Fusion&lt;/b&gt;&lt;/span&gt;" style="text;html=1;align=center;verticalAlign=middle;whiteSpace=wrap;rounded=0;" parent="1" vertex="1">
          <mxGeometry x="650" y="63.75" width="190" height="92.5" as="geometry" />
        </mxCell>
        <mxCell id="7PJMX-n2CAUdrs0Bl3GC-199" style="edgeStyle=orthogonalEdgeStyle;rounded=0;orthogonalLoop=1;jettySize=auto;html=1;entryX=0;entryY=0.5;entryDx=0;entryDy=0;strokeWidth=6;" parent="1" source="nC3sobLAMKG-mXo3YvBy-2" target="7PJMX-n2CAUdrs0Bl3GC-197" edge="1">
          <mxGeometry relative="1" as="geometry">
            <mxPoint x="-530" y="364.5" as="sourcePoint" />
            <Array as="points">
              <mxPoint x="-580" y="313" />
            </Array>
          </mxGeometry>
        </mxCell>
        <mxCell id="7PJMX-n2CAUdrs0Bl3GC-200" style="edgeStyle=orthogonalEdgeStyle;rounded=0;orthogonalLoop=1;jettySize=auto;html=1;entryX=0;entryY=0.5;entryDx=0;entryDy=0;strokeWidth=6;" parent="1" source="nC3sobLAMKG-mXo3YvBy-2" target="7PJMX-n2CAUdrs0Bl3GC-198" edge="1">
          <mxGeometry relative="1" as="geometry">
            <mxPoint x="-530.0000000000005" y="620.5" as="sourcePoint" />
            <Array as="points">
              <mxPoint x="-580" y="673" />
            </Array>
          </mxGeometry>
        </mxCell>
        <mxCell id="7PJMX-n2CAUdrs0Bl3GC-244" style="edgeStyle=orthogonalEdgeStyle;rounded=0;orthogonalLoop=1;jettySize=auto;html=1;strokeWidth=6;" parent="1" target="7PJMX-n2CAUdrs0Bl3GC-207" edge="1">
          <mxGeometry relative="1" as="geometry">
            <mxPoint x="-340" y="313" as="sourcePoint" />
          </mxGeometry>
        </mxCell>
        <mxCell id="7PJMX-n2CAUdrs0Bl3GC-196" value="&lt;b&gt;&lt;font style=&quot;font-size: 36px;&quot;&gt;Scaling&lt;br&gt;256x256&lt;/font&gt;&lt;/b&gt;" style="text;html=1;strokeColor=none;fillColor=none;align=center;verticalAlign=middle;whiteSpace=wrap;rounded=0;" parent="1" vertex="1">
          <mxGeometry x="-490" y="270" width="140" height="86.5" as="geometry" />
        </mxCell>
        <mxCell id="7PJMX-n2CAUdrs0Bl3GC-201" value="" style="shape=cylinder3;whiteSpace=wrap;html=1;boundedLbl=1;backgroundOutline=1;size=23.17647058823536;rotation=90;fillColor=#f8cecc;gradientColor=#ea6b66;strokeColor=#b85450;" parent="1" vertex="1">
          <mxGeometry x="-129.5" y="450.25" width="95" height="446" as="geometry" />
        </mxCell>
        <mxCell id="7PJMX-n2CAUdrs0Bl3GC-202" value="&lt;b&gt;&lt;font style=&quot;font-size: 48px;&quot;&gt;MobileNetv2&lt;br&gt;&lt;/font&gt;&lt;/b&gt;" style="text;html=1;align=center;verticalAlign=middle;whiteSpace=wrap;rounded=0;" parent="1" vertex="1">
          <mxGeometry x="-255" y="637.25" width="350" height="87.5" as="geometry" />
        </mxCell>
        <mxCell id="7PJMX-n2CAUdrs0Bl3GC-203" value="&lt;b&gt;&lt;font style=&quot;font-size: 48px;&quot;&gt;Feature Extractor&lt;/font&gt;&lt;/b&gt;" style="text;html=1;align=center;verticalAlign=middle;whiteSpace=wrap;rounded=0;" parent="1" vertex="1">
          <mxGeometry x="-285" y="701.25" width="410" height="100" as="geometry" />
        </mxCell>
        <mxCell id="7PJMX-n2CAUdrs0Bl3GC-204" style="edgeStyle=orthogonalEdgeStyle;rounded=0;orthogonalLoop=1;jettySize=auto;html=1;entryX=0.5;entryY=1;entryDx=0;entryDy=0;entryPerimeter=0;strokeWidth=6;exitX=1;exitY=0.5;exitDx=0;exitDy=0;" parent="1" source="7PJMX-n2CAUdrs0Bl3GC-198" target="7PJMX-n2CAUdrs0Bl3GC-201" edge="1">
          <mxGeometry relative="1" as="geometry" />
        </mxCell>
        <mxCell id="7PJMX-n2CAUdrs0Bl3GC-206" style="edgeStyle=orthogonalEdgeStyle;rounded=0;orthogonalLoop=1;jettySize=auto;html=1;entryX=-0.021;entryY=0.516;entryDx=0;entryDy=0;entryPerimeter=0;strokeWidth=6;" parent="1" source="7PJMX-n2CAUdrs0Bl3GC-202" edge="1">
          <mxGeometry relative="1" as="geometry">
            <mxPoint x="256.2199999999998" y="681.761" as="targetPoint" />
          </mxGeometry>
        </mxCell>
        <mxCell id="7PJMX-n2CAUdrs0Bl3GC-246" style="edgeStyle=orthogonalEdgeStyle;rounded=0;orthogonalLoop=1;jettySize=auto;html=1;exitX=0;exitY=0;exitDx=50;exitDy=118.5;exitPerimeter=0;strokeWidth=2;" parent="1" source="7PJMX-n2CAUdrs0Bl3GC-207" edge="1">
          <mxGeometry relative="1" as="geometry">
            <mxPoint x="-240" y="332" as="targetPoint" />
            <Array as="points">
              <mxPoint x="-240" y="332" />
            </Array>
          </mxGeometry>
        </mxCell>
        <mxCell id="7PJMX-n2CAUdrs0Bl3GC-207" value="" style="shape=cube;whiteSpace=wrap;html=1;boundedLbl=1;backgroundOutline=1;darkOpacity=0.05;darkOpacity2=0.1;size=37;fillColor=#fff2cc;gradientColor=#ffd966;strokeColor=#d6b656;" parent="1" vertex="1">
          <mxGeometry x="-305" y="213.25" width="50" height="200" as="geometry" />
        </mxCell>
        <mxCell id="7PJMX-n2CAUdrs0Bl3GC-216" value="" style="shape=cube;whiteSpace=wrap;html=1;boundedLbl=1;backgroundOutline=1;darkOpacity=0.05;darkOpacity2=0.1;size=37;fillColor=#f0a30a;strokeColor=#BD7000;fontColor=#000000;" parent="1" vertex="1">
          <mxGeometry x="315" y="520.5" width="170" height="100" as="geometry" />
        </mxCell>
        <mxCell id="7PJMX-n2CAUdrs0Bl3GC-291" style="edgeStyle=orthogonalEdgeStyle;rounded=0;orthogonalLoop=1;jettySize=auto;html=1;entryX=0;entryY=0.5;entryDx=0;entryDy=0;strokeWidth=4;" parent="1" source="7PJMX-n2CAUdrs0Bl3GC-218" target="7PJMX-n2CAUdrs0Bl3GC-288" edge="1">
          <mxGeometry relative="1" as="geometry" />
        </mxCell>
        <mxCell id="7PJMX-n2CAUdrs0Bl3GC-218" value="" style="shape=cube;whiteSpace=wrap;html=1;boundedLbl=1;backgroundOutline=1;darkOpacity=0.05;darkOpacity2=0.1;size=37;fillColor=#dae8fc;strokeColor=#6c8ebf;" parent="1" vertex="1">
          <mxGeometry x="830" y="576" width="140" height="80" as="geometry" />
        </mxCell>
        <mxCell id="7PJMX-n2CAUdrs0Bl3GC-226" value="" style="shape=image;verticalLabelPosition=bottom;labelBackgroundColor=default;verticalAlign=top;aspect=fixed;imageAspect=0;image=data:image/png,iVBORw0KGgoAAAANSUhEUgAABA8AAAGVCAYAAACRhdhZAAAAOXRFWHRTb2Z0d2FyZQBNYXRwbG90bGliIHZlcnNpb24zLjcuMSwgaHR0cHM6Ly9tYXRwbG90bGliLm9yZy/bCgiHAAAACXBIWXMAAA9hAAAPYQGoP6dpAAEAAElEQVR4nOz9W68kSZYdBu84EXHOyUtVVldnVXf1Zdg9rRlwRgIFUeQDBQz0QOhREsS/yQdKEECIgAgBwoCgRhhwmhyOZvo21V2XzqzMqjyVea5x/R7y25Er1lnbzNwj4lz3AgLh4W5uNze3sLX2NrPBcrlcWiKRSCQSiUQikUgkEolEgL3rzkAikUgkEolEIpFIJBKJm40UDxKJRCKRSCQSiUQikUgUkeJBIpFIJBKJRCKRSCQSiSJSPEgkEolEIpFIJBKJRCJRRIoHiUQikUgkEolEIpFIJIpI8SCRSCQSiUQikUgkEolEESkeJBKJRCKRSCQSiUQikSgixYNEIpFIJBKJRCKRSCQSRaR4kEgkEolEIpFIJBKJRKKIUWvA8Xi89nswGNhgMLC9vb3VMV4bj8c2Ho9tf3/fDg8PbTwe22g0stHobZJ7e3u2t7e3OndwcGDD4dCGw6Ht7+/b3t6ejcdjOzg4sNFotIrPw/ixn/d4/F4MMxqN1u4bjUar+P2+4XC4yoPH4/cMh8NVOfEYy763t7cq+3K5NDOzxWKxOvZwXFdmtgpTgt+DaSlgPvAelQ7Hg9c5LJYjypsCxoN5Wi6Xq2vL5dLm8/mle6L81OpLlZfbJ9eNA59tFHd0b2saCFUurpsoH5xOlJdSHjCtKF+l8CpclJ9aPqNjTqdLWVQb989isbDZbGbT6dTm87ldXFzYZDKx6XRqb968WZ2fTqc2m81sPp/bbDaz2Wxmi8XC5vO5LRaL1TH2EZjGfD5f3etxTiaTVf/g8SyXS5tOp6tz/vE0MN35fL4KN5vN1uLBvPF5j2OxWKzyslwu18rn9/D3L3/5S1nviUTibqD0X5VIJBKJu40WPmrWQTxoBZNkJNxIvM1sjZz7x4m9E3oXGfiDogCKA3wN4/VvPHYBwYUOFA+itL2cpTpYLpeSQDKB5vta6nZbaG0kfM828oAii9lbkrdYLJrSbwnTJ48lUSaKb9O6iNrCNlFrq4yo/mpCRoQW4l/DLga1KPwtl8uVsDkYDOzg4MD29vZsPp/LfszJtxN19b7zbxcTzMxGo9GK1DsWi4UNh8OVELFYLFZ5M7PVsefZ7/VjlT4/S8yXx8fvHYtYKOwlEolEIpFIJO4vmsUDHIAq0qssnYrwI0HDQaxfj8SA6MNigDpm8QA9ElwwYPFgPB5f8jRQHhYtltOSpdqtg1ctHJjVCWvJ+oz5Uvln6/Q28l6yeNe8ObaVh9uGljLzux296yx0lNpPH++E6wB7mXhfNJvNbDgc2mw2W/UDSOqd6E+n0xUJV3XlfQd6ApjZirAjyTdb955QQqwSJThN/K1ESzxG4cHh5VP5TSQSiUQikUjcX/T2PPBBrhNgHtQqF2IfqHs4J/hM6NU3TltA0o9xYDw4/QGFBBQJeMoDT53A/Hr+sfxYLjxW4RS5xY9Zm+UbB/1mbYP6VpK3KyiC422nr4DRxWLfRTjg/EXX7wvUM2oRAxQZjuKs1fkmwDh5ygL2Yf4+uVjpUwhcRHAX//39/bWpAZPJxGazmY1Go9WUAPXOq/rxvnM2m615FeA7vlwu1wg+eiJ4PSLBxzDK6wCPx+PxyrNC9Ucep8p/IpFIJBKJROL+oZN44ANbH1D6IBw9CBR5xrm3GI7JP08lUIKA+rDnQhSvms7g9/t0CY/Hy6vqgK9FngXROSZOLV4HDHdpLoEtxLW8RGFqaSAZLNWFh1fEMhJBSgJDybuhRNxUeFWeUpyl37W0S+jqUdE1vr7ha1MP1H2q3ZXyE3mxtKL2/uGxCwT+DmGb9D7NRQMzW3kj4DoEPtUBxVCcxmD2jtC7pwKex35UiSyYH+UNgOVC0QB/I/nn90XFifd6ud1zIpFIJBKJRCJxv9Fp2gIPUs3WPRB4SgLOmUULvvIWUOd4QcMS+ee1EDhetRYCn4umJ0QksgvJidy4S+nU0lCEm+dJcxgWHPA63lfKQ42QRoTNCQvH0RJfS3i23GL6LeQW6w6P1TOJylgTdEroQvRLglDXuFru6+ohUqrvkkCghKguaBHiamH82bOQ6NMY/DOfz9f6FhcVeOHC+Xy+isfL5tMh/JwSEBTZr4lLLBz4sSL/PJXC4/K8+jHmP5FIJBKJRCJxf9FLPOBBr9k7d18fdKtB+t7enh0cHKztxIAigXsY7O/vX/Ic8DDRegZqgUQULHhNBfVRizp62fm4j4Cg4itNf1CoWW7N+s1PLu0u0Ap85i1eGFgWnIbRQgBr0xlKx1H+eO47lkW1/1oamyASPUpiyKZoFWhKv1vSiNqBOr/NOm3F3t7eatqS9xmHh4druy3MZjO7uLhYTWdAKz6KCz7twQUJbz/j8XhF3L3fQQv/crlcI+xeFx6v8hjw75Kg4N4RZrYmaLjY4AIJYxftLZFIJBKJRCJxu9Bp2kLkmo6DU5wGwGQfPQrUJyL2Kr7ICyHySFCeCRgnix9YLnWM3y2ICC+6avchSjz/udWq6mDRoGQRjtBCzFvKhiQG7+lCIruQefYYiPIdiQd9n1lLfkqEWp3fBK2CwFUQSH7WtekSuwR6HqD46H0ETk/w/LH3ErZpfM95u0UHeiCw9wt6OCBQIGXhkD0RUKTzY4/P495EGE0kEolEIpFI3F1svFUjDpSjNQdYOHDPAhYOWEBgoSA6joQDtVsDL87I99es59eF1rnoJfLlYaL1EroKB5vUT2RlLgks6n5FplvyxcJBSx4jAWEbKJWn5mWxKakvTTHoel+f83i9TxvYFbxPc/KN6yEMBoPVVo1I9M1srR/xa77egZ9Hz4HZbHZpzQUUMf28h4vaXyR0ev49HvRAiEQJnuqQuy0kEolEIpFIJJrFA+VOzu6wON3Apxns7+/bgwcPViLBo0eP1nY34PA+bQHFBDVtga/xec8L37+/v7/aVcHDo9uwWw55K7XScQnKchoteBYRxi7u5BxHRLic0CjUxIKSR0CNxLfUmdpJoosXwbZEjdqz3gV5rQkl206z1Lb6rMHQcr5LvLssewk8pQbbJLr9q3VSXHTw8I7BYLDakQGfs++2gGQd10RgDwgk/ShesGeBCxYsbrAXBObdy8oixSZreSQSiUQikUgk7gZ6r3mAH7VAoa9tgB4GeK40fUB5DbAHQWkBRYx/b2/v0roK7HHA6zQostjX4qwEg8i6umuCFFnb+3gcRFMttpl/dsO+DutzhKt6To7SWgG7zMcuPBA4DAtemC5fjwS2XQk5Kl5fw4D7DnWv6ld8AULsr3CKgn9cTMBdajx9PM9rGJi9W/yUhYa+9XRd71kikUgkEolE4uagWTzAQTAOllkEwEUQ9/f3bX9/3w4PD9fO4RoGLBzgloksGHi6aioC56O21oKaqtDqTbCLgXTNQhsdb2px7yMc9E1rG2gltLcRJXEgIs1XkadSettYH6FFWLtq4ajU/lEwwH7KybrZuzJh/4J9qPdLLiQgwXfPAI9TbcHox764Ia6LYHZ55xRcyyCRSCQSiUQikeiDZvHA9zNnF38k6Q8fPpQ7KfAOC07a8Vhtx8gCQkkY8KkJPiVBra3gxy5g8Lxis3hKAf7uAyY/kXW5xc271YW+5hXQUq6rctc3u1x+nmddcrHvS67dcotzwv18yRPkKtzoa0R6W+l3WZwxaqPqvlo8DuWdg7jOZ8DpuUDA2xzigoS4LgJ7Hjip9z4Kpxzgfe5FgAKBA9crQA8Nh9cJhynVlYfhXRz4eiKRSCQSiUTi/qLTtAW0trEHQLQ4IpJ4tUBhtCuCWt28dfpCtM0jihI1LwO0sEfWdjUPuLSwWIkkMSlryRufayX6vA1hLXyXcDW0kpKrXqAtWgPiJggInKY63wdd84/h+3gcROlxvKUyl7wxdvkslHDAWyWitV+RepySwOIrCgh+HXdzqL0PKDq4N4OjtDsEe1zxIo2t6ScSiUQikUgk7j46r3mgLGm8kwEunojTBPxcJBJwGhwmms5QWkMhWuNAke0Sed81MeH0u6BL3rYhHGwC5T1Q8ziI7ouu1wguIwrfYhG/auv3NtF1CghbsVuEIBUmEhCiePk5XHV9s3CA2yx6fnC9AjNb80JA0QDDONl38WA+n9toNFpd8zR86kKpPbLnzHw+X53jvk4JCAzPN3tYJBKJRCKRSCTuLzpt1ciWM7N3Vi2cGnB4eLg2VeHw8HBtAUNf24DXHUByj14CkUjAngaYB160MRIPSpZCJtnKOrepRY4JdI0oRb/xfGv+ornm23aHx9818aA1v3yu77QFBG9hWRMG/PptFhDM2hZoVOS+xQ2+tV5K759qp7tor7X8KeKPeUGS7YIAiwbevnEHBV/7gIEeCUzi0UOBp0ywRxSLvR7GvRT4mgMFBJW/RCKRSCQSicT9QifxAAfpPthUUxWiKQroUcBxRtMW1KKKytNBrX+AiziqtLuUWd3bIhwoIu9kgwlTX2+HUjhFJDZFSxw1T4EITGA43cgqXULXKSAIJqrRvbddQGCUxJiah0qtzlrbhhIJWLBR13YJJOy+Dsx8Pl9trRgJXH7ePRTQwwBFAfcywP6PhQnehYFFAfRWWC7fLbzo8Dzje7bpbgyJRCKRSCQSibuPTtMW8BgHt76rAi+U6GQ+2gpR7eAQraPgwgHulMBbRKrtGP3Dc3tLBCgiS0yoSkS3FWyNbwlfG+Cz9TEK35JuF0FDkbnI26AvSq726rmp/JbKgJbhEhm+Klf6lqkBV41aWZnc+zG+R3g+KiMLAjUxYlcCgnrW3hd5udATgIH3YXg/h2KAW/pxBwezdU8D9AJAwo8CgL//6GWA4L4Lt5/0Y5z2kEgkEolEIpFIdN6qEaco+O4GLh7wNAGcZqAWPfTBt4d1a57HgSKBixLoTYC7J/g5nCKBayzwALhEaiNhQ8WBg/Q+iIhRzbpbC7drRKQ8EhDMYld4jM8tpXi9tGp8NPWilkar90RNeLkqEeG6oNz18TuC8g7g6x4//27xBlFpteSrL1DY9PScYDuZn81mq2P2kBgMBmt9H4bf29uz6XRqi8XCptPp6rffgzvdTKfTtTS8b/JnhFtGev4mk8kq3el0ujZdwack+HX3oBiNRqu8zGazSzs+JBKJRCKRSCTuHzrvtoAEv+RtwOsZRDsm4Dlel4C9B6K1DtRiiShI8Dx29V0qNx+XSHAX1EhPq4Bgpnd+KMWxCSKLPl5vJXNsWVbHyqX6Ksh7q8Cw7XS7YpfeCKW4S2Vm8tyaVtd6rHkdbFI3ytsK48N3zqcXeJo4TQHbsfdJGK8Lj0zkeV0E9z7gHWhQZPP0UdQYj8erY7XNI+ZBLbKoPBcSiUQikUgkEvcPncUDXE8AxYODg4NL6x7wOgcl8YAFBzX1wMOo40g84EE/W8IjwsJu1kwkWklJi0dCl/gUrlI42ASqnNHUgK51smkd1hDFrTxHrqPet132q5oeUZoa0pKfljZT8nyIwP2CH7sY6mHUtAL01vApAGYmp3CxsIleAbh+AU4nwGPsy1xI8KkPUTnRQwinL8xms1V+UDDYxvSsRCKRSCQSicTtR7N4gNZ9n6pwcHCw2lnBP0j00VMBj3GqAu6iwNMNUIxAQYK3YUQvBYwHhYtocK/QxeLsLsJdoIhmiTiVPBCua17yphb3TclpyQtBpbVp/URC0i7m2F8noqk8iNJUhNL9Ld46tWki6rzyNugqDrSG8akESOrNLq+V4TsouNWf6wXXPGAPLBQYOG0UcXHaAsfrXgw83YDXMkCxANeGwekSudtCIpFIJBKJRMKs45oHPD0ALf5I1HGQyx8cLPPAuTSlgeNTQgEPutXgO7IQR8dm8TSFbVhno6kQUbjo2q4t74irSgdR24UhAs457wIlFkTx3DUBoYbS899F26jF2SfNLlNrovv9m70IfGqA912+s4F/4xaOHoeLAU7UneS79wGmw55cLB5wfeAuDO7ZwPC8s6jqAkIikUgkEolEItFLPMB1DtQaAzigVQICeyTgdAW0vrGnAQ6Y1Sda2NDBwgGThxoJVcB5xi2WTETfqRARrkJAqNXhpnEqbFKulnypaR9KeIp+3ydyVRMOlPBmVl/MsiX+LnlomapQm3JSe65I5v03rrGCZH0+n9vFxcVKPOBtEtFbwQUAX0chEg9wTRlPj+P2+HndEC479tdYH+5ZcZ/aeCKRSCQSiURCo1k88B0VfLoCLpLIVn8f3PICiD7VAAe+0dQFnq6g1j/gNRZ4ZwUfdJemFURWZWVxVt4HLfOBW+dc9yHjNZJbysO2sG0irQgnWnYRXaaMtIgEeF6Vq7W+rxp981Fbg0KF4XtrXjFqbRG2cPfx5lFihKdXeq4cfhNgX6emMLkg4FMXPMxsNltbL8Hj8h1ovM+cTqc2nU5X130agYsSSO7RuwHb73g8Xiv7YDBY7aTg9YB1gmFzocREIpFIJBKJhKOT54HyFsCpBRw+mr6A5/wYw/J1jkPttsDhmXiymzC7s0dkkeM008RqE9KOAkQfS7nytrhKsWAT8aCVwEVTR7wuIhFB1VXpN5+PvqOw1yEmbMMzo0VEcJQ8dmrlL3kbbKPNtggIKjyjxevAv71PwjbIngVmtrbQIa7D4vnA8D71wYFigy9sGK1DgP0dT2XAb18PwfPjAoSLD2rdhUQikUgkEonE/UUn8QB3WGDCbmaXBpyRMMALg/GHpyiUhAP2blADXhQOFNmPBsgsHCjy2jq4roVv8WBQiAjrJoSyll70XSLibN3E+2qL4XUVYKI8t6JFMOgbd1fs6jm2ptOafksdKQu3+t1XkGPBoyR8RPF39UZwN3+Ml9sheie4B8J0Ol3bMhEXdPV+Z39/f/VeYZy4LgJ6NGC+cWcG7ze9fP7B/g29JjCs6vsSiUQikUgkEvcTnaYt4MKETL6jNQhK6xQg+cfdFPAYpzHwdpA4ZQHnGpu1WzMjgsgeEBFq868xHTUAx7hrVnJ1vnVQ3xIu8ryIrnfJB3uC4DcTR2UlbZkvz/O1OWyXOqgR6cgL5SrEhL5obasqTUW6W8QVjn+TaQnbCKs8hrh9+Xtfajf8rFEgxXvQO8AFBD/v3gMuJDih5/AohDixdwHB78W1DgaDwWq7R7yH68l3gtjb27u0KwOWKacuJBKJRCKRSCTMeiyYqNz4lXWev5mM829f+CsSGUqLI25qHYtI0DaIYMnToJZGX/EgIj01gsjHrSSxSz1xOsq7QJ1nrw/lBYLhFFntSu67eD5wvvsgem61+Er1oeKJhJFd4So8JzydmpAT1VWLOKXicmD/g94IPCXJ+zq1GKKaOoKiBN6rPBIwT5EQiN5fKERwX+5l8F0g0vMgkUgkEolEItEsHpitD5BxIMxEHoUBs3XhgEUBjIOnK+AiiGrHhUjIcGwy6N2VhTey5G8r7W2ByQSe22R+vfI+aLHy90nT73GCpazJSrRQcbAwUCJ9m6Jru930uXRJo2s60VSF1jh8Pn6f9BQiwao2jSLqY9R1TIfj9bL4mga1qQEsHHB9sFcA7qjA6fq9o9FotW4CChi+CGOpL08kEolEIpFI3F80iwe4qjevNaA+LC7womEoELCgoHZS4PgjRCJCV5QG9DhvuOs6BUhkI5SshyqffG8tbKsb/3WIGCUyvomV2EwvYhflIYKyXEfeDpuIQ32ELyVwtITrimj6SS18X/RZCySawhKhr9eHh4nq0/tBXJRwMHi7q4ITfV+/wMOwwMhk3qcbDAaD1U4M3hehYFESJLyvNXsnLLBA4uVysSGRSCQSiUQicb/RSTxwEs/CAAoG/sEdGNBVlj0Q2NOgtG6CWUxYcPCOg+Curvo1CxvG14fUbIqIDJiVCady7d8W7opbc986aiHsGG9tWkkUVxciy8fbxqbPOxKyuC31XUgURTol9rQIVF1EltqzxGPvn3zqAi5QGN3L07083Hw+t9lstloDwYUIFDi9PtgTAoUNFGRZvKit+5JIJBKJRCKRuB/oteYB7nSAixXyegQ8vUCd550T3NMg8myIdlPA7xYooSEaILMLs3JHvgp09RTYNI814tTqwdAlPyqMqvMoXCtqhBTJVET4I9GACSq2Na5TDFcitur8pp4D22rDqp20xq1EhIjg9oHy9GkRBKLpKiXgc8b88vPmhWQxbzjtAL9ZRHVPhdlstvr4zgu4NSPWAb5HXib0inBg28cpDolEIpFIJBKJ+41m8eDw8HC144Fv1xhtl8jHvGaBD1px60ecojAej4vrGpjplfjZZTdCy3QAhU2mK/SFEjnU9ZZ4+pDFViv2VXof9JmmsGl6kaVcodS+1PNseTZ96jcSW7YhGtS8JDhcydsiEmRa81oSkryeW6es4P2ely79BQqRpX6C+zT3IlDCCQtMk8nEzs/PbTKZ2OnpqU2n07VdHXCKAwpSLjj4MXqJeXl5XRDfjSF3XEgkEolEIpFINIsH6BWgdk5g7wK8rjwSlPcBW+R4gM3HCl3cjfuQ8avyOuiT900QuY+3TvvAe1S8rWgh0q3u/iWSuKmwUGtfXQWqmjeAssi3TFNRosG2PA8ijwxOrxUcfhOxK/rtQkJpt5PSO14rswqPFv5amXDLRTNb9YPL5XLlYTCdTm0ymdjFxcXaNAXME4sHLUIV9rd+L66HkEgkEolEIpG432gWD9A7QE1F4IGn8j7gNQz4o66bvRsIO7oSJkWyIuEgsvQrQrEra/smcbYSsNL0ABYQMLwSbyL3/etCiwBRc4WPLOAt4kgXsaA1LiUc1OLmNht56fQBk+iW8pTqLsqnWVnoUWVUYVjMqS1cGhFmtNiX3n9OryR6cln94/n0tKbTqU2nU7u4uLCLiwubTCYrbwX2tPCdE6L1Yvb29lbeCsrbARd4xLCJRCKRSCQSifuLTp4H/vHBqfIyUIIALobIUxxKFkAzK6YRiRiOVnKEeWghfmjp62KF3AQlAhJZkksEsYuVl8UBr6+rmqpQSmOTPPBccxV3Kf2a5b8mqLRMJaiVLxI52MqtRINNxIOaMBDFr9ou5nkTREKCIvp+HKWJVns+xjhKz5lJuS+Q6KTe78N+0sxsOp3aYLC+C4N7HLj3gT9fjxO3ffT0cAoCl9vrCj0TMD9+nNMVEolEIpFIJBKOTrstIFGvgb0RmPwziXBLlw+EedqCiksdY9pm/QlSzbvBj1sFh03QxZK9TVfvmkW5Zn3dNrp4AtQIt4fx410sCKeIW0Ru1e9aOBWnX+f2oL77vhtMuBVJVWFVOLweiSnRO9Yivvg19pSoAT0TSulEz5TzjuF8jQHsE4fDoY3H41Xe3KMAv/3j9zqx976Tt1PE9Q1QLIjqCvtP3DZyUy+VRCKRSCQSicTdQKfdFiLij2DreOQt4MABLa/6jYNrFgb42i5J/DYstbtGi+t21/tQHOlCvDYVbm4aIut+i8BUO68EKCbOpXRLz1qRxW21ZayTmseAhy15d5Q8ItAzqKUsJREiOlfLc4u3TUSyeRFCFg588djlcrn6jV4HLB6g55eZXdqeEcuI5yNvFO5bPR+Y9+vYljaRSCQSiUQicbPQWTzAgWs0FUFNVcDdFtQiiuhBwFZgP1daR8HD4T3+HbkssyiB4EE2DsBVeM5vDUooqVlY2YKKeauhxULPYTg/LQSaw5eIdGQ19+8S0Y3q+KqFixYiWkJEwJHIldpmKd1Wsu3oQhBrngDqXK0cGA6vtbxzeC+2AeXhpIRI1Y6RQCsPgtr7osquCDzG59PCXEDwPmc0Gq3F40KC5w/FBp8WYWar/tfT8S0dOc/7+/ur/HhcWA85fSGRSCQSiUQi0Swe4CBSCQetCyDywL0mCqCowCIDDtYjEYDL4FBTHRi78jhoWfxR5aVExrvGp+LvEpaJbckiq+7FNKPvrvlCtNTVTQGXu1a3TEqjuu/igWJWX0SyK7p4w7Qe10Sj0rmSB0kkNETTWZj043dJ3OE+hz0QMG6fusXCrYsE7A2BoqiHx0UT2eOrlEf/ds+DXUzrSSQSiUQikUjcLnTabcFJPXoasIeBEgN4cUSzy9MPOD7/4O4OLBq0CAYKPPWidD+ShIhYMYnosiZEFJcKv03hgIlOyQtAXWcxo+a5EV3jc7eF8CtEddF6ryK3ipAq4hdZs2seHH1R8iiJzpVEkJbjVmzDK0WJN/iMBoN36wLUnrd611EY9f6P37fZbLbyGvDrs9ksXIuAyb6vHeM7L0R17/di2dybAX8nEolEIpFIJO43msWD/f39NS8D9gDgcw53g3XwVAUzuzSIRvGAPRuUpwOCB9M8cC95HJQG14zS9ZL1Fq2FnG4rUYqshF1QEg04TC0PLXF1xVWR3q51f9WICHfJE6VFOHBiyddavA9qz6VVOKod+zdb5CO0CIrqftwOkQUDFwjU1o1+Dy72qsIozwP3IPA0zGx1zon7eDxee87ed/nUBP/GelJeAyg4RPWinjnGkWseJBKJRCKRSCQ6bdWoxAEEkxwfdPogGQeiigiwGKGmQbBY0Ur+cF0ENcBnKLJVQ4vlWa1Ur9Ls6kXQEr7kSdByj8obW2VVGI6v5KXAv6+K1NfydJUoWejxd4uAgKSYRYJN89jld+l+JUa0CgsOJNit6WKdKE8aFhD8PMajvBNqQG8rM1t5F/g0A4d7DbgA630ne215uVVZsO/FD3pRqPrkvCYSiUQikUgkEp23aizNm2WggGD2zqrp3zgAZ4sZD3h5+oOy6NXy08c639XqVrL2slUUrY4IJALqfhz0K++KLh4MXSzDkUiBJMvD1Czi0TX8fR0iwjawSV4jMaaEbQoftak5flx7Nl2FqdbnrbwqzC6vZ7KJMFbyXmBxQYkOJfh1FEMx3/jb+zwzW1sQkcXTSESNhIPIk4Lzid4UKSAkEolEIpFIJDotmIgutzzFYDwer9ZFwOkFvn85765Q2pEBr2M6PAD2fJWsZmbayloaOPexmiqviyhPyvqOQAJXy3vNk6JUFs9nRMjUNnUYP1suSySqlg/+7kKe7xr6lLtFGON3peRdUxKRIhGo5gFRIuOtZJ8FPb8PXfpZXHN08c6JSL0SF9DjIUobgeQfvRrUgon7+/srrwMWMjEez4Py6vI+dDwerwl8k8kkfPexHra9kGYikUgkEolE4nail3igvANKngIsJLjYsL+/vxIdokUSS7suYN5qhLwFXSyfpTAKXUkMLy7Jx30FAwxTIoKI2qrzXVCq1y5Echfo472xC/RtV3xvl3iYjONxFw+BmkikLOStYl2pzfp5tJZH71yr0NJyrpTfmmXf7N177tMT1JQEv479a6lPwG0WOT61Nk2t/iPhJ5FIJBKJRCJxv9BZPPBjJPZqbYJo4cMHDx6sfh8eHtpoNLL9/X07ODi4dI/yOIgGsiUPBEV+2f0Yz3EYhShsq8WcLZueT/yN4Wru1LU8KtKnzrVaGLmMyqqtnlWLO3pL+D64CgK0aX79/tbnEBHAFnKuPA1avAz6igeMVi8G9W5FbRUFimh6E6IkEiAZR3LP3gV9xUuewsDvDHpX8UKxLKJyfnB3BVxfwftU9FRQfSDeW5vikEgkEolEIpG4H+gsHrAg4F4C6F3ggoB7FbgwMB6P7eHDh2vigXsdHBwcXPJS8LiU1wESbLS0IZCUl6znDkVYurrrKjIUCRtqQM4Ls/lxJCK0umIrUohlaylnKT0lJmwCJW70AXsTbGJRvg7U2s18Ppftuo8IxOS85g3S5RyS7FK6Ki6+XiqbEkSUt5Sfj+oXBQHf/SCqZ/QS6CsguHjg2yo62XfyvlgsbDwer675zgzsZeBxcfzL5XJt68XBYLCaIoaLNHK9JRKJRCKRSCQSjmbxAK3/yqNAiQo+NcG3eeQpCjiFAQWD2uKICB+4l3YxKGGblu1IcCiRisFgcMnjoCYcqLhKnhBRGJVXhdIOG5ymsoTX7t2lt4FK67aQotZ6KD3D0vNnYaUmHGzLq4J/K/Ggj0cMx4HWdzNbkWXlOcDx8MKw/p6Wpu9EHg5RvbHXQORRgIsr8novnGeMy9Nl0UTlMZFIJBKJxO3ALv+/S2O960o3cbPQSTzANQyY+LM4cHBwsBIOfHpCtL6BH+O0ByUclFyQUUDoszJ4n0arCHJkMVfWTLTI1l7IWpjIcluaJtBnEbTIKqmmLLTms3R+F7jpAoISnyIgAe9a51E80XSGqL23pFlrnyWRo4twEMXJOwfgexdNZcDFCHEKA8aJ3k01ka1k0ef8uGeAPw/uF4fDoc1ms0tlVN4HpbUS0LOCy59IJBKJROLmYtv/161j8etKN3Ez0MvzAIHWMBcHxuOxPXjwYCUcPHjwYE044J0aot0UoqkKkbXQ4QN83LmBw+BvRaS7NGRcbC4iWSyCRGmVvAqcxCAJwZXYa9bUmht6K1pc2UvkzK9Hv7k8Ncu0I9r2sgZFvEuW4+iZej5xjjhf5/JgfTmJ8zh4Oo6qDyd96vnzfRgnPyeuDz7mNh6JeCqekuBUegdVflTctXr1315W5eqP/Q2nh1MIVLtQHgGt7zELFfv7+6s4ptPpGqn3qV/j8dgmk8laHCiKMPyai7We3nQ6XfUhi8VirS05cpeFRCKRSCRuLrZF5LvyghbDZ2u6KR7cLvTabYFX7cZBbbSLglpcMSLT22iMresbRKRFNWRlbVVEmglISTiI0mXSowhs5OFQyq//7kIKfME4lc++L3zN+q/KXLuupq9E01lKz8vPqeMWRCIOkj18zqotIknnukIhCD8l8QAFCQxf6/w5DVV3Ldb20rVaG4rEIxYNlHjnecS8ct24oIB9xmj0rmssufu31GFUJtXvqZ1lOF3uf/0ci0v4vD0uXCshaicYj3qnEolEIpFIXD/6jkEQfcl7yWjRJd0UDm4fOokH/s2CAU5PwN8uIuB2iz6o5TnF/h01InVfBCaIkdW6ZulUBDMSDkqEhc9xWmgZVmXBwb8in/7dtwOpkXQzu7SoWqtFX1mpWdRQ1twW1AQGRp/pLK0oiQ98XglC0XGUVvThtLHdIqE0W19jI3oGLGhEZaoB27GKR02VwGvq3eNy+XVuq6qsKIRyGbD/QNGTRTR+57A/iLwUakCC73XGOyeggMv5x/pwLxaMG6c9REIKhvd8pICQSCQSdxvbsmArJEHcHXzc0BfK67AVakpkK3jqZQnZNm8WOk1bQC8C//g2iwcHByvxAHdYMFsf0KKljwf/mzR+zCeiK1GpCQ74O7J2Ro28JIwo7wSvJyxXyUujlC7XdQRVTpVGZNHnPKh6UZb0khAQeVD4NTyPc9BV/jjObaAWV01IMNMW/ojUeXh+h2oiGXseRB1+q0VflTGy7uNK/1F6UfosHvAxlyvKq59jyz3Wj9eLT7Vykm12efpC1J49LhQnWoGDAC4jCggu3k6n07XnjMJBNE0F8+/lx2+sL1x4MZFIJBKJxM2Djx268Cg3TqDxpQ/29vZsf39/bbxUwnw+t4uLi15pbVtEyPFNPzSLB2raQWmNAgQS1r6D0RaSXBqol6Ym1IQCdV8LofKw7A4chTPTUx5aEJEy/KBFtpYfzFNk0Y7yUCJVUfotwkAkMKjzpbZQIvN8zPFGXhTRMy7VSatowmALvLqu1uFAazSLBxxnJByUhCe1RknNuh2Vj4kzt0UuV/ROqvN+zCKm/4n6+i2ef3bzx8URsV5ahJEavN78+URrv7A3F9YDigZcn5wOlsvPY5iWPi6RSCQSdwdJ0G4nXEDwLe5LmM/nNpvNpKdmH+zt7a2MxqW0J5PJxu2hZRzZghzf9Edn8UB5H7CAYLZOYNB9NrImRsBGUnKNKZGw2mKIrYPkkvWzFH8LUWcS1+XFKAkHSCiYREUEOyqXKgtbVxX54HhVXF1EklYBYZeIxBNVP6UwKCB0cQ3n9qpIJJJiJR5g/hRJLxHvqD6Q6LoCji7yXRYVjAQLFhZaoMrm6TvZ9j8196hS4oGXEcvA8WF94H21d9vj8Pij9Qk8Xz5A8HrAvGJ6WAeevhJ7eXpC5MWTSCQSibuNbUzzTHJ2tfBxwcOHD4seCMvl0s7Ozmy5XNp0Ot1a+oeHh3ZwcLAyvjAWi4W9evXKZrPZRumwUaoPsm1uhmbxwBc/HA6Hq8aB59xa5oPY2Wy2aryubNUIHg+QUSxg6xsPyDHeroPdUp5UvC1kisvlxKBmla9dbyEgnldFJpUVNzpmcsrHaCXl4wh9xBFG5LHQ0r66nI+utQpBpbBKQBgOhzafz1ckjsUVbmvcDnmnBnzm6Mqu2kHUXjismV0ip/xe+ruKooH3EWrnAn4vlDhQe0e5zUYihNcpqu0+7246na6mTz18+HAV3p8JP4vSM+XzLeG43Xh7QJEWRVzPF3pzsUiDz5CFKxb+HK2uh4lEIpG4m9iUoKmxQ+JqcHh4aI8ePbL33nvv0rXJZGLHx8e9pw20pP3JJ5/Y48eP1xaePjk5sc8++2xrYwscZ3aFj4UT/dF5q0b0OECvAyQ3/GkhZzxnnokInkOLHw/ktyUcRCSkRThQVt0uFmhlqeS1Dzg9Vf8RCVRkJhISML/82/OFFlrMX2mdAa6TlnYS5SsSOUroIyS0xIVttRYfC0ocJ5dXlTVqk+rD1yPBwFVhDuvgAQGv+I+L/eG7iu84Pm81fQLTU9tRcj1ifvF89C5gGi6s+B+Kl4HFC7Tc8zNU7y/nOeprSkKCEmWUkMriErc/XNNguVw2CQQtYmAikUgktour6HNbSD3+53SB/6cmrg/j8djee+89e/LkyYpgv3792o6Pj+309HRnbWwwGNh4PLZPPvnE3nvvPTs8PLRnz57tpD2gYaqlPG4MSuFgc3QSD/xB+Zwa9Dpw+CDbGysOXqMOKBIMog/e1yocRCQ/Is1qzngX4UCVrTQYx7KUBuzKrbiU55LXgbLqRnWohABlccZnx/OpVTwY312DEhAUufR24aSOV8nnONW7EC0aGLVTvwfbBn4iws3tiIkzC4lInFlkQLFB5c2BUy1q7US9n55nXlE4Krf/wbjVf7FYrDyp8N75fL6mrLeIG3gOvQNKFp5Sn+j58/zgPZ5fFD14McYImJ8+g8dEIpFIbIbS/0IfdCVN/p8xHo+b8+FTAO/imO42YTQa2fvvv29/+qd/aoeHh2Zm9stf/tJ+//vf24sXL3ae/k9/+lP70Y9+ZJ988on9m3/zb+zVq1dbT8Pb58HBQdMYZbFY2OnpqYzHLNfm6IJO4gEKBTy4VBZX5b7cKhBEi4VFD7lmOY/CRwJCRMB50cEaUDzB336MxEsRMiWYYPoR0VN55rLxwmqqTIoAK6sokhlWA/F5Y10wFPnC581lV2FaUCJptThV2VWcpfNsHcZnjd4binRiPGpOOrchtoj7MbqxextBku35YC8DbFvqXWaBgOvK7+eFU0ukuwSuo0g4YWGNy4Vk28zs4uJiTdhALysfTOGaDjUBQMGfQeRNZPbO+o9eX2phWnx2vK4FltG/S/nk92DbA9hEIpFItGFb/W9fa+tgMFjtqlYjaBcXFzaZTHqlk9gNfvSjH9l3vvMdOzg4sN/97ndXmvZ0Ot3KGgc17O/v2+HhoT18+DAM8/r1azs/P790HsfkiXY0iwdM7M1iAh6tsl6Ls3SP6kCVZbXlWOWZSYiy2CtLbFRX/BsXTovCMtHjfKpG7kQPCUPNAq3C1cqC+eSpCRHB8HIgoSyhyx+kqgs+p/LTNd1IFGgJU4s3Ekvw/pKg4sdYrz4PviRGRe2L684t7xyGSSg+X2wPJYGH210kDNUEBkwnasslgYzj9zR8JeK9vT2bzWYrwQPL6udcnEMRgetKpV8Lx+WMvvlZ+rut4ojqKHpeKRokEonE9WITETf6P+iavm/Bvr+/L8OcnZ3ZbDbL/4wbhpOTExuNRnZ+fn6lU0levnxp0+nU9vf37fj4eKsLMzJ8HPro0SM7PDxcWwdhPp/b8fFxek9uGZ3XPOCBqluv2ZLI1jE1wMfrGD9PcSiJBjhvuUVIKF1XFla1+FzJqofHfG5TS6uysk6n07X52iUBgePBhSy7wF21URRxy62fdzdvjtvdrM3Ku2e0oKtiuInCqJ5vLVxrfjBfTMijBYfwvWFCzx4lKCaghwGSST92MozvNLYfjheFP3z+ng8lWmG5/B5F8PH9joSp2vP0/EXxYDi8hu3XyzYYDNamKRwcHKzlA8WWKM+boEV8xD7LwX+aJXGh5BGWSCQSie2jRTz2hXK7whcE3hTj8dgePnxoH3300aX/lOl0al9++WUStBuGxWJhn376qY3HYzMzaXnfFf7u7/5urT2cnZ3tND2fpvG9733PHjx4sJbur371K9k2FS/bxrtyH9BptwVf60Ct5F1ajI8XPHPXW9+twb/VVAWPn4lMbUGWiDDzoFl12jwPWs0D5/n8TC7VeXRJL7ksR2XBcns+fIV4XOQucluO4lUryUcCiZNCnr7Cz44XMcH8cx2ULOst5DD6rcqkOgdl+Y1+R89ZodWijPlCAsdxKWs9vxdKmPP75/P56vmZrb8LSBI9Tl4jI8o/E0zOj7dHbD8OFLA4v1wes/XpPzUxDvODfUmL+INbDeFeyP6eRdMucK0ERcajukRBDetK5dXfM193xvsDVNuxfvC892XuTeHvP5aHheLcfSGRSCR2g9a+1cVrnDJXwnw+3zpZHA6H9vTpU/vRj35kH3zwgZmZffrpp/bs2bOtppPYHOfn5/bVV1/Zq1evVm1sNpvtnMSfnZ3Zb3/720vjF18LY9eLFX7yySf2D/7BP7A/+ZM/sf/3//1/7de//nUxPI/LUkBoQy/PAzWoZYLLxJAHxEg2oykL+BDZesnz+FsQhVUiA1rn2FrKpKpkzazlRRFZPOY6RfEA5zfzCvlKJIksocpS2mLl9G8lJJQsl13qjMl1V3CZWgSEmpAQnVNoyTOLG5gft5qX6gsFHRTaSiKMPzeVrhLaSu00ahcYX/SOlcQOJZZgXUTtGY9rz061BRT1sK8xe1snvlCsv3/cV3G/VWq7UTus9Ze4BgOLTehpodLlc1FfwSJfIpFI3Hdcd1/oAoJbkxV2te6ACxgfffSRfe9737PZbGYvXrxIj4MbhtlsZufn5/L/fz6f22Qy2QlBnk6ntlwui9tAlhYE3wb29/dtf39/NU5rEdqUgLAt3FUhoteaBziYZWXJB5poUUQrHO/SEC3AqFCzgkZQlllPR5EcDMe/1boHSvTgujOzNUKCllC8D/OH3hUuGLgVFF2TVd7wPC/W6N+48J3KLxMSrlM85uvcVlpezhJB3vYLeBvURc5jZIXGa0qIMFsX71ho4jTxHkTpXVFim3qX/LtVfVYLG0b9ROSWhmmzGBMJGZg+vmv4nvoKxt7+I2E1AgsLLGp4Xl2owF1uZrPZymPL12bg9xq/eZ0azAOfV/V73QPmRCKRuCnYJllW/8MljEYje/DggT158kT2y8vl0r7++uudzm9/+vSp/fjHP7Y3b97YwcHBztJJ9EPLwpXb9gBYLpfNW0Du0vtguVzaZDKxzz77rJOXheJgm+bjLqOzeMDnHD5I9flVPpj1CvQVyl0RYgGBiaqyKkbEnhGRGyUeeHizdfLt5XDLI0/NKJHu6Fxp4TaVdxz8o7eBEjBaysnrUCDZw/nr0T1KIGEraOSurZ6nIifbJCkR+bmpL7WyXvN7xFZgHsSg1ZnhbdnXnVD3etoenr0PuM1hm0Rijm3Mz0ciA5afy4QLEvYBp6HqRpXLBVAsI7bZxWKxWvPAvRGwL2PCXhJEuZ3iu4A7Ongf5Jan5XK5pq6jJwLWMYqEWB/+vnq7wDR5Z51duxomEonETUdtnNoFaqzWiuFwaO+99559//vfvzS/+9NPP22ytm6Cv/mbv7Hf/va3K6EicTPgUwNaFifsYsRpSbfkbRDdswv88pe/tN/97nc2HA5tMpn0EhA2hTLK3DV0Eg8cUaenyKsPRn2gih81ZUEtlMgEOVpETuWByQrex8fR2gZMfHB+MuZVWViZHCiyr/IfrbvA4gHfZxZbaz0vEWlnUUB5DzC5idY54GeJaThK6r2qsz4vNbehKI3SuRL52xbw+ZTywuKAIp7Kmq3IMcehvBeid4njwfyjiODEFNu0k1GMq9RucBHC6L1X4pN61z0u9CSInq8S8jDv0+l0JRpg+iiY+CCOyXsknJTKhO8bin3RORaauM/gezkN3GnjLv8JJhKJRA3KWNRXQKiNY1swHA7tgw8+sKdPn9p3v/tde/78ub18+XKnUwgWi4W9efPG5vP5atrE8fHxlS7El9DwNtVlW8Rt/LczL+p677awWCzs9PTUptPp2jvg0zRa87epgHAfhAOzDuIBggfVPmBG0mH2rnN1TwO3kqHXQY2gqvRKDT4KGz1QJutKMOBtEB1+7FZBJm6qjvy8KoeHwU4Aj3EagxImMG4sayQIuJcAPgslAPCzwRcTV6RX92HZ8JhFCw5zn4HPS5FMVa/L5bupI2qOOsbpYUajURiXh+H3AcmwvxvYbrHtq7aM63Rw21dtDdNSxzWoe7GvcqKP7xK/Q6psvpWjb00ViTjRlIFIPFDCTiQa4LuHfS0i8trAPPlz9Xiwf74vf4SJRCLRFYPBoLj2QITpdLqV8c4HH3xgP/3pT+3P/uzP7N/8m39jr1+/3jjOEmazmX355ZeXzqdn2vUDx1d97u2LTZ/9tsYWk8nEnj9/HopnraKKj4H6APniXUdvzwO03OEAmQUDn5eLq8RG5BHTYQITDeLVPbVrGAbJEU9P8PSVR4IP8lE4wUE+CilMglClU2KGp+GNUC2M6GFL6jcTMSYb6GqthAT/bWaX7lXxswW29udYEhu4HNEz7ANuy7V8XpWoET3DEoFjAs7xRO8Gr6CP90YCHAtk2JbxneF3B4/Vu4R54Palyt6F0CpRkM+pOvWFf7Bt4m+37OMgkEUHJOhq3Q9OswSsGxYMcC0EzJtP+eDdblwU8Oe5t7e3GgBzH3Af/gQTiURiEzx8+LDJ4u/u3V2swzWcnJzYX/7lX+5cODg5ObHz8/OwnP5/mLhaMKe4StwU0ejs7Kw6bSIa70XY39/vNP1nOp32Fm9uI3qteYDkQlkPeXqCf1pIGoepCQcMzlNpoM6EQi1EyBZUVpV4MK9ECyUeqAYWpYvpoQs3p4+ChiL4ykuAp5CwSIBrGLA4YBa7m6OYhGQzqjdFfPF5bUrgsX4U4b4JiNqMItNd4uPj0nUm7CweMAmuiQccT0k8UGh9l6PwTqRR+MDr6p1lbwGud/TecHEP48b3AEVWzmckJqj2zvHj+4kfDM/P0cPju4hiAqfj96aAkEgkEjH29vZsf3+/uHjgxcXF1sn1t99+a3t7e3Z0dGTffPONnZycbDV+B6/5Uwp3UwjlfcK2/qO7xHNTxgVdRKsu4xkfL7V4Ft034cBswwUTzezSIBS3kUGvA7Zk4Tc/TBzEM/FQUIPvktCAcaFg4A9fkXieyoBkhMm2l4FJCU85wHzV5iqxAsYDfAUk/S4MqKkhKCCgsMDCQLTuAYeNSKuXOSJCEbZlAe0bzzbEiy5AoUNdQ5Ten+icEmpK5WOyieB3wsPz9B4sTyQ48DHHE4k+LBjw/d4+cVFANXXC7+d+isUQb7M4HQOBefOw8/n8kneNaotqmgPHhwKt96/z+Xw1DUXVa2QtQtGP2wX3f4lEIpG4jMFgYAcHB/bRRx+FYV6+fLn1fvTTTz+13/3ud6vf2/RocCyX5a33EteLm0LirwN9vV1a62xvb8/ee++9olfRfD63N2/e3Duvm07iAVuTmfThgNaFA7RkswWzpAJF1ncVnge7HAeTCfztawn4/GUUENT9ZutrHShCgPPAkYgoTwK8D+uW65nrHhG5GKOg4d9I1j08CwyK2EfHWP+KGHGeWGRQ93IcWJ6+6KI2Xgcii3iUHyTifK50Ty2+VmB7Vc9avXMeHkU0DIvH/P5FeVBCAaeHlnU/Ho1GlwQP/KCFXgkkZrZ6z/k5qTVBcCqBqmsUOZRI4u+m2dutujxPuHWr5wenO/l6LJg3H2CiFxMPau/zgCSRSCT64o/+6I/s0aNHq98nJyf2+eefb3UHhOl0ar///e+lMWGb0wdavAMVSv/bie3guur3pjxXnBLbFV3L8PHHH9vjx48vvW+vXr2y169f25s3bzrn4baj86oQSEB4gK52U+CwUXwlC7Qi8H5vKW4mM8qTwcUCFA/8mONBkoBiCJOHmoARgUm1suazlRCJP1sqOR72HvB84zV8ZixYRAvaleodf+O9GC/mGe/B59uaVg3qOdWIc9Qmdy00qPesFK70TFqud80b1wHXLb4bqk0ol36+p/TeIPF1Yq6mJ3gaKk6sY2Wx9zBqWgZ+49QF7Dt4GlBJQMA6UQuOqneep4WxMMj3YjocJ9fFfXLBSyQStw+7/A/uQ5L29vbs0aNH9r3vfc9+8IMf2PPnz4uLuPXBfD63i4sLm0wmxTCb9t/4P9H3/kRiF2COtY14Stjf37fHjx/bxx9/vDLQHB0d2fHx8Vbf7duETuLBYrG4pJ6iRQ/daNWiW8rSrUgrxq0IROmB10QGXtvAt/CYTqc2nU7XBAQkbZE1HgmGIkGYLp9ncqDWJOA0Mfxg8G7Rw8hjQH38/tJ6BRHB57xFLzGTMBQesOwlQoz1dFP+iDbNx7ZEEIe3wRbhoCsigYTzqsJg++D3APOs4sMwkbdOdE7dz+lgH4HvMFv9ffCF0yxcoOByRd4U0VaOZnqrUvYSUO/nbDZbeRR4fzubzdbEE3wOLEh6/iIvoOXy3cKsvptEIpFI3FRsu4/a5H9+OBzaD37wA/sX/+Jf2L/+1/966+sQtG6LuOlYpWbsSiSuC9tqm136jQcPHtg/+2f/zIbDoZ2dndlf/MVf2IsXLzbOw21Fs3jgg313hWVC6eRXeRyglcuvu9Dg6ySUyDfnA6+re9QaCbxgG3scTKdTm0wmq/Po9oWux15mn0ONFsUWy64i8Tiw9zTYkhgRAhYP+Fil5/B78byy2PKxOlcilKp8LehLeEtxKVFpE7R6L2yCWty7Uj5Lwk7XOJQVP/JMQBI8HA4vEfNSWriYoRIua/lEYD5wnYMoXjXVwkk9p4EigkoT+zbuT9nrANczQQHEpyVwP4DhPS88vcLTSuEgkUjcZKgxUh+0/le04MWLF/Z//B//hx0dHW0cl2O5XBa9DaJ7+pQnhYPETcU22yWOcVr7j6dPn+5kbZHbhs7iAYOJIZMF5T7LbvQqLdWRl8QEP+YpCXzerYQuHLi3gX/j4mC4eBmXoVRPEZQYwOKLmhrAjVsRAbwX3ZhLayW4aMN5LP0uwUmVSmsbf+6teTDbfgfTNY0kXevAOkPBDaEEhC5Qz4OFiS75VHFgG8d0WUTwBRLRYyHqvzCuaKcHfvd5CpLqT114icRDVfbSJ5FIJG4iNumr0GNtG+OG4+Nje/78uZ2entpisbBvv/124zjR8NXn3tZypWCQuKnYRdtU47kIi8XCXr58ucrLfV9EuvOaBzg4ZfLKg2DvyHHgjRYyP+dgr4Jo0bTIXRk7WB/Aq3h8W43JZLLac9enK2BenVyr7QqR8PMfVkkw8Xu8LllIKU3jwGfAhIGFB897aX2CksV6E4HErZ0Y9roJCLetCDVhgNszxp8Eqw1oUTe7PK3HgV4ELCZGz4f7iW3/4XCfptJmAdNd/9WUL25LWDfszYT9B3ptoGjo6WPdqnqIhBZPOxIwE4lE4iaCp2+2YhNirvDFF1/Yl19+uZW4HJvmLUWBRCJGbfy+XC7t/Pzc/vqv/zrkevcNncUDs8vWL7R8m+kFuZDU4roIGAaJARN/Px+5neMgGbeB4ykKuNiMexvgQJyt9or8R/WAZcAyo8jAC5zxQJ2FCi4nphvlkacuqDiw3jYFP8NdEI2SOLMNizPGvWn+o/vVc7wvYBKL7YXfW3Uv3sPnIyDR5/apvAe4zfj7U1pDAdPAj/crfo13aIn6C4fakUblTU0D83DeH7CoGomxysMhhYNEInFbgDt+tcDHhdsQDi4uLuyrr76SAsZy2X+7w/tu4UwkdoWSRyni1atXdnJyYr///e/Xzl9cXNxbAWEj8SD6+GCVXeaVZZ1JhB/jub5uVzhoduEAvQ2m0+na4mU+EFceB6VBNIskeJ6nEqhpBux9wMcqXrYSRoLCrgb+rQR5V2mXRKRNsc3O4Drr6aYBRTrlZdR1kITxcH3y4oHqT0KJUCpO5QVQKp/ZuwGfr53i3jjL5XLlIdDSBrhfZE8eFnExTl+fBj0SVJwsfiQSicRtxd7e3mqr8JLRZLFY2Pn5+Vb+i3162NnZWRjGjWJdkP1xInF9cEPQ8fFxKEje1/UPek1bUBbzEklCwozEma1v7L5c2uudyTTHg4TEF0CcTqd2cXFhFxcXK28EzN94PF7zjoiIeOQ6zZZ+9gRQnhrsYcDiilqzIKpzFjE2+VOMiMRNIb3b9jjYBVI4uAxFhtEi7ucdtbpqaeeb1De2J/YGwA8Lpy428O4t+/v7qz8hXhQVgVOKIhEV+5bRaLTaRcbh+fCdGfb29uTgFftdj7fk8ZVIJBI3FT6Ge/LkyaWpYo7ZbFbd7rALfFyZSCTuDhaLxWq3lL7jyJvESbaJZvGAXeFLwgELBjxVAd32IyKuPAg8bvz260owwF0UJpPJam0DLA8Sedz1Acm9KquyXJY+KAqwcIBxoqcCX2PxIEKXRt7nhbgp5LckICC6kNHWdFVc0flS3u4LUAjjdUnM4mdUE+xKzxZ3akDrOlvaFSlnLwh/V1EYiAQEzxcuvOr9zmKxsPF4vAqH070QvKuDx8n5dNHArVpYT7gzDrdN72PQ44PzzKJOIpFI3BYcHh7akydP7MMPP1w7//r1a/v222+3QvaXy+Vq+msXlLzssr9NJK4f6K2uwONN3ib7rqOT54EixWbaMqZcapEQKxKuFk1j4LwUPsYB72KxkDspeJrs6ov7sfP1FrGE64RJP0/ZaBEPlFUyslTuAizQ8LmbAJVHvIZtZNvpqnhTOCgD6wAt5e7Wz2H8WmT9jvoKf/ZO+P2cx12bIsHvnKfP6whEUFMYfNvGwWCw2o0BRRVMi0UTzhuuxeAiCa+REPXXKELW0kokEonbBh9DHR4e2ocffmjf+c53VtMUJpPJypq4Cfw/oO//epf/s0QicTXwMVRpilHLO3/Xx1WdPA+YBGMF4vZkHt6J93g8Xn2YLCtLYoubrHJ9dm8D//hUhclksmYdRKHAj5msR9MsIoITzWMuLWjI16PwjCSh7eC2FpGlkreCut71GeQzu7wgoIsHaLVXz6HFAl7yQPF3DQl/NP3Aw7E3QBQWPQRwIKk8Jlw8MLO1+XOcFgoUfq8SEHENBffqwqleUZvlPojz6eW6q396iUTifmB/f98+/PBD++/+u//O5vO5ffbZZ/bs2bOtxH3fLI2JxH1By9ok0bvv47NteDzf5DFYs3iAg3te8FCRfQ8zHo8vTVWISEIt/ch1GRdEdMEAPQ7QEheRAjO7NH1BeRyoRoAWPEyDrX5Yfq4LFguitLoSKKy/PlDizm36w0QSV8t3V6+B1nq4TfV1FUChzztpFB2Z2KPI4KjVKVvfPV2cOtFHAGIBARdT9LhRrOC+ERdwrQmSGBdex3A+bYE9DyIBFvsaFDBwykN0TyKRSNxGbHMrRrN4Gl0ikbi9aDFcm+mptSrMXfbs7LXbAoLn5JrpNQ+Uyz8OctFiVlookdM0e2clc5KB2zOiZRPBJB29DXxQHbn9IlhYUGIAiwo8fYOvlxA11LvWMPugRv6jKS/R/dFUDUXiEuvgdxeJN26dygv1+Tdutcpbr5pdXmwwGswpi70aRHIHr357m+EwLCDgNAne4YCnVjnp93ef+z305uJy4G8lcHLfgjtGqPP83Fq9wBKJROImwqcqPHv2zBaLhR0dHXXe8UAh+8Sbg12Ow+7bc77Pddklf8oblOHjKx5Dbjsv14Vm8QAXHmPXXwQS8fF4vFpd3N1q0fLHLsmKKChxAkkECwc4ZcG9DhQB8PyrRR1Ho5G0XHKDUYsb8sAcBYPIy4CnJ+CgvURUeZDfIj50BTf420yYFfFruafL+fsEdNVnCz97CyA59qlEFxcXazsYILlHC72D10hwUXJvb29lOVf5MVt3JWOSz2XC79J5js/LPhwO195fFE0Gg8HKQwrbIwqsXLfY92JYLhuXaTB4Oy1rPB6v8jCdTqWnlOfP03WBh8ufSCQSNwEt/8EXFxf28uVL+/M///PVuW3tsJC4Wdj2mOw+/+fd17pszWfEi5ShUXHYErbpIbVLdFrzILKyq7C1hQbZohV5HahBPIsHaMl0V2ie+6vWbOB1DdQOB/5dIpEcv59Xaymwl4GKu6ZoRXkoCQyb4C4TZeWB4FAdwl2uiz5gl3t/N/09ZBFsuVzaZDKx6XS6JhT6fU6M8RwKg56Wsp5zZ64WIsS8Kqu7H7dap1BAxbpgTwkUEXinCbVwokOJs9yveT/joqenoRZmxcUVXeQwe7dXcUsfnEgkEjcZy+XSzs7ObD6f29HR0do1Ny71iTNxs7Gt8Rl7Gd5HbLMubzq6iAYqvBtvo3FcLQ30NL0t6LXmQQuZKokMyoMgcpctVTh6HeAcapzfhgRQLYDox7WtERml6QrK4lkTCVT9taJPPCXSfNcRWZUdUfu+r/XFqHWC+E7itCG/pt5TfPe5nn16g1vuS8Ibo/Zu8BoInk/lVVVLxwk7L5wYiXpO4mt10FKGkrirxBYvI3ohYN5ui/qdSCTuL1T/6v3X+fl5uB2jjxdvA7FJtKNlTFBD5H1437BpXXa1uN8GRF7YaJiKFrovxbntNVmuAr3XPGgVENjrQIkCbIGsiQdqS0ZcKJG3ZRwMBquFG/0bvQKiwTeWgcvK3gbqXjWY3xbYott6D37fFzKsPFzUNbPyugf3rd4UuJNDMmq23hH6e4jvtosGKC54vDj/H9+Xi4uLlWXcFzNFRP0E5k31MR7G7PKODCweRMImv1PsZeHxspjp4XkniRYhS/VP7H3gZeB+yu/lnRa4f+a83JU//0QicfeA/aT/93z77bfV+27bgD1RBv4f9gEaJBPvplv3QcsuWY5djqmvauzi6eDmAK33uSfubUIn8YDdcFlh8XM8BQAHujjoxsG8x8+faF6yv+Cz2WzlBu3CgceHA2r0Otjf379EUtR0BVwBXg3i1aAcr0ViBJYjIqsM1RCje92qGOG+kt8WMqSIk7dbJFjbFoNuOvB9RFHA7PLUBZyu4OKeuh/n1fv74qQXMZ1O1/7M3crvHa7/9vy4wID9DU5/4HJhvHjMzzsSKLC/8bRweoDfz+sxYN78g1M2IiHBr6HngO+6gFMilADKngdYvtJzTyQSiZuCaDzknm2tpCW9rO4mBoOB7e/vd7rHDRQpHKxjb+/trnmtQCNRV2x7TH0VYxc1fvL1/kpt0Mdqx8fHu87iTrDRbgtqsB19HJHltyYc8D04SPY/C96WERdDxG0YowUOWTQolQNFB0bJ44CJCJMSZcGM6hvrQtVR9CLeN9LLvyMrr9m6wKXOq+O7DhT6kPzzO8qWfnyXWVBAzwMn1h6Hp+nf6EnkiyOqXQgwH/zORRZ+fM6Ru1nLM8b24O0DSTpOZUDgu6s8I5RoFaWJVhclbimhF4UGdU8KB4lE4rpR6oPZ62AwGKwRwFYR4SYh++H+QO86XKQ9Aq9BlFiHjxXG43F1LBQZabqmty3s8r0pcQA3XD98+DD0Qjg/P7/Vi7f2Eg9KogEv0oVTA1gUQAISLdIVHfM6BywceGPHHRTU9AS2yLGXAIeJys5eCi2WPP+TU4QJrduRSOF1yB3fJm5b9wEl8SASb7ijuA+igdk7UotWbSf0+P45xuPxmhcBCgX87rpHgv/Rc5ouOng4s3UvELfwowcQ9jceRgmW3N/481SDDRY2MB/odaCsXdH7y+1HvcfcF2H+lQjp5UcPh5KQ6WFxDRgMo/rdRCKR2BR9/z8jQdT7QvyfMbs7pPu2EKqbhMFgYIeHh3Z4eFgM5zs/RetjJN7W5ePHj9fGaQpOiDchxZEhowtugkfRYDCwJ0+e2OPHjy95IMxmM/vqq6/uh3iAg/IIOGUBtx7zQXy0OJjyPiitgeB/EmgBdQKCosX+/v6lvESDaSUomF0ewEfHESKvgih+3C4N61RZRZfL5Wq6hm/9prwrsE5rYsRdRNTW8Du6D8nqfYO/Z+5tgAMzfA9xvpbX1Xg8viQKmsVz+B3oSs9eDmbrUyLm8/nalCSzy2sX4BoLnAfsZ9hSgeX0XQl4UUW/7nFiedSaCVFbwzUiWgVD71MRSgzgD8PTGo1Gl6Y7YP1c9x9xIpG4e+j6v1r6/1DGJ8dtJMzbHnPcxjrYFD4W+f73v3/p/2+5XNo333xjr1+/TuGgEQ8fPrSnT59eapvT6dSOj4+3Roadu9TECoVNPR+2jadPn9rHH39s3/ve92w+n9vZ2Zn9h//wH647Wxuj124L6hparvibocQC7PB5ugJ/IlKCBABFg9o0BS5jVP7asecdt0Djcqs/NSQk7PaDHg34Inkd4GKRWFZ0k0ZBolT+u4aS+ITXI7Bll62/NWvybQa/a2gVr4l63P6RSCsvAzyPYg32K+q5OeH2+51Q89x/FAi4jH6NPZDUnw+LCB7eURJDeNoC5gfj9Dzz+g/cFrEuWLTAfoCFA7wX88heWdwOEolEYhfoOhYpjb/ugnhQ+0/pirvoidEKb1uPHj2yR48e2cOHD83s7SLMZ2dn9vr1614E9b7CXfE/+OCD1ToIp6endnJyYufn51s1SqJBuKX943j1JmF/f9+ePHlif/zHf2xHR0f28uXL687SVtBZPEAwsULPA/XQ2ZsAf7cunohWOnd/xvR9NwWcqqDEjZbyMclu/ZNDizXWkx/z3CqsJ18czvch5rlGvhDbfD63yWRiZ2dnNplMbDabrZV5NHr3aLGuUIRQK9ffJbDQhOfMuq20rNbBYBJZEsxuG1DIci8fnxrEFnu2xvv9PJ3A4Yv7sYsp3uv1i674fs3h51xA8Gft9Y/PHsUJjw/fRRYflZcC5s3M1oQSzLOH40EsW/DVOgg45QNFFwzr8fh1P8/v9mw2W+uL0asC3wkvt3sf3GZXukQicXuA/W7X+xDRGPIuYJMV780u75B0HzEcDu0P//AP7Wc/+5mZmX3xxRf22Wef2eeff37NObud+Ef/6B/ZBx98YIPBwH7zm9/Yl19+aV999dVW0/Cx44MHD5r6h/l8bqenp1vNw7ZweHho//Sf/lP7q7/6q/snHiiXXYayetU6PaUQl9zPOIzZZYubr3WADY4tmUwKIqsg3x+VB+/xgb0iVKoTR8LhQoAP4NGLwN20J5OJzefzlXrKLuUsyrggwRbNTf+UbgMiEQqvKeBz8rrnNsBzxJ2YoXBzG6HaLE8BQDjp5Gkx2L54QMdioNn6Gig4/cBFi2htFPRA8HvwObOw6M8Td3tQ1nuuExQFl8vlSshjTwMMg+3G4+cpHn6faqs1ccXT4nQj7wPMC8aNfSL3hYlEIrFrtCxu58CxKE5tU4LtXUCXukHg/+J9x2g0socPH9qPf/xju7i4sM8+++y6s3Sr8cEHH9gf/dEf2fPnz3eaznA4tMPDQ3v//ffDMK9fv7azs7Od5qMvFouFHR0d2b/8l//Sjo+P7fXr13dCzOvFcqLBeWmgiveqeCKXE7bgK+EAyQrOgea1C/BbCQScbounAZcHrdIOJiOskmMabuH1Tt/vRRLingkXFxcrYWCxWKzt8Y6Cgh+jtXE2m60RvLu2BoIaRDhRVASUweIBexh4u0SPEIzvtokybNHHT6mueI0BFhCxrpRQyO8+T/tBouzP0L8xb/hsMU6cO4diIk9nUF5GmN+o3+ApQgwVN6+H4Pn2uLgvVEIGCgfY5tD7RX0wv/xM8F6O4671D4lE4mZB9dOlsNjvK9w24aA2Hu1i8GEvvMTbhRFPTk62Ojf/vuLs7MyOj4/t+Ph457tUuCf1w4cPL3khuLfBycnJjWzry+XSTk5O7OXLlyuPA/QEv83oteYB7s3u19zi75/SNik++EVLJi/GhgNY3NaN3dDR7c3d9nHqhNm7gbmD3dbVYLvUSbPlDvPjHbyTds+Dzw8aDAaXPAbQQugLILq11fPmwsByuVytDHt8fLya3oDX5/O5nZ+fm5ldWg3fw5nZyhPBnxl7ZPCfb4uYsgsoElc6jwTMr2Hd8FaD+BwVsC1gHeFzw3xwPDd5KoMS8PC9xHcOB3fKwwBJJrYffFcZKD6o92m5fOuNg8KCv8/oPeDPlBccxWeEiz9i28AdWTgvCCUgoMVftR9sG+ih4eXkZ+HvqpcD+zYlWi2Xy9U1FBDwmWD949QGXsPCw+AUBp9ikkgkEruE9z2PHj1q+r/0aZtXJRJc9384unCXjHI+xpxMJqvxYcLsq6++srOzM/tP/+k/5X/ahvjyyy/t66+/tr/6q78ys90Ldb7Wwh/+4R/a48ePV+ePj4/t//v//r9rfzcjLBYL+/zzz+X0mNvuFdQsHmDjQGu18jSIXG8jC6ZypVX3INj6x1YyjBMH0ggmfSqOEnDAjvlFAsMWRCZG0+nUJpOJ7e3t2cHBwZoqhXvZ470evytyTqrYdRnDej7d4wCfK5I+JxZM0q9LOOgDrAN0ucdPSTxgsquszS4S4HxyrPfS+ho3CVhGFgyYVKr1Q7CMXFa07CNRVh4ILBxivnznBnyvhsPhSpzzARKSchcdPbxP9eH88w4LPqjA54l5xnaA5fLzLFhFdY7vdtQ/8vQN9U56mqV1XGqeYHi+5H2QSCQSu4YTBV/cTsGteNx33ge89957tr+/L6dHzmYzOz09TdEAsFwu7cWLF3Z0dLQy4uF4J3EZ0X/+dDq1b775xk5PT9fGHFfV3t577z37wz/8Q/un//Sf2r/7d//OfvWrX11Jul3hY8kXL16EYdzodVvRWTzAQWbLPWyR69LJt/wxMOFXA98o3xwnelKUyscDeb6GpBXJJBNWP3ZCj5ZJdMPGhSFxkTQk/GwR9nJ4ugi2JmO+VdmumzywtbUV+AdREg8wrB9HabNgtFwu1wiehzG7TKZvOlS7NdPbELIHhl9TZBvrUx3zN4Lbuz9Pr1sUf9Baj8+SBTcuh1oHBd8bFgj5GNsEv28sSnLbwHdQTUVQgmvLe6CEVO4D1bPivlT1H4lEIrFLjMdje/z4sT148OASSWHich3Y9nioi/AxGo3s8PDQnjx5cqluzs/P7fz8PMXe/z98fH18fBxeTwHhLWrczhdp9+kKCjge2wVGo5EdHBzYw4cPV97SNxE+tbwmqkTG8duAzuKBskQq6xSSYzzPZC2qNCYZHJ4twdHe5lH+MF6PD18eJtWIiBAh+eJOyQmP34sWXt9m0V2E2YLqHaCX1fOwv7+/9ixwa0rMKxNlrgPMK9fTdQsHmI+u8HrzFxld3FWbwmeNFuRoDrm3sdlsturIkKT69B0GW9n7lm+b4PbM6wFgHbDbpCKj0XveIiTyu4gWFnzHcAqD172ansACHC6c6FN2/N3BPLhwofopRcSxX/B3l//cWNjA7R9V/fsxrpPA4hXXpRIA/LfXGd/P9+HUq5w7m0gkrhLD4dAePHhg/+V/+V+urMVmZs+ePbNf/vKX4X1XNQiPxpRdoP4TW/HgwQP7oz/6I3vw4MHq//Hzzz9fm1sdoWRAu2twj8OI7Jrd/jrY5n9zKS5fzP34+Pha6+zbb7+1//v//r/t1atXTeF5fLprLJfvppZ3uee2ofOCiTzYVISdF0vzgW+ksvBAnC2fuCZCJCCozhzTx99cFiZxyvrHUFMecAtFJgPT6XQtjygSeFxI4NGTwIUB/2A9ofu1sjJGFkwmGGz9xPpFi+1NBwozvnYECge85gETMBZuzN7VgwsB7L7vRAvX+MAtM28y8eL2zVMQsOzYtpi0shijPBjUN/cnnDa3PW7fKPKweODCDk5j4KkC+Bxxa1cuGw/wooEj5tfT5Tzz+6meB/dB2FeoMCxOYjrel/DOEJ4ePicWa3idhkQikbgqvP/++/bHf/zH9id/8if2r//1v27aDm5XA3Eed24yNRH/IzfBP/kn/8SePHliv/3tb+3rr7/ufD8bwu4KfMw9m82axl/ROP8+QY1PzGzNiNCCXdbjr3/9a/v8889tb2/PJpNJdeHLq27fbgzuitvY/npPW0Aoq6waNEcVVKo0tsCptNV83mjAjuTBG5ZqYDXxIJpnjOTV48U/CSY+KFw48eC6c2KD87Mx705+zC5vucaETdWh2lJPleumkmDu6PwZlD6ltQ6wrbHgY/bOi4R3BeDnx0Qvyvd11Su3b35HzC6vJ8L3YzwoGHQRD1DMGgwGa5b2qPPH9x7P+Xls59E6BEq8wHeLBRHMZ+mZ4nvJ7Qjj4HqMno3nAfOFZXOBgOOJ+mF816MpKkoUTiQSiavEeDy2g4MDe/DgwY0cf3jfG4nJCk7GtlGe/f19Ozw8tIODg9599C7r9ToIkf+f9ZlPftsInGNbzzAa5+HuAH3rqMYxSvBF4HkNgeXyrZX/Jhg3vFz3ZRrM1jakV4NOJLoehslE9Ft9PIzHheky2S6dw7woKCGBz6vBuIdBa6eTKN71gP9wcOE9tFjjb18FPbLEKrGka/mYnLBQcdPAeWKPA9z6Ej0PzLRApMQiVb/sOq+2vBwM3i5Qyc+slP+rQkSK2eNAvTNq6oFPDcBpO2oNCaxf1eEr6zm/d3iMv9Et35+Je534Aos8nYKfDwpFuC0kikPorVP6I+T+QdUl1rmaHsBtUwkhKLpwGtHULSwXCj1ej47xeBwKqIlEIrFr/O53v7PPPvvsRu7j7n1sK3lXY8Gu6SH+7u/+zh49emRm/Vdv39UY5Lr+M/y/7L6QOLPtTS/mMY2qy+t4rtPp1L788svwumr7tfHZpiiN1e4DOokHTMSVdQqv4cBYEVZl2WN3cmUdRDhhYLd9DB9ZT33AjXlSwLwheLDOllccmOMfhp93McDnYONWk05ouF5x/h/nWREuRWAUlBs/1/lNExAihdSFAxcP/Bxv+akEg8jKHQlFXic49x7hLuBKwLopiCzTfIznWATgdh+977X3Dck9vlc1Iu51j+l7feN6B55Xv+aiB66ZgPfgeiClusH3DT1OSt4H7JmCC0+qts1rH+B5M1vVAfeXPDWJBwcojuA9Xg85bSGRSFw1lsul/cf/+B9XwvxkMrHT09PrzpbEaDSy/f19e/DgQRjG3ay3scL6dDq1L774wr7++uvVGOPNmzcbrXq/jbFJaRx1FbjP/1Ns+OkKHrdFZLjPs92EyJ+dnVXXD1D87CqheNhdR7N4EBHySDDo0xFFogGKFjhQxvNMshUhKhEhPuY8sTUV8+D38kBcEVXMixMGFA1QSOAychmY/Kry4fkSKXTSge7REaG8DrAYEoXxZ6CmKbBlXIkGUTpeH6pzRYGMrfjunqimlVwnuC11/ePhthcJB8pqzucxXRZj8JzKN7dPtcUiknZvB9w/8DVvIzgFifPAZBzfG5U//KgycX/HdcX1jyIOPgMWsKJ+AY/VNB0UOdTCn4lEIrELzOdzOzs7u7RzgBsFbhpJ3Nt7u0CyrwLP/fd8Prc3b95sRThwF+6jo6NL13wOeF8Cs6mAwGPdq8Y201ZjvpuOvtwr8hJVx9tGbUzfRRAr5XOXz1LxxruOXtMW0NrP2wQqchRVJFvolXCAaSJRi4QDJWbgy4SDYCTLvP4Akgd3d0ZXZgSSCBzEo4s8b6XodXhwcGCHh4crzwlftZ+t2EwwUNDAOopIDQs9/IxU/UTPDMNfBVpeRBRsZrOZXVxcrBauLHkeRB1kTTjhZ47WbGwHaAk+ODgws3odXxUwb7V3Ftudmp6gRBkVd/TuqDyUpjV4ey6JXOiN4Dua4Nw9F+/8Ht7qUVnk+V3yMikBr1UAwDYTiSSYL77Hw3sbVAM49Xy5v+I6HAwGOW0hkUhcOU5OTuzk5CS8fhP7o+FwaI8fP7ZPPvlktROW2VtCf3R0tLVpF26JVeKBQ41lWurMx6V9xnf8f3kVuIpx6G0SEHyKc9f1L9Qi7/i9TbQ+s8ViUV0QUSEah/H5PmW7CYa/m4LO0xbQgorTBZAcR+DBqnLxLxFzHlir9RWYeGOeVf58sI0uxEyEkICikMDxOFB4cAKJXgVYX74gEOeb3Yw9PZwfrciDl9PPI6nF+oyeb+nZXRdaOm+vb7dMsOiDzxSnj5TEg5LyjGQORQInqA7cZYOnMHBc14Faulw/LF7xu8wfVX9RmtEfVqSkqz8JbOcoHuAxWn9wYMViHJbB4+U+RolEZu+ED3xfMV9cn13Kq4QdzHtUJypN/s39hPdVN83Sl0gk7iZ8akLpv0mNwW4KvvOd79gnn3xiP/nJT+zZs2f27NmzItFvxXL5dnE4H1OU4NtRt4L/43xs2gL08LxO3BaCfxVAg2QJs9nMzs/P1861Cget9Y1jitI92KbRmNEHyIvU8S5w39rfRmseRL/ZKuvH/h2RjVK6/DsSDkpWyChunA6BeVVADwS8B8vOlmdXA3FKgosHPmWB5yVzmnzs9ajKw504kgp8DrdJRSu9+F4XuDiiexqw+7lqkxgHptcnbxyHT1vwBftYOLgtUISehRK+3id+RYw5Tmy76hgHQdwn+TNQJFq9J/6bFzSNCHr0R6Ws+qqcrfXG5eb8t4iF3PeqPlx5QSUSicS24UaSVhJ6Uz2iDg4O7L333rMf/vCHdnFxYa9fv+4cRzQO7DLtoa/g6//tPl4t/YeorcmvErdtHHsV8PGKGybxvxzBVv3IkLbtvEUGE0570zzwmCoaN3bFLvJ6G9EsHiwWizUlCx8Mk3gEVm7kcaC8DnDwi9dQsOABfcnlSg3w8bwTPbTgMUlAa7MvfONxYboeH4oDBwcHtr+/vxIRcE0D/3Z3diQCyprLdavqTJWPraHsPl+yCHclN7tA1PG4Ij+ZTOzk5GTlfeAeCKq9qbgRkWdJySqM96LV2u/3+mah6Cb/+UVEGutBDRxYpFHtp2QBV2G8DUd9jOeVhU3cEWM8Hq8W1Fwu1/cv9vUOzNZJM65Jwn0chvd4onmfHobJPQuXtfaAnlIO9KZRz8ivRdNLeMqX583r7j7+OSYSiatDX+v1VfVNXQ0K25ye6OOYbayZ0ILBYGD7+/v2+PHj0ANhuVzamzdvVh6f141djaNu63/f4eGhPX36dE1AwDr64osvpIDQ1aOgK6IxIF7bRZ2jcXfTtnIVQstNR6cFEyPLlJldIvAOFg0wvgjRg1Hp4/kuZcH7kHDwnGE/NxqNLlk20fvAB/S4BsRoNLLDw8M18UAthujp8IvL26NEnhyqXKrOVD1w+lG40u/rxHK5XIkE/l3aUUER2ZaXH4UXbAfetpFkY53i9pCz2cz29vZW35GnyW0Avi8RmedjFUfpN8fByrHfg9eRVLN4w2ngu8vvvJNvJRxE66ZEAol6t1gBR/Eh6msRLNjg/SwsYJrY5lBIYDGDp32l50EikdgVNrVcX+UAvvaffXR0ZL/5zW/sq6++srOzM/v22283Sq+1bqI+n8eIXf6T3Yvio48+Wrv2+vVrOz4+tuPj46a8XQXSC0HjJz/5iT169MgODw/N7G37/N3vfle8R5H6bdbtdRLuTccyaES+z+i92wJ+cLFEJMU4cEZrelcwuWfLYq1RK4KNx6X7uay8FgFamNE7w62c4/HY9vf37eDgYLUKL1oFVVzKIlu61qUekehE97YICNcFri9cjwI9DaI5+NgOeT66x4vpMGoEDePBKRO444Nawf86EKm+Kkxp0BER3S5ts1VMNHvnBeXXmJyzsIYCgvIQ8TBM3tV2qcrrAj0Kovry3xiWy8/9UZf2od7ryOMD6zUSI7E+r7udJhKJuwllBNk0ri5GgW0A05vP53Z0dLS2peR0OrXJZNI7P13GziWhoKtwYPb2P/Pg4MCePn1qjx49suFwaKenp7ZYLKrb510V8LnfFYK7TTx+/Ni+//3v2yeffGKvXr3aSGTZtI67cpZdYNMypCfmW/Ra84CJNFrc+aHwgnU1qMalhAO1zgKnrQbyHA47fiQXOHDGqRq8awLG7XnyPX8PDg7s4cOHtr+/v/I6KJErdEmrEd9SGblcfKyECFVPNx3uxndxcbFaSEitd+D1ht9KOcSpIlH5/Zl73LjAJYZBUcnPuYuYe7JE7fa6ULNctAgI/g4xmcW6xXu6IAqv2jjniYU6bx/orYK7Lbi3AXsToRVeeROwQMGCAL6DJY8F9RvbFIoXHhY9lVR9Y52wCIfvA3sx4HcikUhsE9sciNcI8jbTYczn86I1vs+UAyXmdr2XURKuFYbDoX388cf2X//X/7U9efLEfv7zn9ubN2/s66+/7pSfqwKO2fsi+v+8rfjRj35k/+P/+D/a//6//+/21Vdf9YoDuV4foLGvFGZbHrkloaJlMUkFnOJ639EsHrD1DQfTOBiez+eXVuduUZtq15VgwPNzlTAQhVfgOfEqbp4H7eX0+tjf37cHDx6sFitxjwMni15WJqrKo0C53Zfqq2QpxLyX/ixuCpEtwevGhYLJZLISDnhnhUh4UYRY1W+NwJWm4vj7MBgMVp4R/hx85wUzvQvIVUOlryw5anCmrOlOov3bdwDpa0HBeLH91gg3nsf3Hxd7xPfC01W7t0TvjSLoXA/odeDAOqk9/6id4TPCMkUio4eN6s/zgyLQTbAWJBKJu4fb3K9gP+qr1pfm/uOaBbX+PjLsbHuc0CW+8/Pz5h0YbgJwjNWKyEh32/H555/b//a//W/21VdfXdpdoQ98S/lWqEXmESXO1RVscHVwXHt7e6upHC35v0neNjcBndc8MLu8XZkDrbvRyuUlRa9m1VRCQNTAeHCM361pRwTdBRRfB8FsXTxwwcAXSOSFJpUgEH1zuKh+1HF0LiIOtwnexnC6Ai5UyHXGC1AiVJ2bxW2Fz7uIoDpTFNX4Y2aX3qHWZ7KJBT8qx6aI2plaKNDh6df+rJUw1qXc3H9E8aPFvbYuRfRelgZ66lzUN0RQCyxiP6Q8PyJhrCSIRMJlIpFIbIJd9ydXPbYpESOEMk75calOsJ/fpGyt/0mc9sXFhX3zzTd2dnZmJycnV7Zw4ybouq7Ucrlsfo63Caenp/bs2TN7+fKlmZm9efOmVxmx7arFoyMgL2wFGju75rEmUGAabgSuGZV9gfzEO3TyPBgMBpe2GPTBp794rdMJIpJXSj/yNFDnOc8cpjZIR/d2D4fn2HLsdXJwcGCPHj1a1Q8qdDwYj8hCS30oolYjVS3x7kLd3ia8znyBRPY44HqNFk3E+FT8tTUNPCz+oaMXisNJHK9I7Gti4NQfNW3mqlASz2pt0/OPgqGvS+B1w++AH/vH6xHj8DB+rNYK4Xz4txLUsA/APsGfD3oJcDqYH25PnGc/xmfp4TANJv5I+JH4q+fBzwbT5n4r8sbB/pPrCgWInOOXSCRuGyKhuu/9Ct6/dnVjZgGX++zavdxvb4JaetPp1H73u9+tLbJ3kxZKjDAYDFZThmtYLpertSnumnjwi1/8Qr4Lm5ZzPB7bo0ePimHcWt+HeA8Gg14eDl2f4fvvvx96ICwWCzs/P7fXr1+neEDovOaBf/Ng1Rsjqkz40JVg0CoecHq8ErgSK3BgXFIfsUyj0chms5mNRqPVAjdeHrdqI0HkKQw+VeHw8DBcmd3TYuKg8oR/KJHqHNVdTWFmUhQ925sGb2Pe0V9cXIRrauyK8PAfPR8jOXNXcn52TqxLSm7pOWzjGdUEg5LQ4te8Q1VimB8jYVbp8btdmgoS5Zv7Iz/H27kqku3vMJJkFgRKggUuvKlEPawH5ZGF+cC+NBIQ8Devm+Dg9Q/UNB5VdwjM310bUCUSibuLXYnw/D+wibCKAq7/9jRa/itLQnpr+rV+3V3cz87O1s77dNHbgL29Pfvggw/C616Wu0YOz8/PV94GCpPJZOO5+8Ph0J4+fSqnsxwfH9v5+fnGrv6+Y11JRPBF03Gh0i44ODiwP/iDP1g75142X3zxRa847zo677agOquaKKCEhpa0SudVPlg4KMWl4sC56Djn18kfrs6O6z/4rgouIKBFWanJqDara5HIoP5USnWgyqkEllKdOlrIxq7hbcc7CtzBQK1n0PdPvSbQqGeEx+j6jmTU1z8YDAZrcx9dYPLwHOcuoN5DRVL54/lRi1FyHLXfSmgwuywgdClTl/rysLw+g5meGsD55rSU8FF7X/ka1rO3F0xTAfOMbRCPUfxUQg+LlIlEInEXEBleWu/l3zx+Y9G4NR01por+W0pGoi6u+fj/XSOObnWNSDWPiW8i/FkdHh6uphMjptOpnZyc3Clx3J+LWX2RTg/X5xl63T58+NAeP35sDx8+XMXpHsGlNUBa0/QF6CPvgOVyaWdnZxu1w+FwaB988IE9efLE9vf37eLiwp49e3bnBKVtopN4gIuKRUKBWXnefmSdLFkTW6zo/kF1qrQQnSLTPvjf29uz2Wy2RgTRsu3Cga9p4N/4UeWLiAB3XFy20kuh/rSUKMDu8fyHUxMOlKBxlfBn4Ysk+pQF76R4TQNlEWghRi1hIlGM4/E2g3Xt+XPPA4SLCNyOdwX13rK1GQdI/N4qi7bnvyQwqvRqC/zxuQjo8YR/ooyo7avdBbhOooEiTlHhtJjQRyKRqiM13YHz5UAvF34XUGzzdwanYkViZyKRSNxmlMY3LfeqY/xPbDFWleLHPtihBH6GG7BaXPMx3po12N3NW6zGt4Fg7e3trbYrdMznc3v27Jl99dVXvS3WNxXsKbJL7O3t2dOnT+0f/+N/bGZvPQ4+//xzOzo6sjdv3mwljYODA/vBD36w2u7eMZ/P7fT01J4/f74VT5h/9s/+mf3whz+0X/3qV/bv//2/v7E7itwENIsHvLuC2buBLS5e58TUrWYYHuel+/1RB1kitoqYKCsgD4hLHTuTJVx4jF3JB4PBmmjg2zDyNAWVRpdBuSozEwYlGHA5ca54bd54S16uGl5vTnpwO8ZorYMonto1DtMlPkWeXURg4LQYD+eeL7UdMboiEvOUx4ASENR1fO9ZPPDyqDwgsVZpRvlF4asE3jkB+yVVpxgni2xsjWdyzc8fxccuC0AqcW65XF6Kj+vb7PIAVolfeB8vLIr3lcTHRCKRuI3AvnsTUd7/yyMh3Pverv/fkRFCCd9qrOvjusPDw2r5Li4uqiTL/7taV+XHccJNhnsg/Pf//X9vR0dHK+HgLsGn9HZFV27CcGPqz372M3v16pV9/vnnveMq4ac//ak9efLEDg8P7fXr13Z0dGS/+MUvthb/y5cvr8RwdxfQecFENW+YXZh5cKvWPuBjRInsRw+21PhrAoLKD/7ZYJq4zoGLBv5RnTrG3xc1T4ToT5EFlNqfWimfuyYQqkx4Dacn4I4FSohiIhb9sZWEguiY8xhd4z95tj7jwACnv5hZdX5XF0SWaq4X9Q6U6q2l3vke9g5R+VJ5UW22Zql3Ec/vR4EA42DBwAd/XP9M9rneMByugdAC7iciEo/l42eIHi7c1/EzYuGI74kGqIlEInGboP6Ht9GXRcIBC8190sL/vdaxo5O3g4MDuUXhcrlcbWndakTrOm7ddJy7a7jI8vHHH9twOLSzs7M797+2iYizyfNbLBYrUWqXdfree+/Z97//ffve975nn376aS+hRMGNTF999dWqHLktYxnN4gFvOYgWMhQN0PvAPyXSUCKN/rvW2bFQgQNhRZiVFV8pyuhJ4Od5Z4W+VmLMI7uwq4XXkMxgXlvSjsKo+m8hMNuG6rS4Prxt8VQFJlKb/OFt48+S608RuuVyuZoWg8/RBwB+nyK8HH9rHhV55+OoTJye55WnCERtKRIOorTVAAaFPCT6GBbD4O8SEea+CkVATC96f3CAx/G6SFTr47DsEbCPxQ+C19pQ4iXXPZdNDXxvg1UpkUgkWsCuzy3w/2w/xvP+rf5natvAKfS1Ho9GI3v8+LF9//vfv3Tt4uLCPv/886pRAsvZBzddQJjP5/Z3f/d3152NnWDTxQ/N+hP/09NT+/u//3v7+7//+52PF548eWJ/9md/Zt9++619+eWXW4lzsVjYq1ev7C//8i+3Et99QCfPg5LbsLIk9oGyXrJAUJoagKgR4Gjgz+fxmluFXUxRg+/oz0Wlj+TLv0tWTwcLDCVXaVayWzuIq1JllXXV4Z4GLhj4J3KXb0VEdDcB50W1L+/gkaDhOg6KpLe2d5UfRM2qzIQzErUwHrU2ANYFCnF8f+1dYXEgIuHq/UN3f552xH2Mh8dy4bsUeS1EJL0kwHD74Hov3a/Ag1fPO66fge3Id5RR/YWH5X7trllnEonE/YWT+tZ1Anwl/tqYQY1dfayoVqNXuLi4aCZf6j9xOBzae++9Zz/+8Y/t/fffNzOz3/zmN/b8+fPm+LYxfr+JOD4+tmfPntnJyclqavU2CPdNwKaEXRkaWnFycmLz+dxev369imO5rK+r0QfHx8f26aef2v/6v/6v9vz5862k4YtmfvbZZ5eu3ZX2sQt0XjBRCQhq0Kw61sgaptCF5Eb59e8+1nO0HKIbmIsHSjjg/ONxi0VX/fmocGj5dajOAxdaU8SxJKp4fiKCsymUaIPp4zQY3lWBp8lgfJxG7fpVgQUcJNL+R+bWBjyn2oLH1+d5dBWQPC2zywKAg0m034N176QUr7FAyHmLBjO1NqysQXxPqazqo8TFUroRoudZQim8SpPzxwICepDVRMvSe5pIJBK3EXt7e6udsaK+zccbXS3x3Pf6goYlLwQnspsu+jYYDGw8HtsPfvAD++53v2vz+dyeP39eNUC0jOFvM+bzuZ2dndnXX3+9tgjecrmZp8VNwKbPqc+YxNNdLBZ2enpq5+fndnR0dOn6tsi3p/X69WubTqcrj4NNd1lYLpc2nU5tuVwWF5lM78vL6LxgIs/v98E1EjseeHs4RK3BthLz1ntq6fBK6N7ZogXPf5csnjWU6gTPswsyh1ELTyqoKRCed57icVWWRmwbyq3c8+3zqHi6gi+W6B4Im5Cxbf5BejmYNLMAE3VEXBb8w1f1tI28R3FGxBGt+SVLRVRWP4f3m13unDl+byu89kopHQzH3gdRuK59iBIVSmFqcUTCTklA4bUrItFguVzaeDy22Wy2Gsh63WJ/g0Jx1H8kEonEbYX3cU+fPpVrBJiZJER909rf37cPPvgg9Ha4uLjY6uJ9T58+tR/84Ad2cnLS5PVwV0UDs7flOTk5sZOTk+vOyp2CCzJXsbODixS//OUv5bW+4sdsNtvajhD3Db09DxRxns/nNhwOV4NTH5Cy0ODHXaAshzjYR4LAc5Vb5nm1WCZb4vL0PV5MQ4kqGE7tuRqtuOsDfmUdjbwuSuKAusbiwlXAy8V7xfIuC4qAR6RQEcu+lvta3kvn0GrPeUJrvGM0Gq3uL+3C0PIusYDRcq8Kh3WK5FOVO7Jm431+r1pUlddJ4D7IgWIElhHDl8QxJsx+riQotKr1TMA9byWRoVSf+BvPq/cfPULY88A/Xn9+XyRc3LUBZSKRSOzt7dmTJ0/sBz/4wdr5L774YmNrI/ebh4eH9p3vfMc+/vjjtXC/+93vtu7i/bd/+7f22Wef2Ww2W7mTl/KJ33x8m+HeHC11cFfK3BUlY2wEX5ejxbMAx3J9MJvN7Pz8vCiuTafTTmk4X23dUSRxGZ3EA7PyQm7sTs6D5BbhgAUBTofzo36rOFrL15pGCZFooBZlNHs3eGdvglL8HB/mMSI7CqV626VwUCIpOEVBbcuI7QzjY0s/W8+7EOdtQqWjhDUzW81HHw6HqzUQBoP1RTVVGSIxJBIN8Jyqx+i3ir9GhlnMikQ0rh8PywsgsoCJAhESdSb/UX/A19hLoUv7r4Ut1VWpLhxRGO5zXKBSzxPrUT2DqxIKE4lE4rpxeHhoH330kX3nO9+x+Xxub968sa+//rrJUNQF4/HYHj58aJ988om99957tlgs7OjoyL788sut9blOiH73u9+tPCqOj487LcB4V0i0E0Qza56acFfKvg2UDGyRAa8UV9+6nc/ndnFxURXYuuZHLTrdem+i44KJ7rKPrvtoHcSdFngrOq/wloGwGvCXCAGe8/m8eL4GJp5dB9MlDwNvoLi3eiQS8Hkm9pyGItBcH/zboQiYOt6VcFCqM5yi4N+4PSO2IX5m/ofPC+Up6++uUBJG8Dn4ueFwuGoneK8LBk6gfcE7JYLU2iy2cRZUSmGi8rnVGheAZPCUm5J4wOXB/gXzFXkDcJxc15hG9OyRdOP6DDXgO6vqE9tkrV45zVr6JSEGy4u7PuDOEt6PqHVsVB+TSCQSdwnD4dAODw/tf/lf/hd78+aN/V//1//Ve5HiGvb39+173/ue/Q//w/9gp6en9i//5b/cavyTycT+/u///tL5iDy3GKtuOqL/cx9TbWs7v/sINVbuS7r7pD2fz+309HQn8SY2QyfPAx+8o3hgtu5yjSSvNMD338o6qdJEa5kixRwmcvFuLasawHPeFQGOhAI8pzpqD2v2TmDB9RbQ20MRLjO7VB8sEPBzU/VzVVMVVPvxulNTFBSJQVLpv9WCfl4fvI4EElnGJn+mXG9RW2LvA7P1P3kXFTzPfuzz1btaRrCeIuKu2j4LNEhyh8Oh7IhZ8HPwNBLVxjB/KFRwGSKBJBLgovQwLO7S4MS/a10rkSoSSVT+1XUuV1QGDuu7K7CYqUROnMbgdZALBSUSibuO5XJpf/VXf3Vli+f99V//9dbnip+dndlkMpH/VT4GVeW7CwICY7ncbCHEmgHlvuKqjAk+Jukj/JTyh+PuTZBto4N44EByamaXBqIuHCiLmCLPkYAQiQl4nT/KKwHR5YFHogcLAwgfbPNgvcWCVxqou4WwRupr9aLmn/N9qvxeB9G1LuByMJlG8cCFg4jgcxk4b0h6uc2y8KDyuW0owQJJMgpug8FgNW1hb29v5YLogoJaUJDLX0Kt/CXw+gJqXQnMC6fTJc0WAVCJG6q9luLB+vD3nKdn1e5XA46WQUiXdlj7Y2ThBHfsUIusRv0zr2mxSyExkUgkrgu+8Nsvf/lLGwwGNplMdiaazmYzOz4+tl/96lc2mUw2Xi3e7N3YqWXdhK7u5rcJasye2A4io8Yu0+ubTm0sle1iO+gsHpjZ2pYzuMgfW6xwAO4PrMXqqMSASBhAUtgiGqiGUxsYe9mc1OKcfG7kvO6DSpfz7ECl1AfuSNSwHjA9HOBzXWG9KKi6UoRHkaJtAuvXpy2gpZTB89KR8KgPhuP7tlWWLmIV1jNOV/A2wM/eBST0Jtm0XfO0ArwP25QSJvA8Tl1Scan2F737HI9anDUCixUlcUzdh/d73+V1hNOhVPkQXd4VFVY929KfKQsA/B6wmIvrhqCnFK8bMRi8W9gzxYNEInEX8fr1a/vP//k/r53blQfC0dGR/fmf//nauU09EJbL8jZz0T13lURts1xsVLjPuKry3+W2eZfQa6tG3OYLB888QFWLvJVeQia/ThDd3Z7XMmglxX0Hvl4WXqhPeRNguXF+cSkfmP/hcGjj8Xh1L5YPt8dUQgKei+pQ5UEJGF1IXl94frFeeaqC17ua7qHIpJdVCVaMyFLOcUZQJBev4TOJvvEYxQMnbIPBwGaz2apc/C4tFouVN0Jk7S4JCthWWkSIKIy3TyUOOmoiBcernnUrIY/eMRYISuA8ofW+Nh3Knxdb9qP2xm2ltCAo1gVOh2IR08NxP+Xhzd4+E9w2zK1tHgcujJt/5olE4i7izZs3dnp6Kl39tz1XPlqE0cc9fdDXjfyu9ud3tVzXiV3UaTR+2uZYQ40ds31sDxtt1eiDafQ+4AFzq0WUCSySamVF5nta5ySXiJ8CW+uUFVCVmQf+nE9VHlwgD63MbvXkfCtSVhNVauEikrVtyyMKLbwYIn88POcFRRYkTiy+KOAWeorYYz5biCqnj+dV/Cqcn/N8ef1Mp9OVYDcYDFaiQctzjvJdKlcN6lkocVBZrTFdpehH9cj5LyHqF2r3cXos1kT9T0kg7SIc+HfXvkn1SdF1XEPDRUl8xzivJSEqkUgkbiO8rzs5OamG27TvWy6XTVsmdhUCSv8ticRNRskYtOn7FnG8HMNsF50XTFTWbIcifuj+qwhBJBq4RVORbbSsb5vUOlAwUOS29KfC1l1HtACiAy3iy+VyzduDt1VjcoykDOtH5eOqBIIISjjAHRWUOIPfnlfOb0SealDtUhH7KF2MpwQmznyO48A2glYQ3J0BRYWuz6+1viLlVpFlJJu8xkSUB3U/xs/13xd9LTQ8/Qj7s9YdXRBRuy2RfZWvkqLOAg6H8bz7gpfs1eD3oldJIpFI3AXMZrOqcODYtP+bTqdV4cDRRQzYlrBxl7DNMexdq5vbgG3U+SaGsUQ7msUDf6hsyWPSgqSb3WYHg8GlLRz9HkUamLAp4UD97oISqVFWPUVk2RsAyZKXUZF5ld/xeLyqLxcNsHw8n1mVo5ZWdN9VoCbK4JQPz19f0tf1vsiSjNcjEUGRZybNLcIBDh5w+gLuOMBCErqY10QllW5r22bhSsHjxnrALQFVnbKoosh19ExK8PsiJboEzhd6g3hcXOdd01B5ZSGhNa+4Q4TnF+OO7sNvB/bX+UecSCTuEnw6YBf07dd90eNtprUN0eAuAscem/5nlcZEie1j2/Wbz2v36LVgopl2fWaLWW1A7AssKoKoBub+u5QnFUY1pBYrMVv/WjsStkZGBF51cizO8BaNymMhSpvTVaKMwq7IAtYnCku4ACWGw/zUSAyTxE0FCEVy8bh2ncNFlmFVDv/g7gs4V50FOCbXtTUfVJqcfikMo+VdQoIb3ReJGi2DgVL+ShZ6BZUHBE7HcFEB39urtAaptq0GPqV3ncUHFsK2MRhLJBKJ64b/r25y/y7T6iJCJ0F6C2VY2OQ/KwWDRKKOzp4HCB90+ofJH89bN7s8D9oFBAUmvqUdF1RHwZ1Al84k8p5gUmr2jsC1Es4oHMaHwooSGvBYCS2l46sEEzeequDTFXwXi6iOI0SCQcnaGrXlLmTVTM+nRwu7twt/lip/yjqO9/hCSr77hKeLVmacu47vpNm6QOf3RsJVqf5q7xC2Ly5TVGeev1Kc2ybifQZnLHh4Hc5ms7UdGfgZovAYxd8qKkXw54jtycU4/10TttC7yczWvH+wf08kEonbilp/vO20NhEpPI4+1xJvMR6PO9/j46ptL5aZSNw1NIsHSKLN1omuz5t1lLwN8DwSHFwskKEs6Jg+h61hEytmdL8iOhHZV+kxwY/WdIgIlZpOsk10IfQcnslUtHsFf2qIBCOlHCOx8zqMLOEtllq+h0kZCgBmdklAKLVzLItbt1GMw3cN19HAdwrLUPLwUdhkYFISZrB8SE49j9F7VYufiTve21JmReCVKIXPVb2X/OyidFXfqNp/aaAbtUMUlVqEOJ5m5fflQlyJROIuoXVccVPTScGgO8bj8dqUzxLQoJVIJMroNG1BkWP+KPKGhI1JZc0SuG0SXPJQwN81EtslX60igl9nohXFt1wuV7tRRPH3qb+IoJXyzGGVeKCmK9QWoGytry75Ld3H6faxBDvQIs2eB5x+VE6sKyd6Lh4MBoPV1AbcopJFEBcg0LrcV0TAd7nP/Q5s513quI83AhPjljhbvAKwXSvvA0XAlXjUp/1i3kv5rwmaSpDF+1JESCQStx1XRbyT4N8cDAaD1RbovkOVgv/fXVxcbOwtkkjcF3SatqAGpOjWigNjHnTyvezerKxuGGeLC7Sn41AD5VL5MO+Yj9pAvIUIlcghH0dkQFk3S2mwVbyUdumcCqMs5PhbPc/lcrmanoA7K2C6/Ly53F3y3Ido4r0qfjxmQq7qG4UDbkc1yzCn5QKBW4rdg0N5/dREJZV+K2rtLkqjJIahB0INmz7XFgGhVjfYx+H7z2HU81XvBp9X8UT5ackrfjt4uoLn0T/e3vq2k0QikUgkrguDwdutrb/73e+GU+8mk8nqk0gk2tBLPOA53YoMKaJUird0LSId6BaO5L3mUlwrX0R8a2XxtFrOcdoqbE0w2dQqiHVVegY11CyfagtPrluMi9ONSHXU7jBPLZ4mqjzqGNMoPVMWEXCxQxbGeBqQyieKa7iGCC+euFwu19qHv6ORi3tfr55I2KqF2yaiNldDJAS13l9qiywm4nVl1W/pI2t5ioQoFY7fiWg9A28v2LemB0IikbiN2LXwuYmYnbgajEYj+853vmPvv//+6txisbCTkxM7OjpK4SCR6IjO0xaUBZWvqTnsHobj60s6/F41n5sH8n3Kpebit+atLylTcfA3DuhbFzFjEopplMhU7XwtzZY20YqagNAln9twlef2h2HZa4LnlZfECUyLhRQWW2qkzuNi67KZ9tqpAUUMhnqXVVvbxruhEL2fSoyK3ufo3ta0o/woMaH2LnRpn6osNXGFpyrURM8cHCcSicRlZN9487G3t2ePHz+2jz76yN577z2bzWY2nU7tiy++sJOTk+vOXiJx69DZ88BJdcmShsc8OI4GqdFAuivZVBa2WviojKXdFpgAenposYvS4d+lQTzGyeFKVmuVRkRK1T0tFs8SCY7Eo9IaB1G+Wr1cmEiXRIJa24jc6LHcSsBSz1Ft44feAyyyqHpQ79xisVit+D+fz1e7LqBYgW3HFzf1PI9Go05kPqrnlnrza9vwUIiEgOg6H/M96pinTEXvJ4sEGKYkxrGYpvrTFpTCtggIqkxe3hwUJxKJROIuYDQa2fvvv2//8//8P9s333xjX375pT179uy6s5VI3Ep02m1hNpvZaDRaIzK4QqkTmchdmgfpTMLwmod1sqMGuGaXCUlXjwMWCnwefuROX0truVyuLWinoMqD96trEWGrkRr1exN3dfVMFfnihREVYVLlUHlWok00F1uJVaX8KmKPv9Vq9KpOPIzvHMLl4l0XMC+qLviD7RznyI/H4zXBjAUl38UE70NyyBboElq8FUrCgqpHFkhqiEi/+h2Fj75r97XWU5ReLQ/+wW0Wue1H4mSUvmpbLFi4qOSLSnk7XiwWNp1OV2trJBKJRCJxW7FcLu3bb7+1i4uLnXlBJhL3ARt5HgwG64u2seVU3c+uzzXLYSu5abW+qzx5vlk46EK42XtCWfoxnCpTJBwgfBGzUriaxVDlqy+i54gEqCQa1PLRYtntYs1mq2pJ3CrVI96Pz7v0fJ344c4JeI2PlYiA7dXMVrstYJ79uhJY8N3FNHinBixnn3YSiUN8vgspbREOSs+wJUwtffWc/LhFhIjSKr0fkbiEeSj1oaU0PQ4XEFz8wrK5cJxIJBKJxG2Ei+HPnz+32Wxmp6en152lROLWotOaBw4nIG4lm81ml1bO50Xx/DxaQXHAjdZ6FyX8G70ZHGjxReKjyE50rjRg53DqfITIS6HFQ6LVc4JJdSsB2jZqIlD0YagyMHFWcbPHSBcyWMtD6Rl08SpBCy8KB12fG7djrnv0PsBjtlQzieb3JsrTNqzPURwtQk1EiFmMbEGLwBaJUlhPXcl7lM+or6yVq4vnSKlc0bmu8ScSiUQicdNwcnJiv//979emKqQonkj0QyfPA4cLA4PBYOXWOp1O14iRCwtuxeKBsB+7MMBWWHSd9XBMdvwY89dqwetKNkphMS8lgaBktawdI5iA1dyYS14ZXUlBVK/cPvh8ZAVW+WTXas5jtB4FTzXBuFRared5DQGVRlQuLBPvstCX9HE94o4L6EmghKVIfOA0orS3TSJr75Qft5BzFa4miLSIFn1Q62tU+fy9UQJC6V0yK6/LoPKmhE30jFFeL4lEIpFI3Dacn5/bN998Y2/evFk7P5/P7fz8/JpylUjcXnT2PGDL5nw+l1MW1OA4sj4jWVSWUwzj8bFbLXsltFgWS4NxRFcLcYsAULuvC2oW4Uhc2IbHAhMfPt/yLKK8+Te2KUzPv9W0CGUd9t+YRknEQOA0AyVecbnVNfytpi9EBDnKPwos7qmDwgF+Sm2r6/PpE9cm51vFg6tCJORwGD4uiQclj4NSWVk0aPVqieJJkSCRSCQSdwH+33pxcRFux4hGykQi0YZOCyaiR4HZ2xfTF0rEaQs8J19ZOH06ApNPtoDhQnRdLbX8m/PE1msGWpqV9wSHxXtUXLW8Rve2iBsl4Lz4TcFCBLYFBE9bicSESNhQzxvjiz5dUSJZLECwgKDyzOHxXeD2hO1btUFVfhYu0DNnNput7aaAYSJRD983buNcRyXRpAUlwl0i4TXxoHZ/LUzr9U3D4j1KbPPzLaKbEqaU5xOLrpwmLmzr7yJvB1tbYyWRSCQSiZuG+Xxuk8nEvvnmm2rYqzZCJBK3Gc3igXsY+I4KZu/EA79mZmukyYmMiwS+pZwaxCqBofVlVmshKHDcJSufsihH1myVjrof4+1iiW2ph1J+kPy13hMhmkOvnqkSDTBc63PyY17XgKcvKCjyjWlgGD6HIgAS7Uhs8vtxvQ7fDlERMCRuLqZF+WciyOnyLg4qT74gXlQnURql9hzlV8H7AHU+Ct96vvZeqftLwsI2BxIoDNTyUxMO2HsFST+LXKUycFvHuFjITY+ERCKRSNwm+EK/OK2zhi5hE4n7jF6eB2hhxcXqmISwS62yTpcsYw41uI7C1dx1OZ6ICDIZYavrpnlowSaW0F0O9rG+SpbhFjJUAltjUYxgISESJZQgwMfRfSy6tJAxz4u3fSTrkTiA6yAo4H1sWY5EKa4b5T2g8l8r56boQ9h3kbdaPjZJh+u4JDR1TRP7VGxnm3hlRXGkcJBIJBKJ24i+3qi7HP8kEncFncQDXxgRB5Ou7C0Wi0tWVvwgqYnIp/pEbuLoahu5e6uBr7JqR7/5PgxTCqsG263EQKF0r7pHEQAVdhPXc89XJA6oaQt+f40k8r3evnDajF8rtQ+Ot5Y+3x8JEmYm2x2WVZF8tU2if7OwgNMRavmM2nkk1vl1zAOKDBgHp6OuYRh1zPkqxdHnfISW8JGA0TroUG0En1k0PSFKNxIRlNdTF7If9W/cX+M592ZJASGRSCQSNxVq/LPJTgrbMgAmEncVncQDRe5ns9naNbN2C63H6y8qEkbcXcEJI4IHuJhPM1tNnfCwnKb/LpEEFT4iyy3kWIWvoRSfsjy3eEgoItIKJbgoUqKEgy6orWtQi7MmuGDZS/Wr4kWSqIQrJOLYvvE+RfTQ/Xw4HF6Kt2Qh5mNloS6VVZ2P2hE+c+WtwcdROtsSCbqgpW/qer+qi10gEsgiQapr3FE8KR4kEolE4iaixXCSSCS2i067LSj3cSR1o9GoOLhW51g4YHEBw/GWdGbrWzhyXkvkpVU44DzVxINWtN7fZdDeKhx0FTpKqIkHfL1WHhapWDgoPQOMX6XJ51rKrjwQavdhm/Z0kYShOFbyDOE4I0uzH7NY1oJWwY89FLbx51x6B0rPthVqUNEnX61h+4hxrVBCIafXSvhV38ZxmNW9XhKJRCKRuAlgI82mSAEikYjRLB44kZvNZmvkiOcV1dxmeYG7iGxiWPQwcAEBFwXDlxxXjfffvKCi5zMqJ+e3lEdGqeMqdUY1N+lovnwLkYjy0GXxulK6JaGlFr8i9v7ccZFO1WZU+Wr57vOHoASEKJznz++JptTwKve8rgG308jzQL1vUb27cGFml7x2avWCZSoR5i7PpiYW8LW+1nSOJ0rXj7ssNqjOtUx5KLVFledoXRbcsUa1hahtsCCEYXENDm+bKSQkEolE4iah5t2YSCR2g17iAQ5keZqAD2iHw+HaCvNqZfyIdOA5n98+HA5XA161pz0ec9wIHDCz2zkLFywSIBksDepLddgHSPoU1IJ6Xj9IEph0lohfLc81wQCPI9f2iNyxcOBrHrQ+221DWXxr4ZXIxG2W46xZkUvigZqbXvMQaJ3PXhNtam1E3VMKF7VDPs/vBBPc2sCitPtB13e1tW1EeUMBgPPKIibGgc+f1/9AYYjjwOfO2+xi+8SdcxKJRCKRSCQS9xudxQMn9BG5UfO5mZQ7SsRFeRrgwJc9EjwdHsTz9IWSRV7lUwkImMdSfXH4ErHoQ3xRmEFsYiVsIXJ8PRIPMJ8qHm4jajoML5aoRI9NRYOI+HUlkKousB0x6ec0WFAoCQf87kTnMe2o3LUyRfnrcm+UZksdc78R3buNlZW3YbWIRBaGagOReIAf1Y742XvfqMJiWiyCohCBXge7EuYSiUQikeiDaGyzzfgTicRldFrzgIkhigVqEM4fFB38/ugeJIlOHjB8bTV6vD/au5XFAiawHiZaYLGrVT5CiVyre9laHVlYax1rlG4tz0woa0KJIrl8HuNwwQCFAybhXAZFjEplUOWP6kOVtQb28MC8eFtmazGStEgs4Ck4SO4UoWwBi24lYUPdG/1Wddsaj0N5BpXi9+MaamXrM2ioeTpwe6+1UWzbLYKQEpDUMQtbmDdcNwM9fnIQlUgkEombjG1Nr8v/vMRtwXUZdjp5HjhKWyPiOQxfsgqy90D0QUsaWtZKJBk7AR68s3DAvzEcT1eIyIc6rnVCJfKgjktk2exyfTJJQQJRsrq3dJ418SASlphUO1GZzWY2m81sOp2utgZV8ampGn0Q1c0mUM+N4/Q25uXw9uzu4djOI6+CkuCkyCOjb7vsQ7xradW8eGrvHYevEfnS+b7PvybWle4z675+h4O9DEp9JHsbqHhwKpjnLwdSiUQikbjpKI15WlAyUiQSNwnX6RHaSTxALwAzbbllklN6CXmwrQg7El2Oi69FJKBEPJTHAcdXm8LQRUhgRGSQLak1YlK6puqZn12XDpLv6/KMVR784+sc8HoHXMZSfbRYc9V1tryX7t/kz0SJCA5c18PTYgGBEW37uAlqJLtUBy110zq9gPuDlry1xFc7v83Bgnq/W7xi+P6WZ6s8VfC8Eg85DTXdoTWviUQikUhcF2rjpRJKHCKRuMm4DhGh91aNZu9eVIcvrIWLJdYKFYkASCg5LMfJ7t8sXpREBTUloeUY4+G4I1GhRHY5fOR1oIiAsjZjPtmSqOqi9bcqV0QGlfcD5tPvdY+DyWRi0+l09e0igodXuxLU2leLONOK2j01UojtAvOF3gb4zYvVqSlCuEgpk8UScY3WyeD6ZAENwzo2WTS0hdCr45K4EwmOXfLY5z4laql3Wr2Lm7Rjfs/U9rXYd/oxehnw8+c+L5r6lUgkEonETcFgMLDhcGjj8bjTfW6syv+6xG3EVe+I1cnzAMmeGvxGHwzTmo5/kAiwa65jNputrQbOC3xFlnIlVvigGacu9BEPIpLTShqY7PE1JpoqL0gEFKEopVs6h79bt6Xz76g8uLaBr/6udlhAElSKt0UcUHW3qWdBDapdKAsxr66PwgmWVa130EeFLLURfsZ9xYI+QlUUR2tbvkrLAfZXLaIpohReCTrq/lL/y+dQMMC8q3TS+pJIJBKJ24S9vT0bj8fVnYJwd69E4jaj7/jfrPt4ufNuC61b5nUlNIrIY7oYD3saKA8FZaVl0cBMiwR4PhIaOE5VDo7T7PK2iiULqjrHBEU9C0Viti0gdF3ZnsUOjxN38FALJHKa/EegPC/wWosw0CoYbEqkonaDghUTPHy+6j1iQWETIQHXyuC89QET/dJ7UzoXeUO0pNuFpG8TLQICQ7XDPnHwBz2PlLCghCwsR4oHiUQikbhNcPFgf3+/aJV1b9dE4jbDx3p9BAQ2nregWTxAqzBmNiLYGIYJTYsFkuNBYqMWL/R4h8PhyiVXeR9ExF6JAiUBIcq3xxsNuHnHCbM2dxNl0ayRMbzX88VpRgILh+8K5Ubv57n+UflVWzPivSXLalT2iBxFwkJf7wMlgCnypV5SFd7bCruXR+IAH9c6ESU8tWw/WkIUplQfpXtb2zwSYTxWda9Epl2gVUBoEUe4fF429W75n4hDbdnIIiy/9ywUJxKJRCJxmzAajezhw4f20UcfScPImzdv7PXr1ykeJO4EBoN+U3Z8mngXdBIP3J3cM4lkQC04WBrEKzAxR8EASZTnBwe/uNCX/8bBMhJVTk+JAao8Ko9cRy3l5UF/aT55ySpYCockQ93rVnwl0mwDkSWc24wvjOjzzfxbiQeRkFCqC0y3Nc9R2Nr1Uj64XSPUNpSDwWAlHqCiWCOkJRFlV+gqBnQJr+6J4jXTbb+GVpK/C9TEryi8mZ6+FHkeYFvC9yrqo7FPTyQSiUTituLhw4f24Ycf2pMnT8zM7OTkxE5PT+3k5OTa/vsTiV1gMBjYaDSy0WhUnbLj3Gs2m3VOp1k8wHno/rLN53MbjUaheNBl4Iku6Wxdw3PRto4oJiDxMltfUJHviwSEWpiIZCtLHoIJqCL1NU8EFmY8HmWlVRZZdX1bogFCWcWxLqPdFbytuaXd7PJ0D46/JS9dSWstbAvZLYlNDPTswTbMIpkijXh8VZb1Loj6hJIQoM5FdbnNMm5KmFvqP3puNbGw1K/0FRC4Tas+76oX40kkEolEYhvY39+3p0+f2g9/+EMbjUb29ddf2/Pnz2/E2CiR2Db29vZsf3+/OGVnsVjYxcVF7/FuL/HAMzccDtfmpyNB5DUJaiQhIrY8V5/PcTpq1wW2oCkPARYEOEy0UGILmVTlKpW/JiCwRwGKOiwScDycTh+ggMRpeZzz+fzSTgD4LHx3Bf+cn5/bdDpdCQjseo1AsYo9TBjK88HjiOKuPV9Pm9sI3lsi9+wurgg1L9zpaqK3DaxXjp/jwuNI0In+RFst/up8REqje6Nn0yrYtHjcROc4b6o/aomnNUypr6jFy94ofg77RCUycVjlpsZTFjCtRCJxt7FtMrWpEJtIbAtPnjyxP/iDP7A/+qM/sr/8y7+058+fX3eWEomdYX9/3x4/fmxPnz6VRuqXL1+uBIQ+6DRtQVlUIwsgDmJL7q8txAXj8jSi6Qo4SMbfNaLC5VGL9ilrMp5X9dAKJjs8lYGJb0SAuOye11YS1ZJPRcwUuWDrp2M2m9lisVgtVONbM7pwUMojp48CQkSOW8ulvvl6l90l1HFEqPm9QTGIiXHNFalWNpW3ljg2EQ/UOiWl/JUEBIXo/WACXcszxtcV3M53gaifw+voZcBQ/bGH83ePr3Vtb4lEImHWf/2gRGLbODk5sefPn9vFxYV99dVX152dRGLn2NvbsydPntgHH3xgjx8/NjOzb7/91o6Ojuzrr7/eKO5e4oHyJmArWI1slSyDHEZ9844LkfW5ZTDPogiWV4XhvJSszbW8MOFtFQbYwlpCq0W2K0rCD6aNQM+D2Wxm0+l0TTjgxd3wvtr6F32FA1Wu0nn0DKhZkCNLv4qbxYLpdLoK6+Vzb5/WaRzbGLh1IfKRAKDeMTxW16K+QwlV6v1AKHGplucS1HPdhnjA73SL6IfvdKmceL/qqzE+jjMFhETi7mOb4meKBombguVyaW/evLFnz57Zs2fP7OTkxKbT6XVnK5HYKQaDgT18+NC+//3v2/e//31bLpf2+eef9/Y2QPQSD3xHg2jRui6W+ZLXAVrh1faMPFBW2yCihwKnHaXraar8RySI81wrU+m8ClcjqUocKMW7yR+7Im/+jJxkYLvwOlssFpemKpyfn69EBFX2TfK5jYEQ16Mfs8cLImoftXTYem72zktjuXy3RoTZW5ck38N4b29PTt9QbaKvt0GrgKBENT/Gj4qndRpNF1GhC2rvWOlc5GXTBzUB1KckcF1iPrqkU/OI8YVVE4nE3ca2pif1+Q9MJHaFo6Mj+/bbby/tQtR1hflE4jbi448/tj/90z+12Wxmp6en9tlnn20cZ7N4gANWJCtM9JAoRtaqyGIeEQu3NONgFxdN9OPIVdeJV9dB/SZ/gK1CAadldpmwKgGkBUpMUNfUfbV4FfyZc7vAedTROge8bgaixcNhm6hZbVV++ooyJZHN2zx7OYxG715btja3eF/U8qq8AVqs80owwGNFeKOpQVE6pTJtKip0aWfb9jyoPStOx8ECUZd4I68DDJNrHSQS9wubiKCRqJlIXAfm87mdn5/bN998I69PJpOtWGETiZuMr7/+2n7961/bYrGwo6OjrcTZWzwoDZgV+Wi1Kpb+eJhQe9rskRDd14UctPz5taSHYTnukteFuo9d97lcNc+C1jroStbZso3ExJ+976bAaxz4h9MslaP1eXa1/JcIGD8zfw+2tUuFKgu+C7iViu9JPBi8XUSRSR6r69sUXmqCQ3TMwmIUR4tI0QJ+b8xsTXCMwm4qIPBxn/zW8sZpRQKC6qOVJ0rUf/t5nhKUSCTuLvz/pI9wyIsJJxLXifl8vhpzRsgtiRN3GbPZzF68eGHn5+dm9nbNg2143DSLB+Px2MzeEdiS94GjtGuAGuzydout6EKIS51Ei/VODdD7djyt5LdGhDh/vMAinsd7SoSlRLCYnOJ5FA5cNJjP56u1Dc7Pz1fiwWQyWfM6UF4LWA+4tgE/z0hwaUGL8BKhr4CgPELUwp9OqHmrVBdjzN5OYTCztX1dXezjnR1aBCs+rwS9SNRRgmFNOIg8HFRaUbtU4g5b6lXavCtBqXwtBH8TlARH/B2JbOo6AhdSxPpSbdjbn7epXPMgkbhfGI/HnYRD/0/qs2d4IrFtuIGqBektk7iLmM/n9sUXX9jvf//7tfPbEMw6iQdIXNnKzASWB+QsCtQyXiKvHAZJlrqnJU0moaWBeIulUpF6FV9NsOC6VEQIvRGiOPuKHIqcRGGYCPsiiNPp1C4uLlYqME5VwEaMJBPFARakvMwsJkR10EUkUXGU6q2vhUWJO0pQ4Oter348Go0uxePeCAqtQhvnCc/zsSqDOo4WmeR6VqKigiLb/FtZ2jlu3gpW5YHjid7nTVDqw/qi1G8yUFzAD65lkkgk7gcGg4GNx+OqiOBGgrOzsyvOYSJxGW5s6Qq1w1oicVsxnU7t9PQ0FNB8vbm+aBYP2CqshIPISomICFuL5VdZGWuEuJU0Rxbs1viVUBBZNFuIXasAMBgMVmsNsDU+sspyPjGuWh5bgB4Hs9nMLi4uVoIB76yA6bHHSUQmPSxOpSmVSZWfvRf4WxHaSMjYFjgf6rqLB/5H5+sfOMkzs+oCd12fb5f3x49rwkFJlIiEE7OycNciGClxoeQhpdJS9bcpyd/0nWOwINIatxKFfVHORCJxvzAcDu3w8HAlIDD8/8jXMEokrhM4Tus7PutjZEskbhKWy6VNp1NbLBZFUdcNkX3QLB6MRqM1SzFapUoDUzUwLxHk0kAe08W4SuS4ZMkriQOtlsWSUFA63yeeCDWRAwlxzbLaIiDgM8Lnj2Qe1zc4OztbiQYXFxdr8yIVAeQtG5fLpfR2QULq02jwvtYysXCAeSlZ0jFcqU4VonRqbv1YDi+LTwFZLBZ2cHCwdq20y0hEvKP81sqCz9TLwlMXSmWP8qHurT1TbxMcVoHFKM+7Cld6l1uFytK9fUWEWhkxDKbln2jNDPc68GlriUTifmEwGNgnn3xih4eHa4v1Lpdvt787OjoqzilPJK4KPn5MJO4z3MO7BaWxfQmdPA+cnOHLiQNSzlBtENw6SEbCoKyStYEzhuEBdCkvfSu1lD7ms8UDgc8jMAySn+hZlMiTSpvrB6/hlAGsUyeMOP8RPQ7cTUY9R4/X42KhQIlQuKuHKmdfIlZqSzWy2zUNrO9IoMD7sI5cjDF7u/bB3t6ejcfjtWcViXEt6w+0iAr4zef5t5q6UKvTWj6i591FcGvxylH90DbaG6dXes83RYvAobwPtpmHRCJxu7C3t2cffvihffzxx3Z4eGjn5+d2enpqv/jFL7JvSNwIbCK+R/ElErcJLp51bbt91kDoJB64VRcH8yXS7S9y65xlBTUnubWQPCBnAsz5wEFyn46jRM67WKVb0ldlQYIdPZ/S+RavA7wfiTsTYBQPUDgoqcJMEtGbANsA55lJd1S30XklkkTXHdima4S/FWwRxjQiUozv2WQyseFwuJrWgPPUN/lDLQkpXcKpeoq++f6u9Rp5k0RhzC73NR7G81A73gVqQuM2wSKB/87dFhKJxHvvvWc//vGP7aOPPrKjoyN7/vy5/frXv77ubCXuOVrHIYnEXQZyr6vwvmkWD3DwyK7QuGgdWp6Xy8vbOqrdFNjKyS9/tDgguqZzHj0eHvjWCPs2BskRyXUwafHwiiDX8spljwQEJY7wMYbB68r6qKzZ3nB9V4XT01O7uLiw8/Nzm06nl0hgtMK7x4+/eUcGfK7e5tDzQn26ELGSJXoweDsP3BeXU2VRdYPTNfwYz/N7oPKAosJyuVxb8+D09HTVcQyHQzs4OLDRaHRpOkkNkVCnjvm9xd/eByjyj3GXRAU+j/erOuL8cV/DbZqnuninW2vrqgwYZxdgHSkCj/nFsnlaXFauEwzD4h+2X9zRw/Pj0xbQXTmRSNxPDIdD+yf/5J/YL37xC3v+/Pl1ZyeRSCQSdvVTdjqJB76yO5ICJHIlqz0PxtH1mu9h8qSsg3xPF48ElcY2EBGtyMpfy2+tHiNEdaSgBAQ8z8IBC0f83HmxRFTBFNFsLRsKAMoi72QI86jIXakO8HdL3fMWd0oEY7GgJDKULOyq3nh1YFww0b0QeKVsX0wRt0VV5YzewaiMKm+qTqI+ohQnpq/qg89Hwo8S8CKvFgxb2pGBhTZVthpUnaq2Gp3n51USH1jIbc1zeh4kEvcbFxcX9urVK/uLv/gL++abb+z8/LxzX5dIJBKJ7eI6+uFm8YAt+G51xV0YatbAVigiqwQEPB+RvYhMqMF+VwEiyntruJJ1u0QilajCYAFBWS1rUGS5dC8SZRQOeD6NskaX6p4JkRIQ2IqM5Vbp1MofEWgOE9WBQ3kYYB10AYb3NHjRSLO3i5ti3WN+UQTCOlPlL6XPv1XeVPmie1rECGXRr72z6llzv8GkXT37mkdPVN5WsFii8onn8VvlOwI+cyWaYHv18MqbIZFI3B8sFgs7PT21Fy9e2IsXL1bncmu7RCKRuB60cMZdoZN4gB/edUFZvPDDA39FWmqFVwJCDUw6S4QVy7NrlNLoUg8thJbjbbHwt5BrM1sjVE5Yp9OpXVxcrNY5YBJYI5UeLrL2+nfU9ubz+epeb6+1cpTy4ue6vJwsGLALP8alRA/OC97H4gRb+YfDoZ2dna3EPXxvkWTiN7rrl0ScUr5q9cF1o+7nYy4rI5o+U2vj2K54Zw8V3tPvYq3vilJ8LV4z/D7gexE9JyUQKrElxYNE4v7i5OTEfvvb39pnn322dt4NBYlEIpG4P+g0kRWFALTaqcElkyO/X12Pftcs7K37s5fIIA++r0q9abF+l4iMCtfiocHha4hEIT72OF1AwI+ymqpz7F6v4ld1EQkIESFkyy1CWYAjqHi9DEzq/Rstuyr/+F4p63gtPz5tZDqdrhaq5Hn8Ud3jVKKuQolDTVdgazZeLx23WLU4TMnbBu9R732L6ICi1jb7Crb2K9FM9bFdPA7wHcF6Un14igWJRGKxWNh0OrXXr1+HYXw/8au2fCUSiUTietB5wUQnSGzJiqyS6v6IRPhvNWBGIoXx1QQElV6tnNf5J1gjr2wxbhFZWoQKBbyHLZLKOulEkdc6iMLjMRJv/o4spiVRablcysU5+X4F1SZVGAUmc0ieeaFELDfWCZa5RKCjNRd4pwsXUtRWlyzy9RUQFLCPUJbvqB9o8UiK2rNaA0KhS/lY6Ilc/jdB1Ae2ovZ+4bGnpdae4fabOy0kEvcXLh7U9gxP4eBuY5f/Adl21rHr/9us78Q20HkJbSUI4DUkSUgoeVHFUtzbJMG1F6Uvsd4l+uQ5Ili4iCAKL0qIUfcrLwM+xufm8+zdAo4WCbZ+4m90q0evAyc4HB+Wy3cU4J09ePV5XkhRCV54XCO+apcEFFCcvHv+2QKPed7b27PxeLxWn3gfrl+A5WABwdP2AR96fmBdqPai1iqIBACuj2jhSCwLC2MssNSehZdB5V+R55JXgj9/3qHDr/HCoJxeNIWh1sdFiN5FzmetzNE5zyt7TkQCAuch5zYnEvcL/p9zcXHRFF6J/Im7hU3GypGh57oNdjcR0X+x2XbWVkokNkUv8aBLB4Lkwfedb3khVDrqhSpZxm6aKFBD1xc78j4wi6cw8L2tUHXP5Ltmred4kNTj3HzejpGnALhbPpLw4XC4truAfzy8WiROtTk+ZhLMZJhFg/l8bpPJZE08UOS4VH4HCgdeZ7WtWFjAY0s8/1Hj80BPjS5WeZU+15+65mWsxVtrV0oIU0QbRUwPoxbY9Hyp8wgl5vT9c+ZnospTE165bnkbShabOE0W97yMuTBaInF/4P1In7UMUkC4++gzri4ZA/E78Q59DREKWbeJbaPztAUFNQhtAVqVOa4WQaB1wcSW/GxT4dvkhS8RWoxbdbxM5qN8tAgHqp77iA3qPF5j0QA9CZDsuAXdyTPvJjAajWw0GtlgMFh9Y3mdOKKVVVlY+ZjJb8nC7lb/yWSytuaAatO+7al7WvgHyW1p3QSVZyeKng+09mN9ehyl9t3lz1wRy0g0KIkfqs65jJsABQT/XRMjVB5ZSENRahuDoL4CLQLbNwsHSiRS4kHU5hKJxN1Gra+u3Zu4u2gZd0fA/5ZsJ+tQ//k8Tu06NvB78DuR2AaaxQO33vo+8Qi0oPrvqIFHi41hA+/qcdBKVCPU4rnpqAkJDjWFgcGkQ53na/g8cXqKt5Xo2TpZHg6Ha1MPRqORXDARzzk55qkM7t2CeWYrv1onQ3WwmHdF4pWVnz+z2exSnXqZx+OxjcdjOzg4WKsLLLO/d1jnmC+PTwGnSqiFDPH5oDcEejqoZ176E4pEg5IoVjvuInJE/QfWV8tCq3yPOuY4HZsMrlrAngGR6ML5UZ433n54UU2HWyBTPEgk7j6S1CVawIaOLvAxG/9332fvAzXWxjFrn7pGg1YisW10Eg/MYkKODT0ibRhuW0Q9io87JXW+FN9N6MQUSWm5h8uwaV1HYo6nwQOOyKrPwoYi1bwOAM9TR88DDzOZTNamOGBbVRZ3FMCYDCryqoQDDuNxuSjgeR2NRpfyYmZr0yxQOEGBBNN1DwYWVBTBZ5EhEhBQqMBng2ST464JB3ysBIQWgUD9Vu24RYlnjwCuP3XM5S3dz3nYhGir3VFK5WoRDnjtDywD/maBDUWlFA8SibuPbY57bsIYKrE7DAaD1TpNrWNTXnhz22PVUtrbxK7yGcWLxqUafOyZ0w0Tu0SzeOAW1NoaA/ypeSP0eanVqvH43TLw3gZKaWwz/T5xRcQosoqWBILWPPJz52ceWYWZuLCQ4PcOh0Pb399fI0ToLu5gDwssc+R1EZFbJtx4nYkbigcKKAyMRqOVcODTLFA44XpjUQ7rL0IkIvi5iCwziVRxqvrj3zXPgRLxjZ5RVD48p4TDUhvh+5Q4gGF2PeCJ3pNSeDxWddel3bTkJ5FI3D0k2Ui0wsUD9hJVcCKrdu24CsFgl/9fVzHWxzFjqa79/9+nziYSu0KzeOANcblcrsiRIu04ePXzvogdkj22hDpYoFDEks/XXqYuqBGeErg+WsJuGsbDlTodBy5YqYgqn4+8SPC3x+ku0T7PPwrv+fDOENc6wD8hFCGwPXm4/f391ffBwYFsd/7NAgAunKc8YgaDd4s0suW8ZEn3utvf31+tyXBxcbG2bSXm34UDXPMAvR2Q8PN0IT+P5BYFFYwXy85rKmBcGA7P8wcFHVxDAussaoeqjI7Su9f6LpRECN5BAY+jviQSEPhYocugQr2LUTkiYcXXBeH2yfnxMnl9ePvED7avFA4SiUQiofDo0SM7PDwsWsVfv35tZ2dn4XU1HborePxwFaKEY5v/k1E9DIdDOzw8tMePH4dGwMlkYufn5ykcJHaOXp4H7M5spgfjSAxxsFpCNKjfBNEguhauD4npIiCU7r9qdEk3soDjM/cPkhCz8vQVJuQsCKCQwBaSiDCpNPx+LjN6MdSEA1UGXvgR3f9ns9nae+DkHhd3jMizit/zyPl3QYc/Ja8GlVZkhVf3KNRI9aYDhW2iVFb+XRITMA6MV10r5cXjLPVTLNj2Ab+/0blEIpFIJBTcEPTRRx+tTYU0eytMv3jxomnsv+laQWjMUHncBqL/WjUm7hN3y3/54eGhPXr0yB48eLB2/vj42I6Pj+38/Lx3HhK3E9dh5Om8YOJ8Pl+REQSTPL/OVmwMy9j0xWtBDojL6Fo/SGSQuI7H47VFDTmNmmUVPyhMOHhhRCT7GIeKX51jMl4TDvA+/0bhBKddLBaLNXczryf/xnnuKu9YZ/huYf2jNdk9GlygiKY8lIBCIZZzl4hEhW0IDa3EHfNRI+/cvtQUmj5oiUOF6SvKYNvC552eB4lEIpGoYTgc2ne/+117+PDhaqwzm83s9PTUvvnmm6b/kFYDIyMyKGG8uxYPPJ2+Cxv6d8sOJ4eHh/bkyZOVWGP2lp998cUX6XFwj3FjxYPz8/O1RdvYuooDbyQxagV5h4sRbPViosPW6r5oseTdNqiOcVPvhz7AHQQWi4U9ePBgrV7R/R7bCD5r9fFyYBtACzvuuMDeAiwoeD4cg8Fg1f4UuY4ECQ+jiLmTdg/vKAlm7HGghAr8U8X5+lwenxf34MEDOzw8tIODg9U5nsLg9+B3RErxm/ON51SbK1njo7C78ExQ+a3tvMD5UV4H2Majdy4i9nivGnhEXg2qbJG7plq7wsOVRF6Mq2WhpkQikUjcX/xX/9V/ZT/96U/tvffes7/4i7+wv/3bv+10/2AwsIODg+bwPs6r7QiEnpd9xhatiw96/ruMvX2qYJddER49emR/8Ad/YP/4H/9jOz4+tl/96lf21VdfNd+fuJvoK8D1QedpC/iS8uBZEbDaS6TCK+FA3ae+++I6BISrJvee5jZVWCad7op/cHCwUlGd4Lt1FvOhhIRoPQaHp4PwsC4GKCLOFmPcLojzE3kusKDh3yymYZ1zneF3C6K64jhcuNjf37+0pkJfUq68DyKSynmOyHJtqkR0bttQ7Vcdt9zTBUpMiUSDFsGgi9dVlGdvVy5i4DPvY01JJBKJxP2CGyo2+c8YDAarxaQdkUeiryvVEieOLVvR6g3AaXH+VRgXJPpOM0DvVpz+mri/wHbeFV2nwHYWD4bD4dre8wxFBltRIyN8XBMqlHtxCbskKi0iyq7T2XXn4u1jf39/TWTy+f5M1v0e7tgjK6iZrRGc6HnhNo7KE8FsnXiVrL3secDtm6cqRO0U71fTE7q0PSR3uAim/2GNx2Mbj8erRSXVlKFNxLIWcbDLu6ys+oy+72aUD/YYMOs/55KJfon4lwj8toFp8Fo1LJh5eGzfKCDkwCSRSCQSJcxmM5tMJrZcXt6WsQt8IexoIUX3NpjNZk3igdm78Slun10Cjhu7YDB46wH68OFDM4vHFV5XrflnLBYLOz09XfMKTyTM7NLaIzV4O+/S1jvttuCDShQPlOLFg1I8H11XVmYlQCjhoERgbsMLtenAvFTPu0ozitOnqjx48GD1ezAYrHZh4BXh8V4m5Wyh5TUJ+D6Mi18CnIKAeYjqQrU595zw9HBNgWjhw1axoGTNVmXE+fUo2rjnweHh4epZYP0p0aSkOEZrHmC5Sm7xfcCCgmOTd5kFIayXTUQENYUhepZRf6TKqOpOtZno2XXpE1EsUF4tKR4kEolEooaf//zn9td//ddmZs1eAQo+dvzxj3986b9nsVjY8fGxHR0d2fHxcee4Dw8Pq54BZm+napd2iCjBx2Q/+tGPLnnJLpdLOzk5sdevX9tkMukV/5s3b+zXv/61ffrpp6uxXa53kDB71/bciFjDcrm0i4sLm06nuxEPnHT5xweZuD2cZxwLEQkJCEUWokXeuogHUTmuG1c9EGdivcv0vS342geDwWC1yOZ0OrXpdLqmciEZLy3sVyKnSHzMNAFHLwQkXSWrcRQPEnacsuDnlThSixeB13lrQ68rJO6eBxQP0BsC41V5ilwCVVhEazvCMmM8yhpei6cLonJF4oRjsVis1bvKH5NrFmNaRAO+N1p/oZTXUlkZLPJEAkFNTEskEolEwjGfz+3ly5eXxm5oMOoKN8p89NFH9v7775vZO0J/fn7e21NwMHjrpfno0SO5PsFyubRvv/12K/95vpDkd7/7XTN7u5Xi2dmZ/fa3v+2d//Pzczs6OloTZpbLpZ2envYWaxJ3D/7+uCFXwTlZn3bTSTzwuevT6fQS0SsNRPG4dZAbCQ8cb2nAq8hRLQ8tA/WuKFkBrwpXlRY+k/39/RXRRTLrwgEulsk7FLSkg0BCHVmt/YNCgtrykX9z+8N8qq1IkUSq+FV7Zm+AUlkRuCipiwYuIkTTFbisJc8DBZV/P+5i8a6lsQ2hr6slH6+1ihoo5OB9JU8DftbRs68JTSruWj6j+9Tzy/UOEolEIhFhuVzabDazZ8+ehWG6uv4jPv74Y/sH/+Af2Gg0spcvX9rLly/tt7/9be/4zMwODg7s0aNH9uGHH679x7kF//Xr11v539vb27MPP/zQ/viP/9jG47G9fv3avvrqK/v88897x3l6empnZ2f26tWrS9e6LLqYuNtwXvD+++9f4lXuDHB2dtb73WwWD9xC6O7nfg4zypZctn62DF5L55WQUPM+KA3ea+F2Ac7nrgfm7HWwDUSEzC2nSKqdxPo6CP7B1WWdIDEJVxZ8TwfTr5WLpwvg2gfsys8km1fBRw8JFDxQBMF0fEcIXmS0tV69LnBtA8dgMFhNncDFEXmLxlp63pHU6q/kqaBQE0Jq76ayCGwLygOh5GnQgtpuCyoPXa51yd+26q62G0UikUgk7i+Oj4+bpg/0JSnD4dAeP35s//yf/3P78z//c3v58mWveBh7e3v2k5/8xJ4+fWoffPCBmZn95je/sV//+tdbiR/TOTw8tH/+z/+5/c3f/E3vXRGc7NWmUiijVeJ+wtve9773vZX3i9nbtvT555/by5cv7eTkpFfcnTwPkFDhRxG8TVxfldeBEgoirwTMM4eJXJmvAjfdgtc3f8qK6qTZpzCgmDQajVbiAW81yJZ4XGTRwa78CCY6yi0+msKAcfFicSgeoNChiD7+5qkGpfanhCXlaYPnfAtGr1cUbmroIgaUwm6rXUcW+T7ptFjsW6YwbIJWrwNEy7oL7D3S8vyUOHtV/V4ikUgk7haWy7ZFEfuK8Y7z83N79eqV/fznP7cXL170iiPCcDi073//+/bTn/7Ufvvb3+5kS+LJZGLffvut/af/9J/s+fPnveJw7w4fH9Tqsuvid4m7jcPDQ/vOd75j/8V/8V/Y0dGRvXz50r788suNxrzN4oHZu4Gqr3kwn89Dyy0SHR8Is2XOr0VWT0Wc1HkO73nlgTqThRaUXI85zVo8XcLfFjABx/rmBf4Wi4WNRqNVJ+jfTICUpZv/gDxNtWVj9JsFB8579Cen2iFPrSmRPQ9T8z6I8s7poaeDTw3haR+qLMrbJlqEEs+1iAzRook1tNzXZ/Ch6rilT/DzUZ5Ku3yoNsrpq/PRuW1A1Z16J/j6XeunEolEIrE9LJfLpgX/Nv0vOTk5sWfPntmzZ892Qoo//PBD++lPf2pffPHF1r3slsulnZ2d2YsXL+zFixcr/tRVSHGuhfG2pJ1ImL3lCU+ePLH/9r/9b+3TTz/dyvSWTp4HDF7kTokIZiatyx4eXcjxuiJCfp3DlvKJaTGhiKzASqRQg++a5wOXN7q2K2DdqXTYeq5EGnWfIvVIUvyZsrXcO+bxeLwK52G9c/S1EPw4Sr9GalW+/OMEEHcNYUIZ/YlwmWrtD4Uznr7T8uzZ08GFAr/fvQ04v1g3ykuj5gWhyqLecc8TP4uSAKQQtVOeohL9IUZtoMv7xWVSYM+A6N3x+JQwEeVvlwubeny+1a57Bvm7hkIwvq9+Lq0YiUQikTCz1cLpfdD6v7ZYLOzNmzf2q1/9qjrO2gT/4T/8B/ubv/kbm06n9u23324tXrO3UzrOz8/ts88+WzvfujOCj1P71nUi4ZjP5/aLX/zC3rx5s5X4OnkeMJj4OxSBitzT/Td+Y5joWgk1KxtDDfC7DNy75K1ruKtCS35KBFCJM2zlxfNMUNCTBcm9x81kFNseE+FI/PEPEkCMp88z8fLx+h9YTveQ8PJwOoqoKuEFRbWaVZvJfItw0KXMClhe/43HJQEA64D7iuh9xvyouHf5jrWuBaC8HDhvftwlzj7guuR81O5NJBKJxP3GJkIy/geV/sdw4cLoet9tDh3L5dJ+//vfr03zPDk5sfPz843i9bhdjFD/6S35rxk6u+YncX9xcnJiz58/t+l0apPJxE5PTzeOs1k86Dp4ZDKj3JOdDKGqpqzlfci5ystNQR+B4jrSjtzYS7/xnLrGJBEJJ5J5/KAnAluzS1Zddey/IyLXpa2UiBiLX1g+VR+qzaupCvx+sOeE+mPuIxxs8s6w6Bd5RThqhFmR3pY8bAOtZLvmWbFp+E3A7dL73FJZovsTicT9wi7f/5s2NkvUcRXPbD6f22Qy6USwu2C5fLuGgNr1IFrHrUvcvivdNjwZNjX2JBKvX7+2yWSy1t5ns9lG7aqTeIBEL/I6QDC54/nCTLDUFo01ElhDX6K0rcF9ZHXfJdQOC6peo3pWaK1HXt+CP8pC7+HN1ncr8G9320LXal6wUyEqE3o8lDwCVLmVZZ/rGD0bkPiqvGJY3tWBhQOVP1Wf0faTmwgH0XQEBAsg/r7zIj+RsKTKUQtbutZKjruEwfR4J46uXg9K+Nrm7gbsCcLXWlBqe4lE4v5gm31AkqHbiW1awCNDlu/G1fof2idPx8fHdnJyEo75XFzog/l8bufn53ZxcVENW8p/igaJTbFYLOybb76xV69eSSPvJmsfdJq2UBqklwaYyqqKH3bzZstlaz5KqJGebVjbSkIH5+UqBuOqDvsIMGbaLZ5JU4uFmIlSDaqtOCEtkaMW4L18HKE1LRZK/F4WHdgjAQUHrmt1L74rXdwJS+XoKx54/p0A83oFGBfmO/Jewd0qonyWnhVei4j9rv6co7xF3jx4jkUJdf8m2LRvSyQS9wvbFBD5/yxx87HtZ4XjF/aS7DO/v0v+JpNJU1vmRQpb89En/6Wxov9OJLrAvXdKbWeTBUg3WvPArC4cYDgOr4QC9j7Ae6M4S8pd6fpVISIB2xyQlxb482/1DPiaQkSwu9Yrlzk6jgSeyMLbdyDi90RTapjAcxrcvlDcUHXKxNvDOUHmxfiUQKPy7mm3lFXluxQ2urcGLL/yOFLn+XqrENXV4n8fUHrPtiGUJhKJ+4PWcV4NN2VMlrgZUGOcbawEX0qvxSOA72kJs6nHwibpJxIM382u1QOmK3qJB0jynbxEuyNE9+O96rwSEUrxtRKhUhy7RKtXQh+oeuRvJczUdmMw6+ZVgH8EEZHG79ZnVlvzoOsUGj7mBfpKcUR5xPNKNOB0a3nFvJWEtBbRIBIOlOLYIsSVhJQob/68u4hmpXCtz0yhpa2U8sNliMrOlpVWga4FLQIAC2vq3W/tq1NgSCTuN3hs1gX+f5OrxifMLv+HXsVuPj71tUvb7SJ2bWsbyfQ4SGyC5XLZ7F3D93VBp60aOXL/E8HVSksZVgS65nmwjUFrC9FReeyTzlUPtFvmR+8iTy1u2X2tytzWeH0D3mmB01ZxR+IBz8dnotVSphpq90VktKWddhVN8FyUTquAEF1XeWVhqQUloYHbfe1POxJ0ujxTtpK4t0jpHWQBITofiQyld6yrENO17ao+OpFI3G/4eK+1T6itTZS437iKdrEpqa8ZfrZZhnxPEn2BBtU+93ZBZ/GAyRUq0cPhsEr61VzoaH/z1kFrl8F/FyWxD2oEqZUMbTs/fsx1W7Puogs9x9vamaKo0nIP3+uDD7RalAhsydrO8aqyReWLLM94TRG/iJxzHLVdCThvXeqzdtyS7ibvDwsIeF7F1yqOONTUk5b88HENrYRdCQ183dOuxavenS71j3Xf2qdGzyuRSNxvDIdDG41Gq/FeBO+jptPpahG8RMLB/5GbotVTcVdI0p+4bvQVDvqgt3iwt7e3UqBbphkooqRWYd+21wHmv4ZdDZRL8W5bNFDiANdnl7pVDXE4HFbrExe6wz+IiDiXhAB3N2PypEg5b/UYvUgtRIwJVPRnp4QDJU5E1hdPh3dOKL0XyisiKmcX4SCqDzy3aedUqsMobAnYJylE+e3rSdKK2rNR4VvLW4q75LnQpw9Iz4NEIoEYDof24MEDe/DgQdjvzmYzm0wm9vr16yvOXeK2YJuiQc0Aof4za+lv03jZghQgEn2xa8M4o1k88G3t3NuAvQ5KA8xWa7wilNt4ea+CIJjF1rqSFXITIqa2ZPTjSCzg412ipCzjNRWGBQBl9VZh8BvjUnlrQclirp59VA8qnCLPnpbagpGtx+qdi7wcoror5XUbCiaXi587121rB9jaL7SWQeVtE5QIfM0rwWxdfON7S2m1xF9qQzl4SSQSNXi/8ejRIzs4OLD9/f216+fn53Z6emqTyeSacpi4LygZZFrDd4l70zgTiV3gqttg5wUTB4O30xNw3ls0EFXkpjSovm24KW69pXovncdtASNEi+pFogDnqyQaYBhlFXevg5LlXAkM0ZoI/LuVLEZkN/J+qNWHIntIdHFajwsJKBR5HLVpDsq7ovSHqrYLqqGl3jjfpesteS2lsw0hUXl2lNJsyZsSUTiemhBUircPsM+Opn3chP4tkUjcTDx48MA++OADe/Lkycpbbj6f26tXr2yxWKTXQeLOI4WDxH1EJ/FgMBjYaDRafVhEuE7s0mUjImVRmZX7FN4T3V9yq2IrNXsSKC8EFAgwTMlyrfLPQDIbWXaV2z2Xn9P0j291w6vXqkUTkcCrHRmwPmptpIuQwHlXqBFE1SaUx0HkiRBZp6M88Tmeg8r11kJea+fwmpfDw3kbibwgWuIthe1Khvm9KdWvAj/v6P2K0maBgZ85v7OeTxbS+B6VJ/+UpiB12UEnkUjcTzx58sR+9rOf2Z/8yZ/Y8fGxPXv2zP6f/+f/ue5sJe4xuvCATf/baga4RGLXuI7211k8iAahDh7I1oiBij96mbsuiobxet5KaLGoMyltFQW2OfhuiYufT1S3UTlr9bytLWmUJ4HHz9dQOFDTEzBeR8267WFKz0jN6WRiWWpbJVFIvTv4W3k7eJlrpI7zVHpmyvsjQunPsivRj+q91SskAntnlNY9iNDa39R2XGhNrw/UM+vS53J763JvIpFI7O3t2Wg0sg8++MCWy6Xt7++n2Ji4V+gyDksk7gI6T1swW7eClYCDUQ4b3R9Z7Xa1GwGjZnllslcSDbaBrlZwP18TDkou710JuUJEqKL6RVKsPD14u0YlHCiPj1YxiMsUrSfh90SWaW8Pqpy1OsRwkbeEX2PLdB9ExLEkINTe+5pQxoJBTbjpq+r7fW6Z77qYYte6LQkIrX2fCmtWFolKIm3U96owJaSgkEgkInj/sL+/v/Jkyv4ikUgk7i6axQN0YfVPacoCEjy0lPo3D85biW7NkrgtbPLn10dM4D/cGrlQLsl+7BZX/EYrrP9W6SkCUitXCylGjwImWby4IQsELBzw1IRWgUVZZkvEjtsh1tFyubThcGjz+VwKSlwvNU8HRdxdnOB0S54kXaDEAz6v7olEBeUpocJhGvib6xrD9HkfcaHJ6FkMh8NL58y2s6NE7fmoNWNU/qN4uM3gNBQUsVRbV+9ZKf6r2v4nkUjcLpycnNgXX3xh/+pf/Subz+e5LWPiVgHHVNuON5G4q2gWD3CAq3ZZUHNvS4N2j1PFX7KQb3sQ2/UFr1nyVNwRsVIEsiXumnCgPuwtUrJ8o7ijPCtK+cRr0doILCZx+n7M6xq0khguYyv5VMKBEg8wThQQMB3MfwksaCiRga/zc+2LPuKBqstIiCqhJjJsCy2Wd8zPNqAEKf6t3tsonj6eA9E5fs6l+/Gd2/VzSiQStw/T6dSOjo5W6xSZve07Tk5OcqeFxK1Cy/9tK1rGUonEbUYn8cC/S14CZrEV1bd6NCsvqOfX/feuXsDSC95KONS1FmLdFRG5KD0XFwzculoSD1jUiAQEDB+BBQQEW9PN3okVg8FArmtQsnaXfjOxVkKIasfuUYPXS3BXTSZZ7GGj6pDFIzyvSJ6nsc1F7NR7UKpvRbjVtQhK1FHHLWJVqUzYnq4CpbZSE/kYkUCIwHKVPAeie6N3S7W3FA8SiQTj/PzcLi4u7NWrV5eupXiQuG3Y1CBjltP8EvcDnaYt8PaMJQKjVr03u2y9VhZIjJfv38a0BWVlVRbfGiGKLPI1S70iTJGQoQgxTknwMPhB8jsajS4RZRW3elY1AUHlt5T3Ujn5mh93XeiOPQDwvCKhXJ+17Ucxfx6n5xFXrkfvipa2WqsXnLrhpNhFoRqidqvKVLq/JhjxdpIqba4Pbo9ct3y+Ffy81bsYiSUouOE19RwjkSki3Erwi+LicDVrBpcHBQA8v1gsbD6fF6cD4e8UDhKJBGI+n9vFxYW9ePGiKG4mkUrcRozH4173LRaLNS+cROKuotduCyVLVO3PAgfEatE5J2+KhOHvbaA0CI+s7aVy18QFDqdEhdaBurKc89QE9/ToM/ivEcXoXEt5ovplwUkJOq3g8JwXP1bCQc2q73WKwooqF6bRMpAqWe2ZCKK3Q0tdRGnx70h0wWMl0ETiTCTYOPD93xVRrb3LKt3IG0DFrb7xurpWqpMo7hZgv6lEF36/uF3i/a3tK5FI3B84QWrtG3jL5UTipsMNCC0GGv//nM/nKZQl7g16r3nQBcoC6MKBci2/anR54VsJ0qZ5qVnW8RgJr1oosZa3iNSWXO5VnqNrkXWZSY2apqDIeAtKVmWuP97PXlmRFTAeHhyh2IUeCkhYS5ZkFmHwo+pQkf5S/lX9R1AW9VofEJFvRZrZu0V5C0RxRuB6igQETDfKe0kQaxXnIlEB61K915g/zkcNqn1wW1JtwAdB6JWQSCQSZv3EgOxDErcNw+HQDg4OmsbP7m2QC4Um7gt6iQdmmghEfxBqUOzCQckay4vsOcHja9vETXbTVUJLJCAoIhyRRWWNxG0TI08APlcKw4Qw2nZREf2SpwPGyddKpNy/fYpHi3DAecH2G7UZ9K5R4ZULf0T2mchF3gw1MuxQi1hGwJ1SIi8Dzi+nHU21YKFFxRW1gwhMvCMxgdt9a7x83OUefs7quhIbug7AlfdBJAhwW/KpDT4YysF/InG/4f9BuZZB4j7Ax2xPnz4N/+tns5lNp1O55kcicZfRecFER4lsKOtWzWq2zcGpIo8lcqCs2xE5VmmVyLki0CUocmFm0jqJ4ZVFvdUqinmOPAA4j+re6Bpex/jRghG1CX6WSMajOi3lb7l8Nzff3dJQeFH3tbSFKAyLMCVvAQWsVxcfVD5L7yNPE6ilxecisQ+fiYfDtJisq2em2rjaxnXbop4SXErXGV3zwu8mijGl/NXqrJZXFp1a+rOWPiCRSNwfdPnPao0rkbjpGAzeTl94/PixPXr0aHV+uVzaxcWFnZyc2OvXr68xh4nE9aCzeMCDycjSjOSwZf4tQi02V3KTLpG7yKpdi6sELnNUH36diUOUllp8jclY6ePhW4QDZcnEZ1YiDbwwXlRm1WYwDV+0DevC7yu5S6u1MlRd4bP3tDGsLwKq6qpFaMJzCkowwbqoPSO8v0TMa3lGVzquA/X82BrvaUfkHsUBFgmxDfj9GB7hZXLvBLSC18RHBRYFr2IArNoR1w/WZdT2lOjI3hRml90kVXvCBZyiRRkxr+wRlIP9ROJ+I/uAxH3GkydP7Ic//KENh8PV+Ofrr7+25XKZ4kHiWrBNY1ofNIsHLAY4+cOF2/zYyZ+HGY1Ga/FEcSu0bNnY1ToWWdNLVmwlknRJr4X8REJAdL2W91qeFKFnkovky78x/0guOK9MQlvzym0Mt5xUoopK2+FEdD6fXyKTSOYUGWe01jHXX7T4HBNDJUpwGH+3/H4VPnrH+JmW6lAtXqmeHU/L8OcVxY0eDCUCi+XhxSG7tPWSsMjXS+9oa/+C/Z/Xidelt18vS229FyU6sigXTfUw04Krer9LbSaRSCTMsj9I3F8MBgM7ODiw/+l/+p/s9PTUnj9/bv/23/7b685W4p5j2wJClz6+s3jg82B5qy9lje5K6hVqlcME5yr/4Po8uIiEeXw14QCPOR4mC0yIovwgMavVYam++Tiy9NaEGM6PQskTRYkZTHJbvDMQkTDi6amPchfnsvszqpFXDMPhl8vlpS0Q1XOJhCGPH+P2+/g5cN2xZxB7C3E+/Z5oGk5Uv/7cvBxdEJFyjr/2u4uA4EByj+IHLxjb0g4j0RCFGwf2H/hM8JvbafTudyl7IpG4W8h3P5F4CzeOHBwcdF44PpHYNtT4uQ987NclnmbxwIUDXyDEXb5Ho9FWBILSVmX4u4WsltLpSgS2ASapEWHie2rfLQQ4KieSBScdraQsEg2wXqN51ux6X0tHoVRmRbr9Gwlby3aMKg5Po9aGSkQd89qnLbI1nT0qImEjWqTS7LIooAQQ9y7yRSYxTY97NBrJNqrKEFnWS8/dLfiYJwT3I8pbgYWWCDURjeNV97Dg40IP5qPLlqrcLqNFO5XAo54p5xXbqhKqEolEIpG4b1gsFvb8+XMbjUa9dhxJJHaBiD93QZep/Y5m8WA2m60ivri4WJ3HFf5xEOwK3SYeCDhoVcQ0soC3IiI1nIcobMv5SDjgsBgOiS3HgyRPHXMaJfGgtGBhqdwlS6WqP+VpEFm+kVwhKcK2pcqpPCdYOEAix+XktqQswhxGCQQusmEdR5Z+D9MiYkRCgyLFURtWecR7/R3GOsV1KczeTgMZj8eXxAb/zGazVRzcJpV4h+0Xy+n1pki1esYReCtIPI/tK2o3SgArQd3jaXiakacWx8Pg/GH9sOeBh8NrLhR63eJxSbBJJBKJROK+4uzszF68eGH/5//5f67O4VpCicR1Yzwedx6v4eyBrujkeeCigHsgDIfD1bETDxQT2MqlrNV+rDKPhK9VIFBh2FLr51oG7K3h1PmI6OLvLsJB9OGwXtYon32EFr6/ZL2MBIIIpXKo+fN4HX9jWtEie3yO84gCVUTglGBQEhRY6IrqoATVDtX9yqoe3auEIyT5WB6sDxcHFPFHEouknQUDRaBZYFDlwzhqbcuvRwJCDUroaHkGKg4/jkSgqG/qkn6pHJg+P9eoLav3I5FIJBKJ+wAX2U9OTuR/9tnZ2TXlLJFYx2AwsNFoVPWqdjh37zu+6yQemL19YSaTyYo04DFufcfTGbpa8BA4AN/U3bgPug7aI/KvrrM1FMOUxAMUaZR11qzuFl+qy5L1WilVSjBQ1vaWesBrTFRZNOG8qTwroEigzkfbIkbiAc4lV9bcKG+1ttW1LSuxStUZl4XLjr9Z3HNxgD1EOA+8EKUStpSow5b/klDU+m7iooucViQ48mKgrc9ClTNq3xye72NRJUrLod6FqL26NwKeKwlfiUQikUjcJ1xcXNh0OrWjo6PrzkoiUcRoNLL9/f2igODjufPzc+mF3JxWa0AmD9PpdEVekVyMRqPVnCAmkWxtZBLKg9QWcquISO0evq8FKmxE2qPweF5Z2/F85F0QTVvAcCXSyudLoo4SAlyJZaLJ9/GzRVEpyltEVtC6rcqorKd+XiFahZ7DlF4+niahrLdROTmuiCSXCCATTfzNlnZ+T/03v6Oq3jAtTwd3rmDxyuN38u338bfyBlDtnutFiTI1iz+CRYSo3XO+Wp9n1E9gudXCphxW9YWl/irqOweDwdritiociwl4Lud2JhKJROI+wccvk8nEXr16VQ2fAnvipmBvb8+ePn268kJgnJ+f2+np6dryA33QLB6YrYsAi8XCZrPZat7P3t7eJUGB7+OBvxIOmKgokcARWVIxHgzX8oKXCFzrvTVrYyQclK7x+cgK3wJFhNR3RFbZksxxIxHldNhVHe9hsAVb5Z/zVFv4A0mtKjefj8rI6ao8RPnl8rEAoNKLngV+RyQP3yX+IIlXzxXroSZQ8X0uMiDxxfs9XZ6ehOmo9qLK1nIe81daH0K9k1E7UXGr86V3lUXVLlD9qpcBxSD1jtXeb9WWE4lEIpG4K4j+79FI1gK04JbGc4nErjEajey9996zx48fr7y3l8ulnZyc2GKx2Fg4MOsoHngG0NVhOp2amdlkMlkpHbgYGd4XkUQ1MEcygdd5AB6RGSQmV4lW4s9hzPROBJEnAk5bUHmokR2/psIhmSzNgS6R3eh6tFAciz1Rhx61Key4S0KHsmJH7RLDR6JSJCBEKIkgERS5M9Pim0qHz/tnOBxeWtMA44/EMK9v3PWA8+HxoaeDx4FlQQs5k2gWN0plq4k/mK6nhV4Ifk+f5xPdo975Wh5raXBc7FGgvpXXAT5rfM/xfcdpDYlEIpFI3EXwf/A2PO7YAGqWHgqJq8OHH35oP/jBD+zw8NDM3i7w+dlnn9n5+bm9efNm4/g7iwcOH1TOZrPVgHY6na4G5NEncomukVyz8hzoyCp6WxF5FpREiC7lLgkCSADxuUWLWrIgoKz/Tgyj56/K5B/VbpAMlYQDDxfVVYl4tZC/FsGA72n1FIkECs83X3PUyCgKUBwXfnNcSDhryjrW/2DwbvcVtU6Cp49iBLf/LvWrysv1oQTOlvu6ph/di/Wodvbw39wHlPq5krCmRCEGCgi+kE60MGoikUgkEncNzmv6gg0V+f+ZuC4cHBzYv/gX/8Jevnxpn3/+uX3xxRdbi7tZPFADTyaW/KlZZEviQSQUeNiSmtdCbBSUlZKv8bkuxEKJAA5evwDjV14HUR74OSlRwEy7uEfkg8k7kh0meL7jBosFo9Fote4B10mJ8JWEKJXnKB5VLqyHKL5aO8Q4S6hZp9X9SjzgPOOnhVRyG8f2pEQWVQ4WZiK3eySvHp8fR6o8l6cmzpT6kFI5/BqWF6dbRe+/aq+cV5UuPjtPi/sDVffqPW5pSy19L5cLp3L4Tjp3SZBNJBKJREJhm/916XWQuAlYLpd2enq62hFxm+gkHqiBOFunfStHFhIGg8ElKy8PaksD9mgwzuHxpa0RMk6Hj0siQ80qHYHD+wN1q2xEIHxw37J1IZNAXAyN42TSw3Dy53lkS2kkajCpi/KuCLg6joSD0hoH/Fw2mYLRFyUyygo134eEM1qnoSup9nSQKPucKI6f86uA77ZaZNLj8q1dsS3wO+rP0+vG40QxIXo/S3nmdwnDonCCUzeidQL4nVEih0+JUO0Py8CCoXr/S/0lnlfA90PFhXXAC7GW4kkkEolE4q4h4jl9UDJGJBJXgdlsZn/3d3+32hlxm+2w17QFHGjjbyUauJjgZICtpgrK2h7lA+8xezcgj9xta5ZVFVblrUscUVla9uOs1QGLAC354d+bdHBKeFEEslUAQuLWJ099X46WvHWNC/+IavFFYVsIIBNZVY7S+9ZSFj6nrOecfklYUosousWb1yvBMkSiXa1sJWu+I1pEsSuUFxHnwX+rOlBlcxHP6662pkvf573ruBKJRCKRuGnA//6WsXkN+b+ZuE58++23tlgs7NmzZ6tzFxcXWzMEddqq0V8mtggqIoNiAlvlHDVyX7Pqq2vKZV6JDK1QA37MX+3eknDA4Wppt1wrkW5OX60VoFBbtE6VsUs9R9ZV7nxrx5FlNsK2FOa+YLLNzy4qf1RPkYCkvBAiS3YLughv0fvCBN6t9bgNZJf8RWWvvUORaMPXWkUgVW68T/VvLKzgAMZ/s0eGh1VriJREWcxLqa8ovYeJRCKRSNwV4Pipyxi/FF/+ZyauC5PJxN68eWOTyeTStfPz8620zV67Lfh3yXKspjOwZY/vj4i6ma1tN2Gm5+zzoJsH0y2dARKxmrWf8xgRBT6O3P5byHcURhFEPEZRReW1BramKhIUCSWIiNy3kn587qXFF0vAskekc9eI0sb6UGWNSF2pDLXwXdqA56VFmccpOVHbwLR5hwZ8F1tQEvrUdTVgQKGsa9vg8KV32L+xPtTAha+hgLtcLuUUg6hf5X6wJCphGjkQSiQSicR9AP5P8pTOVrhhLv87E1eN5fLtOgenp6c7TaeTeMAvgiIEKBhE24jxMZ7jeDwdRDTPXZGHLtZIZWnkeyILKoeNwkcLI0ZgC6WKl+tcWbS9zpD41ci+Kqt3qKqMmD+17SQTYkTNqu55jyytLSQ6QqvQ0QUt5DwKUypjSbxTxLVUN9huannFZ4vz+aO25M9/OByutRfV7pkgs2eTh4lEhxZE7du/WUDgxQK7CBjqfVLCQqndoYDB8bKQivepYy5vTYDC9wynoiUSiUQicV8wGAzs8PCw+f/fzOzs7GyHOUokYvguIcrjgLHpmK7TgolsuVZEFi1aivSoeB08wFZeCrX58BGpYot7rTOIBIKaNTMKZ1YWDkrkRsXJ9eLPB58TWilrYALl+cX4nRTywoddOlaFUtvAT7RdY4lQq3oqpVnLUwsUiYvi83rnZ9QiGkTiWq0M3GZq4Tm//B19fOeN0k4iHG+EElHGcy3CYFQm1Rd5PrGuVV42eQdYFOH4IgGPrRtRX9vSDvhetbhoIpFIJBJ3CbX/7729PRuPxzYalenSfD636XQqxzb5/5nYNZbL5aWF8WvYREDoPW1BEYTSdm2O0ksaEQJevyAiiZFoERF0lRckDCVyE5GgCGytxXgiEUbFr4QaXJzSEW2fx0BypMqCFmB/xux5oKC2duwCJuDq+beIB6V4FTaxbqt7kIy13BuJBC0LjZrFYgnnp4VgYntV7bTl0yIeqDYX5TV6PqU68bbdIiDw71ZhoK+Qw1BTVbwe/dh3rRgMBiuluSSkqmfN13AxRhYQ0vMgkUgkEncdPH5xHB4e2uPHj4v3Hh8f23Q6vRQXjj9uMjY1Airc9DLfJVz1OK3TgoloiWYrtHrhuloHOZynUyNP+GJ2ESsYEUnnMBHpUShNEagJBHi+tqo6Cgdm62IFW04xb+ilgM+GyQU/b/RsqC28iC7gUf5xygUfYxi/RwkHKv3ovIOfhddB35eQ02mx7DMJViKCOs9l4GMVN8bZss1laecAFAjwG0XFUjx4XZXH27V6T0pCS0kgiPokjIffFdXfqPsjRM9N5ZVFQK8jrE9cSBHrqIuYEuXN44vaXSKRSCQSdxXK+GH2dkz9s5/9TG5t/atf/UpOz/T/5fz/TOwKyJn6CEB922Znz4No1X01oFakn1+kiDREA/TWgioSoML49cj6Hlkk+woHKp4ovZKYUUqfLcUenusViUipvFFezbo9D0Vw+MNiAYsLfh+LBxifyl8kBpSEk75QUxBa4o3IcBcix+XAb5WHTf/UWEDAP9xSu1dtlMtRQkk44LZWUv1LohK/F6oNt+YR86fSjd4rtf4DlrsmdKhz+P6ofPK5HPwkEgmz3VgnHdnHbB/5vPqBx+0+Xjk8PLTvfve79uGHH9re3p4dHR3ZixcvVsJBNO65Ldhmnu9y+7gp4DHpJnXe9d7O4oGCelkiAlSz6JYIsypcFKZEiFvKURIe8Fy0MKDKG6fBYUr3RfeqgT13YiUCwPWEcbO3ifI6aN3xQOWVPQ3Q48AXasNwkciA6av2VXopoukVm7j/lEhYLT9R+JLnTSvRLnlBRO1diV98L3scKEFBhWfhJiLInLYSeVR5+B481wWqXyih9PxxSkZrZ+3bWHYl9Kp+IvFIfeduC4lEgrELUpT9y26xbTJ716exsZetT9fd29uzn/zkJ/bf/Df/jQ0GA/vP//k/2zfffLMa+/jntv5nbqOdbIPIJtpxXfXcacHE2uAbGw2u0o1z8mtbvPkAm110FUFGouv3dhng16zsfA1RWjAwEgdKwoGKk0mYKkPpXq9HRbTN1tdFUNZyld8obItwwGGRoLirtLcbDodhOV3OkyJHNbhYsilKZKzWqUYEj63EfK01X33fCxYWWFDwz2g0KnrbRFDp8TQc7BOUUKD6B8w3CwgtdaFEvRqi+sN26u+mH89mMxuNRsV8cfvx90EtBFtrX3wuet/43UskEgnHtshokoyrwbYEhPvyX4ALJe7v79t4PF77+PXxeGwHBwd2fn6+Cn+b66hlG+4Sco2kq8N19p2dPA9cXSvtLc7HyqrMUNZEFxGUxZE7wYicml1+EUqVHQkHjNrODRHJiq5jvBFpV/HUSA3WgyI0nJ4i4jUwyYjClO7h9qEITbQ4Is/b7yMcOLapuKp8KOt31G5r50vpt17Dc6U2hF4BkXDA0xb82+PuOnDBRVK75Jev1URAjLtVUOD+ip8nPu/oWbs4slgsbDQareLBdo51ye2JPWbwNwthqk/m+KLyu+ibA/xEIuHo06czWvvcxPawyXO7byKy1xMKB/v7+3Z6emqff/657e3t2Zs3b2x/f3/1cSPAbYdzva4orW+W2C6uu+/sLR5ElnA1UPUGFXkR8NaCasDfsjUgk1IPh+lGljlMu7Q7gCL+EVlhK2yUbqlDV9vdMXHGusV6MFvf7rJEpJjE+7kIGH+N2DLpQwKjPFRYLGDhqUSMuooHWKf87FpRInYM5baOZcZ4+D2q5aGlvLX6YVLs6eLimuwZhL992oL/8XC7VosNYbp4HO3eot4TbuMlwS6qD/yNhJzf3+g4yqPfjzsazOfzVb84m81W77mLCtgP4XmE1/ty+W5HGiWk8jEjEvDwvEo/kUjcX/QlGI4UJa8eOIbvCt/Z575hf3/fDg8P7eHDh3Z4eGgvXrywFy9erK4fHBzY4eGhnZ2d2cHBwZ0gz3t7e2uepDXgWCFxP9BptwU1GPUBME5J8N8+94fJodk7YoDz2nnxPkZp8MvCRU1h7SICqPtq15R1tktcZpeJJgoHpThK5/Betfilz+3iFdyRSKk4InLCbYatqz6AmM1ma4SFrbSlqRIl0UCVu4ZI6FFQwkkriVckza+paRil5971vVHPKyLw3I49f/6bV3ll8q/+gLrkvwsikaALunreqPS5LzJ7Vx++XzQ+/+l0uvbch8OhjcfjVR3zVq9Y9w709OD3h9+DUptAcSOa8pRIJBI+XugiInjfkoLk9cCt6U4Oa1gsFnZ2dnYFObu5ODw8tPfff99ev34txy5Pnjyxi4sLe/369TXlcDd4+PBh1ZtisVjYdDq109PTK8xZ4rrRSzxAC5f/duLvIgKSPiZKPOhVUANWJNAqbHRPNMBX5J5drTmuCNsWDhRarMYla3IpDIdHyysLAIjIS4FFJv7NHgbK48DDR4sjqvhVXkp1zQRP3V9CjYy15KFLOtsA55kt6V3uVXH5R3ne+Du8K2wzfiVQlfoavhcR9QXYF5YEG9U+uX3hM0BxlkXAkujGa9SUppslEon7De9rRqPRShQtwUXSFA6uF4PBYDU/v/TcJpOJTafTK8zZzQSu2eaCmdk7cX42m91Jq7uv6/Do0SM5rlosFnZycpLv8z1EJ/EAP2j5crdaH/Sy+zkPWB3RIL91UF4jqKU01OCcp07goF0JF5HHQlfxoIXs1IiX560kjGA58HepDJh2SbRR+eWpBorAKHdp7ohaxAM8VypnBA/Pz7sFJSKJ7aYUHxJsFm9a8hGJQpGoEr2LKr+RMMTWbyUg4HtVI9w3DdxGmXQrzx2/z+ydsIaCJK/jwu0Cd6twi55fV3/QOD3E43avL1UOLI+aMuTnZ7PZ6qPKmkgkEmbvXJwjgoF48+ZN9iU3BOPx2B4+fGgPHz4Mw7x69ereTldAXFxc2Js3b+yHP/yhHR4e2sHBgZm9FcMuLi7ss88+s/Pz82vO5W5wcHBgH3744aUpGYvFwiaTiV1cXFxj7hLXhWbxYDKZrKnMZu/mBftq4e4eiwNYNThlQqss/ExM1SJfHJ7PR2Bi42VBFy52wysRQC4Lb0WH90cWSQZOWUCoPEQiRlR29Rvr2UkFui4jQcS5iiViwUSrZP3kNLDcyruhJh6o33hO1RkCn3+L50Ipfx4HixlIHpfLdwtYqnJFZcS6aREQSlBpKLd4/B0JArxOB4ojLelG+esiCG0C1UYj0SDKj/JiwjKo69g/4voyeD+LCNxWfdpRtJOKv9toBeSPmrqQSCQSCoPBwB48eGCPHz+2x48fX7p+fHwsXb4T14vRaGTf+9737P33318RYrO3ZPk3v/lNPi8zOzs7W3lonJ6e2k9+8hP70z/9UxsOh/aLX/zCfv7zn9vp6enqc1f/K//hP/yH9uTJEzs4OLCzszN7+fKl/e3f/u11ZytxTei0VSMLAOyBoCxaTjSZQDIwPk+PyVMrUStZSv0bB+RqP/rWTpPDMWHidPtCiQ6bxolx4zNSRALXpsB7MG8sRCjxgO9TokErwcR0Wzts9YzVN4arzQtUHgJdxIOoratz6nmja7ryFojqJxKSauWM6iMS1lCkU6JfKX8tgsKuEPUHLflS7yeKZ9H0qOgZlIQx1b+p3SowLLetkjirficSiQRib2/PDg8P7cmTJ/b++++v1rz65ptvbDab2fHx8XVnMUEYDN5usfz06VP78MMP7f3337fnz5/bixcv7r1w4MI6euHNZjMbDAarrRrNbCXE+/W7KrYfHh7a06dP7Sc/+Yn98pe/zPf5nqNZPPCXZjgcro7R08DJv59TUxeciOIK4Yr0lKzO0aC2RDp5cM6eB/gdEUiVNsaJx0qMUGEVohXma+liuBZLORMFfzbeAXqnyeKBmZ5GoNIsCQeRYBA9R5VnVRecp5oHhnrm3s67EjtFyFiEwHyqOmBhBY+jMuJK+xH8PYvaSBcxCskv5oHfLX7HlLiE7Uq1J+9LWvPWB6q9oRdItPNCiZyzgIjP0M9hG+N3isVNFT/Gqzyl8DsqbyRiqfwnEolECQcHB/ad73zH/tE/+kcrb9S//Mu/tJOTk+vOWqKATz75xH72s5/Zn/7pn9q//bf/1l69enXdWbp24HgYx8RnZ2erhRFPT0/XhAMUEO4inj59an/2Z39mv//97687K4lrRifPAxYC+Jofm72dC+TEwcUGH5DzIl4l4qlIZWQ9LlmuETxVgcmOx8dWw5Ilkr/R2soDcO5YlHsx1g+Hr61sjBbdyErKhAHnOk+n01WHiN4HDhYTvAy8qr7H7W1FCUORKBSVq4YS2VEiAT933HIQw+L9UTqqrSqrsJ/38uPOFlE7RzKLz9TPM6FV70VNXPD4/De3X6wPf96+YrO72Ps8fdzCMVo4kesomgaxK9EgAi826MB8q3cL6zgSrvB+f/68PgHHxSIcPmMUYDkd/GZ4G8c26B9f54DDJxKJRA17e3v205/+dOXm/Vd/9VfXnaVEAyaTif3617+2N2/eXHdWrh24ZTJynouLC/vbv/1b+/TTT83M7Pz83M7Pz+UaQndtEcHz83P7xS9+Yb///e/t22+/vbNrPCTa0GnBRLPLVlUcLKsXjj9dLFhMxkoEHgkU3ovX8J7SiuZqoKzEjkg04PtUHJuASWTXgb3Kg5qOgB0iLprDzxGJq7KuK8tmlKZCS/kUiVdxtFjHVVvgZ1vLU6m9ONyijVtjdi03I5rn3tL2lIjCAgLXGQoIWIeRMBeVsSQktgogiD7vxaZoEZdYEDCzS30phld9oLrO3iAlYU4JWeieqfrr9DxIJBItWC6XdnR0ZMPhcEWsEjcbr169Wq2sf3R0dO8XwVPGtdlsZkdHR/btt99eCo9bjbcaMW8LvCxff/312lSFk5OTO1PGRHc0iwcOtnA6eEVWXnTLiRKS/GhgrcAWObZkchwRgYwIIBPGiMSo+/l8NJ/Z84du0JHlsAR2U1YD/FI9+PnSfRjOSYX/5kX6kCQyCXRiEpEfzotC9DyicmHeOB6Mzz9uKTdbdxGP0qzlp0U4UEIXTgNC63QUbySoLZfL0HqOwLhQ9HF3eiUAOHDLosjrgIUGv4/XTMHzEbqKjtsSDiKyrt4ftZOCKhO/m/P5fLWXMreLyKOA4+G2Et3v92FeF4vFyttoMplcGggpT6NEIpFg+Hjh5z//+cqTLFfrv/n41a9+Zb/5zW9Wv30x3fsIJQL4GPjzzz8P7/Nx7l0T3X18gO0DcRfKmOiOZvHAB7f+IvliOAj/k/CBLAoIbl1F7wRENODnQXqJ0DFBVd840EZCpEivSsOhXLrxfA1qHjOCiQeTBr9eIrK1l1oRekUa/Vkrl3gVp3oWnKfom+MtPY8SkSqJPEyU1e4Ypbpr6Sw5nhqh5XpGUh21axa8sH37sYpT1YtDkX78YDgXDEaj0do3Tv3ANoRxsgiCU5lK3ipefiVCcVlUnddEKhbHVD6iNT84PfW81HnMK77zKLjwu4j3scDkQO+BqF5ns5ldXFzY8fGxnZ+f28XFxcqLwZ/vXV0AKpFIbBevX7+26XS6RrJ8nnji5uHi4sJ++9vfymtoNLovUGONxWJh5+fnNplMivdGi3/f5v/OxWJhZ2dn9uzZszDMXV7jIRGjWTxgixqLAEgK2GqF1iskOAwP5wNkHsgrRAqfGpgr0tGFeHC4FutmKV8IL2frS6gWrWvNA54rkTAnEF4XPL8ewyrShNdr6XE5anVb65BrXgdm65biiGS2CDMqDkUk8Ry2PSaVvEBfqbzsjcDPxsGLKmJeSgIUiwhYdz5lwYVFXutA3cvvIXpbeB9Rsr6rsuG7ELXPWv9ROubw2J95XXA6pX5J5Qe9MRB+jt91rh9+rpHwwX3zbDazyWSy2mbK3Yz9ue7v7zf1c4lE4n5jMpmsiBbD11K6zUTqrmE+n9tkMrHpdBqGuU/EUI3PXGDvsn5Babx92+Blr01juS9tJPEOncUDHjD7NR9M46KI0Yet84pEMcmIrHqRxwG+rMrLQHkcRGSO6wFJEabh3z6loKXD2MRVG58FL1ZYiyMiFFgHaG1mwlTKb0kUUOf42Soy29r5sjWej5n8dvE4UHlh4YDbExPFkhJdEl1K4ZVQgiQcxR8WJdT9EXg6A4oHPG0BLeUsKGCe1G8zbd338wpKQMA6qtVha/ti8YAJf0lE47SUuKT6VzUNSsUdCVYsGOB0MhcOXr16ZW/evLGzszNbLpe2v79v+/v79vjx49VzTSQSCYXlcmnHx8cbi/6Jq8PZ2VnTonf3lRj6f2af9R9uezv3snf1GLrt5U60o9OCiT74HI3e3YYWTRYNcPXuvb296h6ofp4H0JGVrpRPjFNZ4nzQj0S/RqgUQUcyyigRCYyzS+fM6Ud11BVIrvHj9YPEEdPDZ1ayvDIRjIgV/i4NRJTF3Y8d0YJ9/BxLJNzjUefxuCRslTwC8Dy687OnABNtJUxg+koMw3hLdYVk38k/LoqIgkAkHrA4w3PssV6R2LIwx2VR06VwoU71HJQog2G431H3cP3yvRjnaDQK74/6GBbm/LeXl9sZ1130vnGfjNd8yoKLB998840dHx/bdDq18XhsBwcH9t5779nh4aEdHByE9ZFIJO4vfI2UFhF6uVzeuVXobxv6EOKS0eMuQP2PbzJdLxqX3RYsFovqNA2F21TGxGboJB6g9RLFgpbpCvjbF1DkF1YN4iPwPRE5VS6+fqwIVvQHGFmzrxsli2tL/hQJRwKHz9fj9W88ViJITSCooUVAUL+Vt0HkhRAJPOp5l/KwjbaghCEk1C3PtCZQIDFnzxW8ziKC+qBQ4MKBWmxRrZeAYoHD10Xh9qbaNZZTiXpKOFBW+1qfU2qzqm9RAhqGrwmUeB8Lsi4kROuq8DuJ/bB6f+fz+WqRxNPTUzs7O7M3b97Y+fm57e/v23g8tvl8boeHh3Z4eBjWQyKRuJ+oTStVuOtE9CYD/0/63HvXERm/No3vNmHTst/GMt907JJr9n1enbdqNHs7WMet5XCg6tf844QAvQ88DK5yrwbenCYOmpVSWFL7mID4veh94MBBfkTYStbrkhW6VK8q3y1Ay2stPQUWhXChNl4XAMkWC0YeBstVGyi0KLRM0NWzj4QBnqffVzioiQgYJrJIKyLsYXhqDf5GQl16vpF4VBKVeOrGYDBYEwDUTgq4MKIvlMhigv+O6loRZA+HC69iPWFbw3puFXBU3Xtdczh1r6eB4gvmQwkbjkjEwvjRI4T7VPVu8n34G/OkyrdcLlfrHVxcXNj5+bkdHx/bmzdv7OTkZPUMz87O0vMgkUhI9CWiievBJtZ0s/tDDLfZpm9bneX7fHOxbRFhk7bZLB7gwJgXNVSZccsWbtXoIoIPoKPpBxEpUMSphdBhnJhn9poo3e/HEVHp8lC3IRiYrbugowdCqX6YJKu6RWvxaDSSi/cxafIwvN0gpstp9224/AxKwoGZrcShSBTgelHplZ6vul4ikVE7RkKI1nfeMSEiqtHce06fj5WXAAsGvAVjyQsBwynC6wMY7wPw2PPk/YTXR6n8UR+k6rj2fDAOJVr4vfy8IpER041ELc5TlC/OE8bl/S0LWFwGP/bFEtkzzL0R/PdkMrHxeLw2VS2RSNxveB+yKdG4bcTqNiNJYRvuc5vMNnJzoQxxm2DTZ91JPPAE2VLPZNzP4R+Mf9Q2j4rg8rnS+gQYT8kqzfnFuGsD902BdVTKy3UhIpUOJRixddRJrxKF1DOLLMEqT6V8R+KB2bu1GjA+JQD581dxtYItyZEwxiJMK6K65TKUjlV+kcwy8Y+u+X2RuMa/UdhS31g+Twet7hzWTHsr4TWVp1aw2MjtvgTsBx2lOvOyu4DCZcBw6jzGrfLG+S+V08/5NruLxds9nnPBxEQiYaanjm0aX2K3yDquY1uk7LYi28jtwCYiQusYtgWdPQ/UeXSFYsFgNput5s6ypcuhSFeJ/Jcqj8moIil4LVqzISor/nGyZTSqN7NYNCiJKKpcDJ6/XgrfQiycJDIBcg8EJK9cjxFZZUt6S3lrUKIBHiPpjcQCFeem+VL3R20jaqt90+gjxCiBYDAYXPI0UEJDKb7SNfSk4HfPgaKP2bqXkCp3RLq7CjQsevoxXuM0VDq8KKRKh+vUy43xq76lJrziPWoKA8eJ1/y3992qP04kEvcbSTQSdwlX8f+2TcEtcX+B4/OucMPQlYsHOCBliyJapnFRRF/nwOxtoX3NAyejTggico+oERMEx6vuZcHDw5Ssu9H96rzXC19TxMDTbhETVKNpaUhcx1x+D4OEwYnNcrlcNdiIqGGZh8Phmks6ExTPs7IW1/LO55WFmy3kHEfXP4uInCvhq7VMfcD1H4kgKr/qHSgJBzWRrkYqayKGaksYL7a9EklmMqzcsaL3o9aWmYRH7zP3IV5WXpQSf6vw/FuVs9Tv4HX/k1CCru+0cHZ2Zqenp3Z+fm7T6fTSjjjpxphIJBxJfm4X8nm1oY8BJ5G4Tuzt7TWvReXjwJatWVvRaSJrRIp4AO3neMqCex+4cKAG/hy3/2bixwNtJm4qvCqPInv+Kd2jXJNriIQDVWZV7hZso/NT9cj1yeQHSR6KAvx8ojrldPvm2+zywohRuFpdsUhQIpclq39Uplr8pTgZSniq1Su/R+xVcFV/pFF63OZq9VAiujUSzO8jE/hW8DuNgqTHh/0HvxdKSGDRQvUbpf4E+1rsh32f74uLi5Vw4EIv5kH10YnE/6+9r+txLrmq3v5qu78mk8lMQEnICyQIgQiX/AF+MJdcwR03UYQQQhOBEIpC8oTMTLr76Xb7u+334tE6s7x67zplt/vz2UuybB/XqdpVp85xrbV3VSUSiUQikXgeYMHyaFopxm4Y2x1yTL/Tbgu8or962yAQgFRikNrpdLYW8losFk2F+XhEHDxvXORBVm+reqP5uCc2RJ5Mhics1HjnIgLQRvBKAoJHGPldP3N5+tnLm/NnQUDno3O5ujI8e1q1LrXiSClNifyW8ip5zSMxq83L/tyqtdev+Td+x2fvHtmlbXCuXtc2O5FO1zRgMu195mvB30tridTURW3Gw3iXRcG8iADum3wvcJ04HcrudDpN9A6Oa0QAP1tZrN1sNveiDrCGARZEnM1mdnNzY9fX13Zzc2PT6dTm83lzHouAGX2QSCQSiUQi8TKAMdrx8bGdnJyE6VarlY3H4y3H0CGw81aNGPADqAB+U+hAdjAY2Gq1agaznue2jbypV80THiLSDPu9QTsvnKj5MlHRNjC7v7igByU/+pum2ReRJ7dEcDWEXPPiz6g/2gmKlhI7DvW+u7tz8/OiSkp14u9eWha5PHjk2svb64ORl1h/13xV0GIRRs9XG1SQ0b7v2eiJYGqLCi6wR6M2PFFAf/PuFb0/PFvb1gFBPrwtrO48ocKCtmOJ+Gp78rnebhGeUOFdY/7u9UX0UdwTmMblpeNyeFFF2MprRiA/FmW0fog6WCwWzZSF29tbm06n99Y48PpPIpFIJBJvGYf+v8vIvcRjod/v22g0sh/+8Idb426M8379618/Trm1CXmwr1vfcfSBkh2zb0kSCwaRdz8ikl70AD5H53N6vHteQU1bsi2KbiihzcMflbMPIuGglHYf+9hb3Ov1tqJIcNyLQti17SI7PPHHzPege21SOlZjR0Ssa8UQ/T0SDrzIlLb+EfVfzp/JqH72XjV1QdmldG392iOrnnjCzxaeAqBiAYsNHqK21Pp7U3HM7m9Nqtc+6ptsu9cGpX6kn6OIB+8zi3mr1cqWy6Utl8t7Yq72oRz8JBKJROIto+Qg2jc/z2GVSBwS3W7XPvnkE/vOd75jJycntlwu7eLiwi4vLx/N8VMtHmChQyaOZt8SSUQXYLE8BnvYeA2ENu+o2TYZibygNUTUK6v0gFBPs5axS5lqc1TmrkS25hxPHInSsghgtj3VwBNpeEFEFXfMbMs7zAICl7/LQ7VEzKLfSp+jvLnu3jXjOkW2e8JUqa9y+lJfi8qrEQv0czRVAdfK87579Wqzge1vC4HXdtW+o6IBf44Id9ufd1t0Am9RynkqaY+eL952odF9iDx0OhDDW2zRKztae0TFg8Vi0YgHnFdJSE0kEolE4q1Cx7X7gP9TE4nHxPHxsf3VX/2V/eQnP7HLy0v7t3/7N7u8vHy08qrFg9vb22ZhBgyoIRLw/GBAB8kY3E+n0+amnM/nTVoc43eAiYyiVtXTwb43KGZhpERONV+tu4YLa1rPg3pIlAieplOogBCBhRUlpEy0dK0DJTQ1D1XvOui7t0gi7xrA59e0TWknCI/weaJIVJeaOit5U2Kn62e0CWN6rfT+4nuQv+Pe9qY07IPSdAYWV9Q+XWNDr02beNL2nNA0er1VcEEaJt1tA4VIuME5XDdti5K4xYIsfsOzzBOrIBzM5/PmxQsm6kK3iUQikUh8TMD/br+/07ryZrbbWkmJxKFwCMGrFtV3xXQ6tX6/b4PBoLmh9KaKBsQ83QGLNnS73a3FE/v9fkhIdc93RWmwrr97Ib58DINu9cpG5Xpk4zkfGm2kzhMulFhFi9gBGg3ieYfZg+x5kzkvz27vmmqaSDiIBAa2N4L2wUjo4OvukU0VTMzatwXU45EHuCYfr709ESZa/0OJLl9j/f0hUEFA284TE3aBJxxEO6VwGi+yIMrXsy8SCtWWfZ5rLMh5zxpvHRj+jRdOhGDgTSkr1T+RSCQSibcOdqrUIKMNEs+B1WplV1dX9tvf/taur68Pui2jh2rx4Pr6uhEPlsulDQYDGwwGNhwOrd/v23A43BrUYqqC2TbZ6fV6dnZ2ZqvVyo6PjxvvJoQIJTpYSMwbDLcRzCjSwCMnsJNJMHsZSwKCEr7S/Grvcxs8L3GUZ5tn2KtL5Jn1SKfZ9sNRSSV+123oIps8gYdtqoWW45Fg7zvDI0teW6tdXh/g87QvaXneZyZyvPBkqXyvDbXObddBxSCNBirlpcSzto97u3aobRp9ENXdu1583ThKoDQY0GvgtVUU8aDH9H7hfFRgKuWjdfKEDoAXqeUXL5jI2zRCSKhZlyaRSCQSiY8B3W7XBoOBHR0dtabdbDa2WCya/9pE4qkwm83syy+/tC+//NLMzJbL5aOWVy0eXF1dNVMVRqNREy2AzxASeKBvZvduon6/b59++qnd3d3ZJ5980uThLXoG4SAa5Nd474Bo0B6JEvDqIWybCVFb9EKJcJRs29W7WkOK20QPFVVK4ofmievFIdQgmXd3d/fEF09kiDy2Jdt3RVs/KZEwDzXCBtqRow506kGN3V60gSeQqX1RX6jx4nvkvUaY8uzeBxp9oN+5nMhmPi+6J2sjhGqINETQu7u7Zo0EtdObDsQCjZ6nNkSfPfEK9WPhCaLBfD632Wxms9nMFovF1oKJuh6Nrq2QSCQSicTHBAgIn3zySZhmtVrZbDZ7dNKWSDDW67XNZjP77//+b/e3x4qE32naAsQDDJD7/b4tl8tGSBgMBma2vYCZktHRaGSDwcBOT0/vDVp1wAryrsTBGyhH3ngm/B4pUmh+HrmO4IkKT4FSJIKXtiR+7FqmRkV43ueIeNbuwNBmW6nOJeHAi7iojXjwohC8NikJTJFd3nFv6kPp/ChPtpGjCTSvXQUG7z7z6tjm8ef8awUW79yS0NBWptcvtE8jPZ9r5u/uEN1neMbVijKcR42Ao2sX8HQFnbIQCRCJRCKRSHzMwP/zaDSy4XB4LwphOp3adDq1xWLxTBYmPjZgzLZYLKzb7YbTFLCO1aGxk3iAG2gwGDRCAtYjaJsThDRnZ2fW7/ft5OSk8Xzx/uT68gbXEUmvERDwm5dWB89eeTUe55qBvdq4CzzbPWKo5Xnn70MSmFzprgS6An5kC951nYQoaiOy05uDr9dXr3vUfkoOvbL4N46u8PLz6lTqQ2qztq32Y0bbOgilSAS1t3Q8OtYGbtddHmQ1Hncl5GxXtABqBBYBdCFErYsnIqhtGnHSVvYuoon3PNNyeWcFXSRRow5q+00ikUgkEh8TOp2ODYdD+/73v2/f//73m+Pr9dp+85vf2GazsZubm2e0MPGxYb1eN8JVCY/hDKoWD3QBPW8HBPUg44W0IFqj0cjG47GNx2MbjUZ2cnJio9HIzLYJ2mazsdVqZZ3O/RVPSwSsjSh45KdEsLlM3S5O00Yezyi/UnmR7bukidKX7KrxDOvuAvisUxiQFr8pmebpKipAePZ69dIF/bzrD5Gr0+lsfea8Szbw3H+uK8hZ2wKbEcnFZ43U8IQDzaeNWPNxtYnbir/vus6B1tGrq/7edi+oKMC/cRi+1ydUrNLdP7ypAdwP+Lpz+3jhX54QxddSn5len+LfdY5kzX2sv2v5LBwsFoutF+q0Wq3cvpnRB4lEIpFIfIvRaGSff/65/d3f/Z1dXl7a//7v/9rvfve75zYr8ZFhs9lUL4oYOdwfgp33IOGBu85Z1wEnExCQkl6v18y3xYJdi8XCVqtVs+OClucNZEvE2yM47PlU8aDk1S6JCzVRBodEbbi39zlKpxEWbfWpifZoS8PkkNe5YGGKEa0e7+2y4IlHKmRFu3d4nmwvD+03nU6n2UUEdsFuPtfzFJfIOB8vRS94n0tpkLeS7DahoFaUqu1D3j0a3YulurCtUXvq1pt6LsDigl6/tvuPRcXSjgfeOSo2RPZ552u5yE+f1RAT8IqiDTTfRCKRSCQSH8YIWP9guVw2C78nEk8BjO0wjnsuVIsHvHAg5siaxfu/cwU7nU7z3ul0bDabNZEHJycndnt720xnwFaQ7PFTG5B/STRQ4qVporTedy8fRZTXoRBtLYf3EtHzoJ5K/Vw6DwRfCZJOVVBRgI8ruQE8Aon+o+0RRRx40Qc8vUYjD4BolXluX/RBr/2iNooWnWNCWiNGRdEHbVEHpXZVYQX29Hq9anFmF9T0tZroCg/etdd6l8LzOUKB7VSxycuPz/Xqw+V6aXgxRY7QiabF8HfvmtSsdxBFb8Dm0jMykUgkEomPEZvNxr766iubTCbPbUriI8RL2MmjWjzwyJvZfU8yoINtJijz+dyurq7s6uqqWTgR6TDINdv2AuoUCY8smm0P5mGHt5d9STBgYuuVoek0H2+gHZXptZOCy9Y5/koikU5XdvcIE++GoG3m1dOLKjG7v68tt1m/399aEJPz58iDNjKsC2eC3EIMiKJEmPTzqvZe+3F5vHWoEmy9XqWtOXUh0Ch03TtXyRt7xNlT7dkftWdUBrcft0/pPvMEK74GuI894UHr4tmIY8vl8l46bwrMZrPZCsFne7j/lQQJFZwA1AXv2p9ZLOMIAvR/tAffC8gr6sPoPyzsaH3YXs5vNBo10xWm06mt12tbLpc2m81sOp3aZDKxm5ubZoEnlAUbozZJJBKJROJjxfX1tf3qV7+yr776ytbrdRM5nUg8JjDefAnCgdke0xbM6rzskZCAQSq2DMON520TVmOHR8qZWGFQX0vUI0EAOz949fNI9y4Dbo/kqxdRBRDPbvWYaj28a+IR7hr7ojI8kSbaKYDz8Ly+KI9JH+cJktvv9++RSaRVwUAX9uT6R9dRX9qmJTFKxZG2NiuVq3mw7R7ha7uHvDU7vCgitifKp02ownHuD+yRV8LvCVZe3bXMNrHE62NRPtouHEXj1YvFA76mOFffvXqUnlGRmKTnwV4VG7D+wXK5bBZL1PUOVIRM4SCRSCQSiQ8r19/c3NzbjnE2m6WAkHh01PDip8Je4sFDgAG2DmQXi4UNBgMbDAZbi+i15eV5j710AIQAL//IA6+DeCVu3vF9UCI9bLNXRk25HuGIyNiutirB9eCtBaC2lWxRYQLeWmwRqkIAp2EhoRSpEtXLI/ElgWxXwFaGEnmvr6noogSX00TlPtT2NkSefr7fdHqLHtctEL36sDCh9dF28sQGfueoCc92/IbzeQ0BFfvMthfcjESRkkCj9eH6Ii+O8uF1DfhZO5/Pm+iD+Xx+T0DgNqwRFhOJRILxmIJjPosSz4XN5sNuCuPx2P09xYPEx4SDigee55aPK1mYz+dNCO1sNrPBYGDD4XDrDwLkD9BBdhQBwKHXtR7U2vpFv7UR8ah9dknLhKoGbUS8dFyJE5OeKIogOsYkh9fP4LzaiBryUfGA1yFg4szh4JFHncUD2BhN0VFbPFLv9S9PjOLvWg+vHK99dL691sETEbz89XME9Ujv0gfVTpzL66ewrRza3+/3t+zXHRei9veEQLWH64Z3neKg5+J6qQ18PbX+2l6RgKFTiUptyum0bXiXBV4kEds0zmYzd/2DtmdXIpFIJBIfE1arVfOfGUH/ixOJQ+El9qlq8SDyuuGzpo0GoTw1gbcP00FsW2N5RBPlei89VwkZ2xzZzx5Fz75SvQ8Bb+qEVzfvc+lY9FuJSChJL4kJbaJJ7e4KvHCdbivoXdNer1cUD1APjyx6uyfANq0ji0ZRf+N3XbeCRY6oDdlmDn/3PPcoYxeRaVfsmq+KB3q8lN4rUwWHtrJ3tTu6x0tCThQtVYoq0HsjEiA9EdTMX+QT4gFHH/CLBYVIgFH7EolEohaP8b+Tz6LEc4AdSiXxACjtYpRIvBXsHXlQQ7Y1PQauZtYsnMghtBjU8iCYQ929OdqcRJrLQwAAV1dJREFUP37zVuL3xA8VAngRuIjweiHJh8Ku0QQlkhql2TUfgAmKEugaoafGo6neVz3Odnk7Aei5vKBiJCZFZDzq09w31F6vv7HQov3K66teuyhpjGxVEolj0RaAbaLOQ+GJBGqL1978Z62kOCLLXrlant4f2j4AT5Hw+rY+WzybagYQLKRGCyaqvUjDCzdCCID4il0VvMgDfK8VatOTkkgk9sGhxklJxhLPCfx31ggHQPbXxFvHwaYtKNnyiAlIAQbcEA9ub29tNpvZYrG4tyI58lWCFRHeaHX4ktABEhF5aw9JrqK8SgQb2PXPuC1PJlBKVj3RhO3g70pulTC32WhWFqDYNp47rn1Ct2DEQop8DufD9eKpFCWvtoooXE9PvPHqwPXmBRyVfDK4zaP+y3Zx+mjBSs5H75VIbOH6lI6rgMFleuexOMj17XS+jQKJohcgqHAa/cx1VBu8/ss26DQWFhBx/XiXBd7pJBKj+BnnRS14/coD54Py8I7ILt5hAVPElsvlPQGrre8nEonELtBx2K7IeeSJ50LJgVB7fiLxVvHgaQsqDpRIE3v6EIWAwS2mLjAJ4DB9j9hwvvzZ8+R6YBLgkRwPXmh52zmHwD7CQdvvXht5BNh7CLb95gkINWJCW1100UMVDlQ80lXn9TwlbdzvPK8rk0H2UEdEvK1esFOJsUf4vekhXjmRwBaJCHpO6d7xxAE+Hn2O/khVMPHuL10kMSLZ2oZeOj1H68+E3YtEis7TiICorlrvElmPnnF6TiTi4BkLkRavaGsp7zmYSCQSD4H+B9fAiwhLJJ4K+l/9kHzy/zTxFnGQaQs1x/EbRxRgMMuLJi4Wi60Vw/v9b01UUqTe5DbPrxKANlIbCQUROYuOqR0PFSZKZZQEAS+d16Y1edZiF7vb4EURqEBQ2l2hRJA9kUBVZ68PeX8OXru21dmLZmCBgtvAmzai4oVGH7C9KiLotIs2eF50LlvTtAkHvFifCgg45rUxl8U2tP1ZR79HfZ+nJnB5fI17vV7RSxb1Iy6XxQC9b7gsFbAAFbGwQOL19bW9f//erq6u7Obmxm5vb206nTZTxDyxpa2tEolEogbdbtf6/b4dHR1Vpd9sNs0uXInEcyGJfyIR48HTFjzvV4kg80B5uVza7e2tHR8fNwNabB/mDaA1H/bcAtHifSUoCdgHbM++JLlkty7a55H+UhtF9kZE0rOpRJS73e49r+u+goMHLkcFAf5NX5FIwvBCvpHfQ8QD9baUiBoTeE3nkfBS23r2eMe5XA9R39E2YU+9lhcJWSwcMDGvEeS8fs35ts3lr+2XSMe7K0QiBvcXTFvA+d6aCGbbbQ+7VTjxRC6d0qVtCiCy6+bmxq6uruzy8tKur69tPB5vRSDoVo1cVtTHE4lEohYYW52enhb/c9brtd3c3DyhZYnEfeT/XSJRxqOteRCBB7oYuCICAcIBrwLelpdH0iIBAQNhPc8jSTUPj1qv+i5pIiixaCOSNQKGhvPzb2irEg4pDtTA88aWiGSbAOWFjWu7el5h9pJ7+baJB1Hf9oiiEnFEDuiaEyWiHP1WWoC0Bp593me2hY8pqW4THPm7thWIO457ZL3Un9uuB/cPjRDwBCxF6ZpzvlE7sNDH6SNxysyaRZ44wgvPWDx7sYCiZ1PULolEIrEL8HwcDoc2GAzcKATsvJVIPCfyPy+RaMde4sG+ZEPPw3zc6XTavOAR6/f7xfnDnCcTNfag82J4yMvzXiM9wwtZj+oSeWjbbGbUiC/enPBdr4USaxVUNE9vob5aYeWpH8JtIpDaw0SrLVpFrzdIvJdvJGpoXuo9bhM7GNH0BS5fbWu7fkr6S9EAEaIIFu0P6kH3ohn4XK9vRp89oo/yvON6HpfpkXZv3QmOUuGpVp6gEdnsCQhavpde21F3YODnK3a1QVSCF/mhAmIOphKJxCEwGAzse9/7nn3xxRdbx9frtV1cXNi7d++eybJEIpFI1KJaPIi83rXgwS0T/cViYbe3t3ZxcWGj0cjOz8/t888/t+FweC8UnuezM8nBQBl24ncexPPnKOJAbfSOt0FJThsJ8tJF8FbEL+UN2/l3j9CW2oM/8/Z5HmGJ2sLLz/MmKzzbd/mN+47nZVfhoC2aI6ofE+M28QLfvftJw+05XyXEpfZu66denwd4kUBve9Ta/hpFyqht0UJaNdfioc8h2OnZhgU41XYVe2AfH+cpDpw/6qoCAZ433jFey4NtQTom/7w2A3axubm5sZubGxuPxzaZTJopChwh0elsL/SoUS06fSeRSCT2xWAwsPPzc/vbv/1bGwwGtlwu7ec///lzm5VIJBKJSlSLByVStAsw2MUgF6G1WDRxOp02c3GZTLH3mwffEckoeX0jol2q7y71bhMIaoizwlsYsvZcTov0TI48L2sklqjXdhfPJJOsXepREj5KXnQ+v21NB68eJSFlVxu0DK8ekQ16LIo48FC6R0rn8f21T3+NsKvIVDpWC21X9fLrMyby9Ht21wo2SI93T0RBPm3PHi/qgPNdr9e2XC6bRcewkw2eqd45nk2e7YlEIvEQwLHzwx/+0Pr9vk2n073XmkokEonXhsccTz2Vo+dgax7UgAe27N3vdDo2mUxsPB7b+/fvbTwe23A4tJOTk3uDet4TPSI4IMFR9AB7AtnTGi3k4wkXjEioqCFg0bm7Qj2inpDC7aLlex7gyGuunz3PfYSSoOPVR+0v1Z/fPa+9elj1fPW4RmXoZ7U36keR990j9zUigua5i5Cj5ZXQJqxwOj7ukfHSgpxR3tH0Bi+9dy5sUzESv6kN/EyI7iWvLM5Xy1PRSNvBqx8/OzjqB5FWmj9PVcBnpOMdbPB7dE/jeyKRSDwGut2uffe737X1em3T6fS5zUkkEoknx6FFhKcct+0lHuxjoA6aV6vV1nZ7k8nErq+v7eLiwi4uLuzo6MjOzs5sOBxav9+/Rwb5VfKagRirxw35KLHGZ85fV1oveXO99omIvHfuIaEEyAuD1nRKYpRUex5bPd5mk5arx6N6RIiuC/8WlaGEvs3+6HfuS6X1E/bxqqvdut5B5EnX8w/xYNnHO80igkY+6C4ipXLbyK0nImCrS+3PuB/UBpyrgqJ3z+sxJvGebZ7IqdfGExz0WrMgwALBcrm0+Xxui8Via/0YTu/dH22iWNTeiUQisQ+Wy6X98z//s5l9WChxPp8/s0WJRCLx9DgUB3zqMVq1eHAIw3jArR5BDHjH43GzbSNCbTmKYL1e3wtx00G5Ev1aj7ymU+LcVjeUvUv6WniLJdbC8+BHJIZREgf28XJ79pTS7Jq/2sfHo/JK6aMySr8x4WxL/xDUbElaErG8e0bTePlxP9+nD+vc/Vrs0h+8/q3bm+rvnjDA6Vmk9MTCGlFI+71ngxcxw8fxTNIXRxrwVAWeruAJHZ6dbfVIJBKJfYHtY3lLxslkYsvl8hmtSiQSiafHQx3JJYfpY+JJpy3A442BLJP06XRq3W7X+v2+XV5e2vn5uU2nUzs5ObFer1c9J06nNTApisL1efcFzoe9kzxw9zyIaoMej7zsbFObWLHLbgtKgHSHiZoOq95aT0ioEVdq2sEjZLU2cph5lFepfl6afW7AtsiHtnMjlISaUsRBKX8mo1H5XvvAU++R3Zo61eygEkUVlESZSBhDWn7WqEDolVXKL7K5ZntZLgMo7ZyhwoG+eKoCdq65vb1tRNjJZHJvC1yOQojEQbUxkUgkHorNZmOXl5d2eXl577ea/4ZEIpF4S1BuuitKEa+PiScVDxgasosB8Gw22xr4fvrpp838XC/qAHkhH3gZuQwlonyxsHCgEgleD8ErKyqfv3vEo83bzhEWh0bJ88lgUcDbVUGFgzbi0XZTlNo0QtsCiFqfts+7lu8B/Yy3Bd31XD2G91ovMbBr2bVp2oSZKCKh1Ndq7eF7NLqvPHui/rlrW3qRASXRpkZgUUS7P9TYhoVnb29v7f379/b+/Xu7vr5uFqLFNAZd8yASATPiIJFIHAqbzcaurq5axx353EkkEh8TwP0Gg0H1Oew8eo5n5pNOWyjljdBbhNzOZjObzWa2XC5tMBiEi6aVPNZKutgLzy8NT8Y5LCDsSzzYxpfsyYuIavQqCQdPCdiBue01HvQaYWbXKSJKMLVcTrML1HZ8j+pQIthe3pGtng2cX9TWbb+1IbKjrX9FIoTXr83aRbzoeEmcKCHKs22Kyy5RD1jzAAICBNjZbGbz+dxWq1XzUvEgkUgkHgsY6NYsjvhcg+FEIpF4LsCZXROFgDGf5+B+Kjz5bgvwyuqWgIg8WK1Wza4Ll5eX9vnnnzcNikbVyAJ8ZjDp18gDFQ9w3PvD0ggEJVB4bwvHbwtL1ygFDmVm+zF1oZZUoGye8lAiWvziiA/Py+qRj1riyvUqed0ZpTBz7VeALjYX5a02RyFANfWKhIcSKS3Zpb+Vdijw2rJE8rnvla6lHvdECi07Oj+qV3S8hvR71zYSbzwbS7ZEYCHN85q19TO9j/Fs0j8Evvc9QHidzWZN1MHl5aVdXFzY9fW13dzc2GQyaURZ/OlgSlZb3XMgn0gkHgKsv1KLfOYkEomPDd1u146Pj+3o6KiYjte1ei48mXjAg9Rut7u1CjpIx93dnS2XS7u9vbXr62u7vLy06+vrRpHBrgve7gdm90lbiZTpAH2XPyvPW1fyMpcIJ4fft5H7yKu+63HY5Hm1vcgCtcmLAtm1/WCDHqs5z2v7EsEqiR2MNntK15SJaUTydumfCr4mes6+ymNt+ZEo4OXX1rY1iqqmK10L7cPe2hxm3xJ1Fem8+yCySfPU+4XVYA9cNk+XUvtL0SP63MIzU9c7eP/+fbMoGRYjw8KJkchReoYlEonEPlgulzs/S1I8SCQSHyN6vZ6NRiP77ne/e++3zWZj4/HYbm5ubLFYPIN13+Jg0xZq/xw84scDcHjQJpOJjcdjm0wmNhwObTQa2dHRUbPgoq5/wBEEnk1KflmAKJ2zz5SDWuHgUGjzBPN7iYDj3Xu1lf9Q22vTRmVqG0Tne3WKiChD29f7ndvaq5Ou01BD1pAmEg4UGslRIyLp9yj/iNAeElHb1vTBkhiGfCA+ar29fuGJJnr/RKIa266fPSEDEQfRWitsP154Xq5Wq2a7s+l02qxvgOkKbTsu5EA9kUg8Bh76fMlnUyKR+JgA5/r5+bmNRqNmHYTlctmM8/bdee+QeLLIAx6sR8QNXrTxeGzD4dBOTk7sD3/4g3U6HTs6OmpCObrdrt3d3W1NPdC95HmAzgN9jywpoVCygu8oUz2cml8NIg9rm8e7lF9EBHGcF/LbbLb3t488qJHXtSbaYV9BqSZdm4e4dH60sj0QRQ9EdVNhAX0kqv+hFsOM6svh6KVroMJSW1k113Mfsa0Gmp93r+j9i90F0J/xG0+BYlGNowb6/X5zTMP7S20FQo+yIHDqM4nFTr4OeMZwPZCv1xZYZBbTFW5ubhrRFQLCYrFwIyJqBMIcvCcSiX1wKGEyn0GJROJjQrfbtbOzM/vzP/9z++M//mMzM/v973/fvF4CnmW3BSzuxQN5sw9/EgjBxWD466+/vjcPpNfrba1KyWsimG176FAejvMfkZI8PkfP32w21uv1Gg8eH28jtR68cGRF29x5LUsFFLQvbzsJcqIkj0mEbuXGIoLmiWP71rsG3iBkH7JT8hqzfUw29bh69L2IBG+RTa8c/V5qm8hWj1SWIg3wOYpOqBnweUJCdO9o+WrvPiIQ0ujUGuSpawnw9oRmH0Q0b9oA93MV2jhNVOcI0XNJBahOp7MVisaiKAshqDsWmMV0BUxTuL29baINcJ63fklbH81BeyKR2AcZ0ZRIJBIPw9nZmf3RH/2RffHFF7ZarV6McGD2ROJBRLDYK2e2HX2Axb1ubm7s9PTUbm9v7fz83Pr9vvX7/XskGNCtHEthxKU/NyXYGnL+GFspcp4cxqzQtuTj3jH9Xb2pKFvJRfRieKT6JYJtL4kHbZ5e/V4i4W32aJ6HDEXybIwECM8etTMST0rlenlFQl7buZpPKRLAEwS1PdoW2NT7fVfRS8vVfEp9SsH3JUQQbNHDoWyTycTm8/nWzgoqBCI/fk8kEolDIZ8riUQi8XBg3Fa7SP5T4smnLYAUewN+vOBNG4/Hdnl5aUdHR3Z6emonJyeNV3c4HN7zoOoODl5UgOcF5EF+9MfneQ2ZADHJ2gWRsIE28lb998pA50J+LHJEnz0BJIo44LbU+fceGTnkACIiO7tEH3ie95oy+bt6ihm1otQuZR4KkdgRlekRexYgvD7b5snW+xHpawQIz9uvURecL0ck6HQF777iKB0AnvpOp2P9fv/eOgUcyaPl9Pvbj1X87m39qnXlaAM9Hy9EZ0EwwCKJk8nk3taMpcURX9qfUSKRSCQSiUTC7KuvvrLFYmG//OUvbTweP7c5W3gS8UC9lxgMR6HNCMedTCZ2dXVl/X7fhsOhDYdDW61W1uv17OTkpBnAY7sKLDShZUZeSM8riXPZPrZZPXn82mUwHpGHGpLr2c1bOJbIceQdZ2GgLdrAs88Takr13ge75hmRpkjwYPDcc7M4yoM98m3Xv40oP4TQlaYMRIhEgJr00e9R2TjOkUFqa6lfRtEEfG9qeiwmGNnj9QmUAVGg2+3aarVq7q1oH16e5sB2aKQFixTeGgjIH1CBhMUDCKyYroBtGW9vbxvxAPV4LGEqkUgkEolEInEYrNdru7y8tMlk0kzRBy9+KXiweBCRBY9IeESTvXKcjufzjsdju7q6su985zs2GAzs9PTUlstls30jwnixEwN7JXlqxC4EyyPDDx2E70IOo/KUnNTkF3mbo/rVEMiSUPASiEpbHaM0DO6XbZ51TlNCTb/bJb2mLaWviY5gkvsQsaCt/Ch8n20olcfv3jQcFhVq7xXvnmdRgsus6UeaxosAQn6l9mBbIIiwgMARB3jxDguJRCKRSCQSiZeN9Xptq9WqcQoxNpsP6wK+hHHdg8SDmsG4JyAoifNWp7+7u2sWTjT7sKo4pioMh0P79NNPt9Y+wBxg3oUBg3JeHA1ePk7DtuFdpwuUogBqUCJkJcLA5+6DiFAqseLjUTRBZB+nLaXftw5tEQ01kRGRjdG5unYG0qrH2qw8hUFJIUcp8LWJ2s679lH++FyKmOC5/OwVZ/D9+BAxw0NpXQcvEoD7KQsbnBeLhdqOWDBQbfDansUCvv7e9Ag8U/gZxlFJ3r0FW7UNWIzw+qaKBrxA4tXVVfO6vr628Xhst7e3NpvNtiIPUE4ikUgkEolE4uUBu2OVpil409mfGo8+bYEHwx7R8Qa0PFifzWYNmb+8vLThcGjn5+c2m83s6OjIhsNhE22AaATkq6LBLiHdDA6RVptrPfaMNgEBeSlZiqInotXcS+VxOV5arZdHwkv19677Q0QQzTOyu3RujWjQhkjxK+2WwaJVqT96/Uv7QJSuBI/k1kQpcLmRbfy5zXse3UPIP1q0U0P/+f7QKACkwxSmfr/fkOjVatWk5WkIXh1VPMBveGjzw1vvBU840D6gbab3FMqFcMALI97e3tr19XXzgkI9nU63RAMWM2oiSRKJRCKRSCQSTw9Ei9ZGyT7nmG4v8SAKNd7lXI+E8OAZhGG1WjWDbHjVMEgejUZ2d3fX7MkOkUEH6Yzaxi55j70wafxeuqARed7VW8/HlKBG5bJ9beVG4oCZT5J3JfKvBVF7tbUBrjP6opltTalB/9T+4IkstYILX+Nol442cD+P+rYnekSfvbzb7FcCzs8CtBmLCWor29br9azX6zXPBbzzddhsNlsCAl8fBgsb+F23Ky3Vl59JGvmgbaDlsoCwXC5tNpttTVfAlIXFYhGuc/BQ4S6RSCSeA7v8/yUSicRrBManu0QVPKeA8KjTFqJzeOCu3jd+X6/XTQjHer22m5sbOz4+tvPzc7u8vLRut2tHR0dbiyQiP5AGz6PnEQUl5J53GPljmgRsjMrxEHmRveORgOERk4iM8OruUdlqB7e/500t1dWr+66ecg/eTVIq6xDw6uiFsHvf264zt0kk/Oh9wcc8e1iQaJsT5XnrozK9+mn6NlGBEQkbWma060BJMGAxrdfr2dHRUUP0EXmARRQ5bbfbtcFg0ExnOjo6aspE1IJGRvCzQ589nl0cCaXPGLZD7zldJJGnK7x//35LUFVxJCMOEonEW8e+Y4t8NiYSiedGaXe9NrxK8WBfRKRVf2Mic3d3Z7PZzG5vb5uB82AwsOPjYzs6OrLNZtNsqYbV0XkQ70EH697q5yp0RCRcvaRt9S8Rfc9OtqWUr54XRRpEXk+tC+9775HlUvRCVIddUSMS1NxAStpL5+xzE3vXh/sRvwPc9/h3vVbc/ziNdw0i4UvLjOrAZdbU1yPBNVDBzouY8GzwxEa+T73pIpjCwPnit263a/1+v3l5u7aoCIffvPUU8M7l48V2lYBysM4Bpiwg4oCnKmBnBbZNr8dzKtSJRCLxUBwyciqfhYlE4iWgZprCS8SDxIOIIB4qPz6+2WyakF3sa35ycmLT6dTOzs62vH68eKLnDWWiXiLs3nlqa0TgOF1tu5TIfQTeojHKK4KSUOSnns+ojnosikbYFW1iwUv544+ukbfYYg1ZjNLU3GfqlfemRUT5qaBSQ27Vnl3OKU2r4LxYUND7zasH/+5FJ3iLIOrCqkrykQbPFc7Xazek5ykKuoBrZDN/hmCKF4sIiDKAcICdFaLIkJIAk0gkEi8du/4n1eCljCMSicTHi0M6dp7ymVYtHuz74C6dp7+p59KLPLi+vrZ+v29ff/219Xo9Oz4+ttPT06bREBrMC6QxWcHcc+Sv86dRHhNyJtb64nNxnhduXfrz26Xz1Ao27BXVaArNp7RKfMnLqrZH5KUUOVESZLzj3nl6rfYReRTedeT81GteW0c9N/LWe6RP68wh87g+fB2RT2magJJttl/z53OYcKMMtlmnU3AEC4sC3jQQ5IdyuE4saHF7M3nXSAQWDvr9vg2Hw2ZdADwjsKYAtz/Xje3h6ALPdr2OfP/x73pvYcoB3ufzuc3n82brRUQeXFxc2PX1td3e3jY7K2D/X5SDqRmeTVp+IpFIvAaoCLwP+NmYSCQSLwGvbTy2V+RBrSfrIUqxDrI3m43N53Prdrt2fX1tf/jDHxoicHJyYsvl0s7Ozpo/FoQiR4N95KvhyLUX0BM6PCLteSk9YhgJJx7Z0PN09XyQIaC07SA+a6SBpuXPpW3o+F09uGbxbgVRHb12bLOvJB4oqVWwRzoSEBheHSOPOH9WYcrbXtHrO1H5nJa35+M6eTZpv1exJypX0zK0PN5GUe1WW/gc7scsHvA10nI4kojbRoUJpNeFT7VOKgrxKxrEelEG/KzRa8/XAMLBarWyxWJhi8WiWSiR1zwYj8f3FkpUYVOvLbfBa/ujSiQSHy/0P3AwGOw8vsRzNZFIJF4C2rjCS8ajrXngDcDN4oapSX93d2eLxaKZuvD+/Xs7Ozuzm5sb63Q6NhgMbDgcNgN7DTNmYDDPax54JFQH+oxoxfXSOSV4xI3t8f4s2Wu8K2o6rvedxQO9bl5bcHvoNJGavtFWN08seCyURLJStEBNHfh8rw95fUCJcNt0nEhoUWLpedDboOKMkvbS9fXuP3jhdRFBtknFOC0T8EQhL2JE+7D3O757kRl8PGp/r4+wOMJTFfS1XC6baQuz2axZ7wCigycEtt3TiUQi8VIR/e/xFLM2RA6PRCKReEp43O414lkWTNwXWHV8NpvZxcVFQwCOj49tuVw2K6bjzwaeQZ6qwASrRLbgvfU8kZ6XmG1kj7XnOY+8m4yI2LelRdmRt1qjDaJ6qc2cnvMvLTLJ+Sj58whaGyIi6g0Mdsk3Qs3il559JTGjlGcUlaK/e8exu4g3mIrs8cQDJejergBeXTlCwEvDfYQFD60HbAIhXq1WWx5+jiJi29jb7tUVULEPiyhCfOz3+1ttCZs0woPPZbs0IiFqb7UJ5B9RBqvVyubz+Vb0ASIPbm9v7ebmxq6vr202mzVTL5bL5b2dIVI8SCQSbxGDwcBOTk6q0t7c3DyyNYlEIhGjlue9FjyJeLCLR1nJUxQWDRHh/fv3dnV11UxhOD4+3hrgM4nHwmdMYDTyAOXpdmyenWoT/8ZESPP2vJgRsSiVyW3FIkgJEbkDWPiIiCyHeus8bi8kW8toQyRaRGl1Pn2taFBauK9WOCjlUZNnJAgBXiSHkuZS//REFe+42uP1W7PtdRD43mq7ZxnROgcaoYK0fD8hjW59GNXfq2tJaPLO42cAiw26zkMpfz6u/ZqjDDAFAS+vz2g6XlhRIxBSOEgkEm8ReG5/+umnW0IuYzab2Xg8fmLLEolE4m1jL/GgNoS5lK6NvHhpeRAO8WA6ndp4PLbhcGinp6c2nU6bgT3IRa/X21oLAeRESRKTTy86Qcm+kioVEGBrRMQ4r1KbaDolWqX23eUaRGJBG9mKCFckINT2nwhe3XeNEjg02vp7dA4jOt8Tmzit58Fvu+6lCIfIJg3H1ygX9tbj3NI1Z3Kr0Ty4XzFtQW0q7dbAnzl/FiQiRPcqiwWeDV5/966DJyAg8kDFAG4f73nC55XWOkgkEom3itPTUxuNRnZ0dLR1fDabmZmleJBIJPbCQ6OXS3jt47ODRR5E5OAQoRo6GO50Oo14YGb29ddfN2HTg8HAzs/Pbb1eb01bgJBQspU9nuxVRD7qAdUIA/XIat7cJnh5i7oBHlnUMHKQDPZA70LOS6RXiQjOiRaKi65rrWdeiRXgkVHtDxxJEgka+9pVC48o82eEw5vV7e3q9ZMScdZzPVHKE69K37lMjXjQc0pbEqqotNlsL+yI+4zrq2sKRNEOmhfK8SITvKgHLx/tW1FEC6fl+wXlsg36fOA1DnhNAxzj8hExxe2BBcB0l4Zake61/3klEolEp9Ox73//+/YXf/EXzbHNZmP/+q//are3t89oWSKReO3YVUCoGXe9hbHXo09bKDVSidRE52OAv1wum4tweXnZkLHT01Nbr9fW7/dtNBo125bpnGhvez/1ZHuEgcmTt9I9rwbvkV6ti+c15nK8F6Ce37a29Mrnd9Sb2wT5a528fNQGz2YtV9u+rb94JFLJdW39S1MOavom5wPwlA5PrEJf8Ob9c5mcJoo4QHnIRwmqXkPPm675lK6bZyd79JlklyIDtN8z+fbqw+fg3mPRDCSa720Q7tKq3N714fby2kLTal/GuSw4egsrcqRAtEaBls2CAU9r2DXi4C38cSUSiQTQ7XZtOBza3//939vFxYX94he/eFSvYSKR+HhQcjy3ncN47gjpQ+JB4sEhH85MbNiL7xFPCAjA7e2t9Xo9Gw6Hdn19bf1+346Pj+3s7Mz6/X4z0OaFE73yeeDN0xU8O0qEpGbdgOhc7qTeYnVtXuddr4kSNrNtItQmTvC10npwHTg9l+GJB9GN6hEkCEX73Ny18K5/BCbSbE8kuvD19IQyT0zyoKSb8+Dr6QkRHkGuqS/3yUj08tKr2Mbg7x6J53rxtoaeeAChoXQPenXw+mIJStg1z0hAU+LP/ZvzUvEA4gnqr+JBrZ2JRCLxVtDtdu2LL76oiuoDdhmfJRKJjxdtY3AvPcPjSq8ZL2q3BU9AMPPn1TPJmEwmzbHRaGTL5dI6nQ+rpzOpYG9mr9fbIp0ePBLmkT0vGgCfmUSqR9ErT0m358VtW3BObVJohITmxwSl5IGvqQd7jr0yPG+pdy6LRpGgoVNA2sjSLtMWdhEQzLYjV7xr49mnUwGY8EdCmooV/Bu3GRNiTs+RAjXXV0UILduLIvDqzxEaWncm0nd3d030gCdMcJ+AoIjpIfiubaM7I0TihNYb52gbczvy9AJ81zw8EYCFAAD1YHGB10TQqQp6jdne0m+JRCLx2rFer+0f/uEf3pR3L5FIvAx0Op2GM+46dlKH91vAs4gHbd6x6MIwkdL518vl0iaTib1//97MrAlZxoJrIPU4bzAYmFk8P/3u7m6L9HreWz6PCSHIkTe1oaYdlMwosWJbABUbdO2GXTyoUQg1o8azjjyjNSBUQOB2jAgdky6PhGo5JdRMW9jnIYHzoiiE6Dy9nnj3iJ9+1/7q1UG/83ubjWgrFSw8cUE995xG27zb7W6tM6B98O7uzvr9/lbovyfEMFFnu6LoBZ7awCIf7Pbuc62bCncswmh7aqRBKXqA89RtI7lf8LOFz+U81GaOiErxIJFIvAVcXV3Zl19+2fxHbTYbWywWz21WIpF4Y8B4NFr7TYE1rVI8sKf1WHmEyRvUY1/08Xhs3W53aw/go6OjRjHCXu7q1VdiogNuvJdCkRlKzDwCzWSvjYQDEeGuhXq7PUIUeeyVIKndntgSiSYeWfS856XzvH7g1bGENi+FErE2AUA9uxzt4oEjDLg8Fsq0vpGY4NncBs+br/lE9cOUEf6dvf2og5JcrjfboOs0sGedbQSZ5rbid2+hRU88QNm6OGOp7UriAfJRUSWaDqQv/M5RDLBV89T7zbtm0We2JQWERCLxmrFarezm5ubergoYtCcSicShgAiEo6Oj4tgeY735fP4mx1nPEnlQ25BKxJio8oAcRGW9Xtv19XUjIsxmM/vss89sNpvZYrGwTz/9tIlIYFEAYdFKKFAeK0bsAWSvJSve7AXEcSXWXBevntpGOi9a21O9rShHw8f5+GKxKM6VVk8qe0PZLq6TkrYSAVVPKrcH/+lzO6MMFoDUy4D08Nqij6B8bys8tgF2eJ5gJp8q4nj1rRGYcA6IMv/G53P/0rpyGraX7dT6QEFlzz7s0OuD6B7UFefwvYedAvh3zo/blW3lPqAh+Xd3d82uKjolAPYNBoN714OFBb2/0C94Bxb9rqqylx/bUZr+gPosl0tbLpfNrgpQo3nBROSFumKqwnQ6vWev2qDwRCbe8UN/Q36l74lEIvGS8NVXX7WKvYlEInEodDodOzk5sdFotOVAY6zXa7u8vLTlcvnE1j0NXtSaB7uCvXgYaE+n02ZQ3u/3t8jMer1uohCOjo5sOBw2+ZjdX6MAiAbUSpYBJcIe4ec66OeSl5vJA5MGTc8klNuHvbmar3pd1SvteTtLf9qRd5MJeBQt4HlVVbhAHnjnyBDPBvVUKxHn9iyJKiV4dqMsLy3XwQNsxLQEtbVm0OQJCZy32uZFynAkgfdCfkpYuc29CIRSm0B0QLkQE7SeUYSB3iOcv04FUpFM2wD5qcAEWyPhwFvbgNcp4OgMlNHv9xvxACIaRATdZcFrv7Y+W5OG68B1TSQSiZeA1Wplk8mk+GzS//xEIpE4FM7Ozuzs7MzOz8+3jl9dXdn19fUzWfU02Es8eOpwV48kKelWb7qZNWFs3W632Xnh9PTURqNRM2iHN6/X64ULrMEGfldoNIFHwGpR076RZ1o/M1EDATO775HVPEvEKIoI8eqhefN3Ds3HMY3O0O+6hgSn8ebgl2zSKIjIVk3jTdvwPkft5b1z5IraqNEItVNnGJyWCTT6KYsy3M6ROKXw+roe4/JKeeIY746iwkQU2aLrF5TWcmBhBt+1DVRAYHAkgP7Oz6TSNAU+DyInFnPl31iA0Lp7ouMhBYREIpF4SUBEV+084nzWJRKJQ+Po6MjOzs7sBz/4QRPBPplMbLFY2O3t7Zt2uuwdefAcAgLKZRvMtokw5mHDQzebzWwymTQ7LyCc+uzsbGuROQ5zR0i8t/gZH9cBOBNcfGby4S1qxnWLUOP9AxHn75y/ignewmneZ69MLkunE8BTygRHpzxEYkFECDWqA+3KBE2nj/B5KgaxV9urr4bAR2BvPB/TttL1HDzP/WbzIWxevcqeh3kwGDTEdRehic9B+2BBUW7DEtHWPKM2YhKr0R+eeKAkHO3V7/cbwgwCzQNH5IVQfyyEqiICxBHY4g060T95OobazFMndLqIPo9gIyKhMG1BbUc9OfIA5WMqCKY68HSHUkTTvoieSzn4TiQSLwVvNRQ4kUi8LgyHQ/vrv/5r+9M//VMbDAb2T//0T/b73//+uc16dLyKaQtemLMSNs8ziTna6/Xarq6urN/v22g0ssFgYIvFohEPmEgiAgFTGlQ4KM1tZvKppIlJLZ+zD7xBfRRFoOmUFHse8NL5aM+S0ADixPX36uwJQvheElnwrgQq8mJrdAPe9ZrA86sh+nxtS/C89YC39oS2HQQEfGePuBJFniOvi/159WeRDHki/7u7O3enAgDlQPjxrjeXxTbrZ09Q8NpWI0xYTFGPfkR4dV2SSPBg4YFJPPoHT4dpW+dEbYOIycRfBSG2r9TXWIR7CGoFzKcWiBOJRKINOQUhkUi8JHQ6HZvP5x+VqPkqxAPAI4DR4FYJ7Hg8tqOjo2aRCxACLJ6IAfxgMGiiF5Qg14aL43dvjrhXj7b6Rt+99EpMS+d75N8TRTxhhoko54E0GmVRY5tXFr8zoWQPMucd2eS1kTe1BOcgekWFhCjqJBIGoukr2rfwrtdIp5mo91+FnJLYomWwZ73kcVbxpa3fKkmP+o+KB/ryBLdIhEO7aDQIE3Nvax2UA/EAaTUyQe3i6AS2h8UDjTzghSCjvDUvbncWQw6NFAoSicRLh/5XJRKJxHNis9nYdDq1y8tLMzNbLBYfxTPqVYkHQERklLyCXN3d3TWrXuJ1dXVlt7e3tlwu7ezszBaLha1WKxsMBnZ0dNREIGA7Di2DUfqdSRDPL2evrJdXRCK8Qb73O3uwvXRMwqI5/Ezy2LOqwgGnN7N7HmGuk3pYtRwlm149IRrAk4tjvGsA541+oGTfuwZIj7wgTvB52k5qY+RFbxOelJxC4FLSCe81phyg7ioAwBYvvB5152kLLCRE/cY7Ft2P2meQlo9rnfmzXjsWCNAOOu+VpzYgooCvFxN/XpiQhSG2E+d4dnJbeIsi3t3d2WKxaPop76oAm3QHCW0jpONFXrHo66FFBE/UrBU6E4lE4jFxyAH5xzC4TyQSj4/ZbGa/+MUvto5Np9Nnsubp8CrFA0A9sUoCeVC+XC5tMpk00QUIL4GHGQP00Whknc6HEBTOD9EIgLcOgtrEJAxkXj2nEQnj76V6eseYpPJcb52f30YMlMyr19sj/7oonJenkjSvLM82JaMsVuj2gkrwdLvNtoX4mFBGIoOuZ+EhEg44LxB4bluz+1tUwout/aJ2Jwbuj0ymvfaPjnnREUp0VWyIxCHUW21iUUGPoTy+Ntwm2l9Y/EFZiCqCOKP1VWhEBAsf3taSvK4BRx7w1A0zawQAXazSi3LghRR5PYeHkPro/i+JCIlEIvFcyOdQIpF4Kbi+vrbFYnFvu8bZbPbmIxBelXjAxMUj2kr2zba9lN1u12azmd3c3JjZh8H7ycmJmVkzpQED9eVyuTV4xkqaXCbAiwBG5AO2eF7Y6Dyul0ds2gb3Ssx2IQkqVnD53txrnYOu4oFHWj3i09YO+pl/9+aSwzatq04n8PJWwhjZByKpAg5/jtqfz/FIJNcD31kIUQGhLbqB6+Z5rpVQe20aCT9seyRE4DMvgsh5M7TPeO+od2ntA72mXCeU6Yl6SO+JG2gbiAIcBeFtyxhFHOjaCRwBoTZw+tI1TiQSibeElzAIf8zn7UuoXyKRqMdm82G6wmw2C3+PHFJvAXuJB089aGWPPQ+y+XN0Hl4Y4M9mMxuPx82Avtvt2mKxMDNr1j+Ah8/zKrLnT4kUh1qz3Wbb5ARpeBE4thdpohfXD4g8w0xI9VxPeGFCF7VrFN7N7aSkc7VaNWHkSua8spTk63Z68CBziD9Wp4cKqFED7NHH77BbiRrqpaKEElxPxGASiDy9UHc9Vwks9zH0R4S/6/WGF5/vEyahnvjBdYE3n6+PN1UF0270d75upYclbEWZXG/cjwyvXzB5xg4Vnh08LUFtgJi42Xw73QXpuT3UBm4b3jpRd1Xg5wYLa/w8wP3A14yjC3h6ivbJQ/4xRc/Q0rM1kUgkPkYcSrgtOSQSicTLxXq9bpzQNWnfIvYSDzyP9WNDB8ogM4A+0Pm7rn8AsaDT6djx8bF1Oh07OjqyTz75xPr9vg2Hw0ZIMLsfeq6EiuGFn3t/Nhqa7C3cp17biNhz27CAoQKB2qORA9xWmGuvNun5KjqolxXH4SWO5ml7eSpUdODwbU9kUTKK9LptH7cPixEqHKinPLJPF+zzroW2exSGriKE9kGdfuERSq9clOmJH6VdHrQdIiGozQYVASFKlNpUoes96BoF/X6/maLA0IgT9BNu62j/cO4TKpTpdz7OdrH4yP3NzLbEA7ZL84umBPH7LniOZ3oikUi8RjxUQEjhIJF4ncD4q/b+b+MNrxUPmrawz4Nvnwfurg9az6sOMtzpdJopCYhC6PV6dnx8bJPJxIbDYePdxUAf6yOoZ5eBwX7kSccxJfal9ij9xsRLRRXPBi6b2wjERH+vaVsuMyKakb2e3V69o/w4DV+XUrSERoswWUQf8aZTtPU/JcTcD0CKPbGGCTTs8cqIxJ6SuNTWHh5ZZCJdIu2aXu3kz22ktMZG7SsqouCdxQdEErB4wLZ45ar9bfaoaOAJB9o+iDTQaQuAt4Aj29/2J+Q9m6I6JBKJRGI3sNNn3/Fs23TVRCLx8sDOtY8dr2LNg2hArOpP9CAHWWBvOsjDeDxu0nzyySfNNo68CJ2SfpBBHsizVx1h85En2PPWeuKDnuuFdXMahEHzrgNcBueJaQSwnduKva9oC7SfR7g8jyi2vGT72JuvbaNz3z2RQQm0V3cmaJwvdtDgKQ58ri5Cx6IC6sh/+ipOeQIK9xdsAxi1lU7p0BeHu3MYOyJk1uu1zefzpnxEz7Bnm8tHOh0EIfwedeNoDd6+1POqc1ncr7nv4V0XeWSizO3IefH5TMD5+nDb8yKlnA9vyajlQljkqAztr3z9IDRicRy8eLFE2IJdErivwibs6sLn8lQS9I3SH5f3vFERh3+LooASiUQiUYaOG2qA/4/lcpnCQSLxinAI4eAt3fOvQjzYFzxgZgKCAX2n8+28+cFgYNPp1KbTqc3ncxuNRs0AH+eBMHU6nS0RQgfmSOORd7x7XtmaSARPeOBz1VPJndUjpWy3lx8LJRHhYjBR47Zi4qef+aVER9tZiZG2jbYfkzQmfiwEcNi4XhddU0F3beAIA/ZCa5QKCCgTQ62HJyixkMEeD6T1przotY+mXXgREQwVau7u7ramfHhlRmjrd+ql53aDaOFdF20Tbhfuv9pXWFjw6s99Rvuk99k7n9dRiMQDLc8TQfT5kaQ/kUgknh8YO+pq6x54+95EIvF6wPzkofm8Fbxp8YABIsKe207nw9SFbrdrR0dHNpvNmi02orne6g31Fnjj0G8c07UIVNBAuggeUedzIhJYEhC8dRY09JvXQGCiFtmI8zabD2HkIOpcJreN2hKRtchebc+SoOIRec8Ws+1FFfl83vpvMBhs2aMRBSwseF5rT+xh25Ugax11PQUlmZ5Qo9day9YHpPYpr99qG0RgAc4TiziNl7+XVu3jtuDIBE7L/VnXmmDxIXrQa+SKZxtfP4gFg8GgiTIpCQC4R7z1Mh7655VIJBKJw6DT+eCAQmRjhM1mk6JBIrEDHnOsswuJ1zFn4gPetHjgdT6EGvPK9RATrq+v7ezszG5vb+3TTz9t8mBiwWRYCR5CuzebzRY5UeFAPbrcITXcnm1QrzPXUcvySFzk3eW8PS81CyYe4VUvKYgU7wrANrP4wu3J9cExXbyPowU8Dy6nhcea24QjD7idUXf1XOM47MD6F2bfigfedUUeHNaoc+F1TjuLDp5AgLox8eTrwkRZPercP4DhcLglpGi/8q61TnnQvhwJCxp1oAIB9zGeMoJ+pOQc11/vCRUGkIZt89a/YFv4mAo/PJ1C+wvXi21DxMFwONzaAYLbQvs3TxXSZ4mKeZGw6GGXtIlEIpFox+npqY1GIzs9Pb3322q1sul0ahcXF1vjh0QiUcahBYQc+xwOb1o8MIsX+DOzrQUU5/O5LRYLm8/nW/PReNDO5Iw96F5EA69P4JFrPu6RKq8eJW+o2X2iqfmpt9QjXGwPSKUSbvboanrPy81QG6IwbS5fCZKm7fV6bqQIz/PH99KUASWyfN11Tr+2A68hAdIXhcyrt5unw3A5OuWi1K5m22tFKNFEORpZ0ul0tqZiqJik5bPdXCfvPmMwAffqgN/YPk+04HoiDYsupagYjUgwu7+VqTeVhaGRE1oGC4WYtoCIA4gI/BzhewbPEH4WtE2r2BX555lIJBKHx2g0si+++MLOz8+b/5Xb21u7ubkJ94JPJBJlHCrq0nNk1p6TuI83LR5op/O8obzoGe/TroSEvbaet5Xf2bPO3msmFmpDbX1KdSoJB0jrER6tE85Vjyt7iz2hQoUJ78bTBfC4HPWoM7ny2kFFHV5bwbNDp1Dw9WLiz2Reibh6tllQ0GuhAgufD2i0h7e1INdFF2zR+niRB16/9b6rOKD9Leo/HpH18i49vKPfPE85i0Jqa+kPRvsNhAS2L/LMt/VttQdlQDiAiMDCBd/73nX0rkNtXROJRCLxdOj3+3Z+fm4/+tGPbDgcWqfTsXfv3jULECcSif3gcZ9a7CMaJNrxpsUDwPNYA/BGL5dLd80DDo/XOW1eJEFErrRcDVmObAU8sq7Es0Q62T72jIJAaT3a2gvHBoPBvfpreD57U9k7jvz4XG0rj3CbWTPPENvxIbRd1xtQcUZJrBJGDhvX8rHoHc7Bqv04T6/HZvPt1A0IAxAH2IONNGw7k0jkD4GLoxR0Gg33FZ2mUEOs8dmLWuD25L6hQgnSRX3CuwZ6b6n4wX2XwfnAFo76URv1xXXmfoJ25vrqtAW9l1Am58/igfcM0egktLXeC5HNKSAkEonEy8HPfvYz+/zzz63X69k//uM/2ldfffXcJiUSrxrgKVEkZglwukUOzcR+eNPigRIUfPa8qVgDAVMYmPAyeeTOp2HdDPUU6qCf8+Z5/Wov0ngkrRRlUNM2nuAQlc1kTMPcuU5Q2XnPe44I8Ii8R5RQpyjyQLelZOLOtkZe5Mh7zGXj2mgEgualZI7rjbwQ3cBkU0k1djPgtRpYPICAoOKB2q+iQxRhwIJOFBmj14vrxTbyedy+KiRx2Xx91Wuv/U4JuwpQHOLvkXqdDhJNycCzgHfk0H4cPUs8kYK384qEPxXUNC8P+/yJJhKJROJxcXl52SzGnGscJBKHA8b90bhIgfHyQ7dYTNzHmxYPGNGgH99BzJbLpS0Wi3ur5oMAeJ5OJVsoK/ISquAQ7eHuef49DzHKYhtKYMLEBJoJnwoIXv5K0pWU6m+lKAC1D/l7ggr/HpEoJcIaFcDEVckvRANcD7aD81UhSfNXwux5xHGcCWupbyEdX3vkpeSb25nzKLW55sXnqSji9e2ScKDkX8Uh/UPwIifY8892eXVTtTqKOtA+pko1l8HptP0isUIFHS8qokb8axMQa+AJnYlEIpF4GPBf8c0339hkMjEzs9lsls/bROJAgEMGEc/R+MdzMiUOi49GPODBOQ/CmSwsFgubzWY2nU5tuVze21KPvaBM2NUDrOHnXrQCwCRKCUoUveB54pkUMJFVeEIH8vbCtGELv2NPYy230+k0vzEBM/s2EgGRCVpfRBAo+et0Os21wKKE8M7z2gQgtbxWAYgjQsV5egAvBInpBLyYHddBI0PQdsvl0vUO64ML56PuaCPe8YPJtZJEJrA4R9Oop1uhBNsTKbwIBU6PtoA3RXc74LQsdKCto76AvPgz7OE1Cbi/4Z7j8judTjNNAAsUYmoJt5GKHWgX9A/Ukfu9JwapiIe8Yb9GODC0bnw9tK8pSn+abcg/0kQikTg8lsulXVxc2M9//vPm2Hq9zsUSE4kDotvt2unpqQ2HwzACYb1e23g8zsifR8Te4oHnFW9L+5yosZOnLmDxxCgvJo06mGdizGQCv3leT7My6UeeHgnRz+wZZzLN5WnEAYdpe/OD2PvKhCjycLMgoXPJFSWPMOyBgKBiD87nOeqqOEJc0N8xTUCJu5J22MIEma8lC0lcd/3OQgI+o59pBIFHOrV89XZjukO0gwALIXw+2hDXmX/X66/XU69hybPttaFXZw+4TixU8GfYMBgMtrZEZDGlpFK31dMTDTzxhQUEL/IgEhMUpfsKqM0rwkt4LicSicRrx2q1sslk4o4Z7+7ubD6f5/M2kTgAMN45Ozuzk5MTOz4+3vr95ubGJpOJjcfj5zDvo8Fe4oESTyAa8OL7viGz+4boenngs3rNQebgUWZS50UO4FwmX15os4Z4l4iM2sgCBEOjEqL8Iuj187zCTKb1mikJ4ggLvVYgUjwvnSMk8K4vs21vuW6xuFqtrNvt2mKxsF6vtxV1wIIJ7NCoCr7uTGq5frh2ukuD53n2+hd7xLmNOOoBoofZtsc9igbQ/D2vt0Zw8HX2ppxwXXR6CtpThSW+Ply3KF+1RQUQrQeD64bzvTKxoCV2NeCoA88W75qqwKG/cT7RdeA1K0rCgYoQ+pnbmNvTE14e8mxMJBKJxO7A/wPEA0xX8BBNGUwkErvj6OjIzs/P7fPPP7fBYGBm1ix2nxEHj48njTzwSG9tWW3ewzZE0wXUs7xarZrpC9iykYkEQsOxwj/yBplVYg4RgkPu2Ruq0Qte9IFGHSgB17oxsTKzLW+350HlsHJvfrdHaGErQvA5f7YD6UCMcZNzGvzO3lp4yVlQ4H40n89tuVxuzX9i4UEJ4GKx2JoewESbywVAVEGWeU0CthvXACH0eGEdC702yIP7hZk1W/nBY85kkstkW0FScZynXXA/xNQIRG+Uwve5DTiiQ9OoENLpdLZ2k9B2XS6XW/cJhCSehgL7tf56bb3rizQQDpCHCgDc75EPT6Pg6AxvOlF0L/C9zdM5NAKB4QlYqMtgMGj+APnZw2KOdx95U428Z0MikUgkHgb8l19fX1elr1nbZh88lnic/xWJl4yTkxP72c9+Zn/yJ39i6/Xa/v3f/90uLy+f26yPAk++5sG+AoLZwyMPoogJAMSBiR0TTn3ws8cR+fPgXeeA43jJs8wCgTfQV+IAEhZ5H6OHvxIq/q4h93hXoqlp+Fz1CMNWQOfmc95cRxYHIObgD7vT6TRkHCIGEyxuI72GSMeEVeeoM8kFQca8eNgMss9EHtctImra9rCHCS/EJs5Doxm47aLvsBF5chtDSNB+EPVJvr5KUrn/o704X0SH8HVar9f32ly98p4tnojGYhbn6d3z/M6RNrzOiUYgeLZ4be21Wem7F4GB4/xsacu/FjkYTCQSiYdD/wNroGL0oXFIESH/KxIvHRgj8RbqiafBR7NgYhtBYi89eyG9MHdAvYtMODTsn/804KUGqVZbQLTUcxrZ4HnDo5vI82jrb/zdEw9ApGsIEkcNwFb20MKW0noFCD83s0ZAYO8wEy8WU/C75g+bQPo5AkGFHRVm+Nr2er3Gk67tz4hEGjPbEiaYmIPYKmHk9CVoHbyoDG8Q09Zv9JrqQqEsuKjd7DVHf4jaXstUUc2zj0UgTuP1db6O6E8QDL1oBeSzr4BQ+mMr1VfT8HXMP8pEIpF4HuD/b59t4B6DmEcOpH2QwkHiNWC9XttisWjWFMktGZ8Ob1o8KIUq82e8EGkwn8+bl+eNZA89POOcF4gJRzEoUWHS73kXedcCzlM9oUpE2WPJYOLJ53piCD57ZIa96kxOzbYjCzzPLWxkbz3O46gCFQ44CqHX622l1WsIm3jRQK4bPPF4cVh5ifhx++v0BSXz3B4qALF9/JnJeKfTaSIrABaj1DutgwYVSGC3ijWYSqB5eLsAaLQFbMKUDW0z/s72cjQFCz26pSK+IzJE7dQ68xSSiMwzkJ5t53tEpzN59fEEmtIArhTVoQKb1oXbh/PTe4B/Q/45EEwkEonDAM/ahxKVx3ou69hnV+TaDInXgul0ar/85S/tP//zP83sQ9+dz+fPbNXHgVcjHhzqYaYDdBxjAQGigS6aqAN1Jjucl3qHO51vw+vZg21m946rBzbygCJf/hx5y5WsRREMnI/3WcsBlGjhj1XJtnqauZ2YuEUEy5uaAFLMIoCGwq/X60aE2Gw2W1MVStND9IXBAtowWs2fCaFXH5yvUwY00kDJpubjiQfaX7Q/sYDE14XbS6MJVLSKxCO+Np53nO8bFjg88q1RBFpHRem+9uAd94i/J5bpNdH2KwkIHvTe0vvSux9xP3v10jbw2oXLTSQSiUQ9DjEefUyCvq+AkJ7bxGvBbDazy8vLe1uh3t7epoDwBHg14oHZw9ZLaMuHCe9yuWxeukc9e3ABj9h4g35VdJkAKHFgMqKkKyKUTGI0bJzt9whIjWDglcl14TyVdPP6B0wItQ29sH/ky9M8tD090UAJHafV9kUZPP1Ed57QNvEiFhil66TQaQRRm3sEk9vIi0Th8/h81EunXTDh1GuJhSDZLk88KBFotosXF+TzvDUovLpyX+Z7Bcf4XQUWL5pIBRav7UrXpeb55KUp9aE2USK9RIlEIvE0KInSzw0e+5TGJgr+r08kXjJw/00mE5vNZnZ1dXUvTUbPPD5elXhgtt9AuTTgZkJxd3fX7LQwnU7vTVvgc3VeN8Bh2CC8yJsXX0T5vFo9e2Q5L85PvdVaT49ksOdUvb6lyAb1NHM5nieT24bryV7ko6OjewsBeoILoOtHDAaDZpoIjmMhQK/NlDCy/Zw3k08IEyiDBSTka/Zhqxieg67XAvaoQASwfdgNgad08M4U2Fmi0+lsTZvgAQITYhWM2Hauf0mcYgFFxSEvwsB78Xk4l0UgFpI4L45Q4b7FdeK29kQAfsf5aGvYwtFFfJ+riKCCFEOnvtSICPp7W3oVUbx7tCbKIv9QE4lE4m0DU/5Go1FV+vl83kzbTbw91IpI++CpxxTr9brZFjWqlzdOTBwWr048eCjUY8nHeYcFLMLB4oEXnu/B8xLjmJJRzzYlRkrQlDhw2javJpMPFg+YLLfVsWbqg04H8LZD5LI9777WS9V0Jb0skrAdmJcfeaX5xcINCx/6MPIEA69f6e/aPkpGdS0GPo4+CnHDI+YsCqg44rWPZ5/XLnwtFB5pjsrwrk3bWgFqj0LPZXGDy1TxQdsHddGpNNxuamON7RFUCIiibiJBTW3nOkb3UiKRSCR2x2sTXjudD+sTDYfDrS21GZvNBw8utgVOvF0ccizwXPcCxvG1ooA6fhOHw0cnHgCRgABv5GKxCNc9aPPkRZ5/s+05ZXoTMPGDh7l2Abi23/R3FiJASpVce3XWevFxFU1YOPFC0DUk3vOma4i7N52D89LyOcJCyZZXP/Wqq3igaCPYSlxZUMHvTBo1XB9gUWO5XLrigEaSRARTRSivv3r1aosyqOmnem2wxWUJnj0lQo+6664LnJf2PQbq6bUZ/+61hdY1qn9buhqUBMwofSKRSCTePjDuOj09dQWEu7s7Wy6XNp/PU2T+CHDoa/wc4wmM1zJC5vnx0YoHHhAVsFqtbDab2Xw+t8Vi0WzHw+S+5sZRMqWeX7NtMsPh6EwGzeweEVLhIbKpRO4QEq6eavZgK/kseVmVVAFs+93dXUjqOB8vbD0SewaDQWgr3nENuY09IE9Mr2A7ICrhwbVYLLbWcPDy5WOeuIHfMU0BizlylAHahNsengJdjBJlqmDiRXaoGMA2R4IDyikJBwpdOBJpEWGB7yoi8T3hCS4q8nhtr4s/bjabrR1QPNEKtvA5eh28dtH6cVtDlPJES7avdA20bvsIB21RJIlEIpF4OxiNRvbZZ5/Zj3/8463j7969s4uLiyex4bH+a1IQ3w27rIPhoW1c8ljAWO4hC3pmXzksqsWDyNteGty+FOwycAa5WC6XtlgsGvFAvZMsBHheeSUUIKBMKpjYKflRDz3yKJFUz+sbXQcVMzwCXBPuw+l1twAuh8ELKLIHGtDdE5DO8+JDGODtDpkM8vlss/cA9Iggh9bzNdRrovkoahZd9KZ08PeorNKfAYtMXpSF2oN0UX1K0QdRevQvJeleyL8ScO6nWmfvWim07t4UmUj8gI18H3BkSptoEsG7V/X54CESKDQyQ6NcSs+6RCKRSLxdQKiHgNDv9+1//ud/7JtvvnkSAdkblz4U+d+1H0rOljbo2Omp4PG3h+STOAz2Eg8ekuapoR2vNNgHuWDxQHdcaCPuEZQc4hh7JL38mejxYnO7wsuX2wS29Xq9LW+riiNePSMvtf7Ox3RhOm4bby68kiUmdFgPQElx6XzNg9OqSINjvV6vEUjwe7RIHv9hKqHjOmqZ3GaeJ5qjUbx21uvC5Jnz0f4W2c7t45WphJbhiQOlhQVL+UZkvyTccJ2jKTKe/bUiowocXvrSs8ETSrwoDS8N5196dpTaJ5FIJBJvH71ez87OzuzP/uzPbDQa2ddffx2ug/AY2Edkb8NL5BuvAXDm1F4Tb/z61DjUtc4+czi86WkLkXeZ3zU9pi3M5/Nm1wUICBG8wT4QRRREwoF6SpG/lqXeVm+BuBI8Msv58sr+3m4BfH4pQgFtyvniOPLzwuBL9cA5Wo62G4PXLtC6s4DBQoaKB5jOUPJc87lefWCH1pnz44gUzstbLJLFiSjsXQUMFsn42nP7lkgzR8pwPaP0eu0i4s9tpG0TiXYMrx+WIg5Qd02rnzX6QOvxEHj3Mfq2Tsvw+qjaE4l4JZEpkUgkEm8f//d//1dcw+mx8VDBwluj6LHwWET5uf9/MaY4OTmpikC4u7uz2Wz2oCkD++K52yoR402LBzVQzz7mWWPKgrdwop4fqXI6cAcJ8QgLRAElKhFxQr66MJwS/Davp5JoJub6znXw6q8okVrkxXVQ+zxPMP/meXmjFegh0qiAwPmxV9wji4g8QB4qvAAsJuF3PkevP0cz6HEuH3mhDN1JwVt80xNDFNwn1YZIZGMRK0rnLURY+kP2vOweyY/Sl9AmSml/0bbyIi/Uzl0HG1HUh4pRKhx56Tmv5/QQJBKJROJlYT6f27t37+z9+/fW7Xbt5ubGZrPZs9iyb9j8c5DXx4CK/M+Fbrdrw+HQTk5O3N83m02zZf1z4CW0USLGmxUPdul4LCBgUQ4IB9iuUXddwHltHm8d6HNYsjdHH0ROiSB/VrLglYXvbe3gkWgQZSbdHrmNIiPwu1cHjmLg+eMR4VHPsxJ29cRrW2m9NAKByyl5w2Efq/ZK9JTEa3tyfbWN8IfKC/Xp9BGcg7bTaAKvTl6/LAlSnKaNZPN3L73a0jbtxiPmaJtDevkVek+V7uN9BANum7Z24jK0PF0LxLOlJGJ6tiQSiUTi7WK9XttisbB3795tHZ9MJk/mxWdgjava/3OMV7w1tR4bhy7vJf3ndrtdOzo6srOzs2ahboB3NchtPBMeXo14cMibLhr0Q9lcLBY2nU5tPB7bZDJpdl5YrVYuaeMdGCIShzqoJxVp2eOtK+TrIiXq1W6DJzSo3ep5LhHlEvlkm7m9eKV7bgMWUjzCqNfL87ris7a9dx30Wunq/kz8ozaPiKTn+feIpgoeap8XSeCJONyfYG/UP/n6aL4R9iXHNdC2iAgz+gan1TzUFoDFPq8cpI/ajMuNyHrULzxAPNEoAbZDd3+A2IXdOIbDYbPtljcAq7kOL2kAk0gkEonHw/X1td3e3trvf//7reMg5E8N/J+enp5WpceuZ0+NXZ0EETwn20sBog/+8i//0o6Pj5vj19fX9pvf/ObJduNIvD68GvFgX0REC++eJ3W9XttyuWz2wG2LPKgZjLMdHHruEXL2IKpX1Asx59+VGLVBy/FsxueIHGk6zmu1Wrke3ZqHstaJCbnZ/ekBSBN5x/GnxQ9xj8hvNpvi9ouRnQ85ruRR66HCAdvvtaHXDzxBokYUicpTQalkg7dIogpG+htQ2tmiDTWCg95HKliokOHZWxvJ4d3j+D2KQOh0OlsCAoQDjkDgPKJnkt6HDxkQJRKJROLlAhEHJY89BITnikA4Pj62wWAQphmPx8/u+VYnxi7wHDgvEcfHx/ajH/3IfvrTn9p//dd/uWPrRILxasSDfbxlHtktDfx54L1arZqQHd1xQe0qkURPtACYyDIx4YeNN+BvEz+i7yoQtHlutTw93vZ5s9k0C+SorUw62zy2Xh10kcqac5HWWwCP06ug0iZwlDzNgAo+kTACgSqKOlAoeeQ8tU7eOg78h+i1p9a/7bh+90QD7utavicg8FQOr7618K6lknovvQoHbX2iBlG53jGOQICI0O/3t9Y60XtEy/KOJxKJROJtYrPZVHvsvfW8HhudTseOj4/t9PT0noCA8fd0On12Eov//n2cF0+5wONDMBgM7PPPP7ef/exn9s0339gf/vCH5zYp8cLxKsSDfR9qTP5UIDArk2ds1YiXRh4wGfO8lPydwYN9T81k73okfpTsriU2Sox2eShGggnngbnt2v4eeYvqovlyuysh8nadiMACAq9/oHaqEKIEXAkbn4twQFzL6A9Ep6tw5IEu3lgSkrgNor6j6w0MBoMqccBLE5F42Api6/3p6i4CUZuwPdFuBwyPdLcp6CoSIS0Tcy/aQPvGrvePnoe2UFvwYuGAhYRS3qW2QV0SiUQi8baA8Wqt1/65hGWs+v83f/M3W2OB3/72t/emWTwn8B98dHRU/b+52XxYcPC14Ouvv7Z/+Zd/sdvb2+c2JfEK8CrEg4fCCwHX4xpOHJFUzVPDhPchEWbl+VBenp4o4RFG7zz2pHL6WttVjInSsKe2TTyIPKcqAMH7rFNIlKSXogu88rVunjAQ9aOoLqW1KjiN5lFq0yhPj3CrB5/PwZ9hjXjAeWjfUdtZNPKiC9hWFnxK5UfkXcULvXaooxd1oW2hUSalzw8BTzvy7gmNRlIbWECIojoioSAjDxKJROLtIooy3OX8p0an07HRaGQ//elP7bPPPrP/+I//sG+++ebJ7agBTx2MsNlsminPrwVfffVVsy7GYrGw6+vr5zYp8cLx0YkHtSRfBYaS+LDLA1fP8R7ySlQiT7z3ua1epS3fvM8RlIyw957LYo++Cgl8Hn/X/DwvtCdgRN56tssj8No/1CbP8+9FK3B6Fp+8aAguI/LiK1FXO7idS4sK1s7f1zz5HD0/moahtnt90tt+kM/TcqPjXj+NiLO2oZdG7da6aDmHJuQslnjtyTstRDsuRFEQj2FvIpFIJF4WHjpf/an/IzqdjvX7ffvxj39s/+///T/71a9+VSTnzwnsUHBychKugYCpIq9BPMBU2a+//nprqgKOJxIRXuYd+ghQghh53T0xICKUvNViRDCiwTzyUDCB8DyQarNHNr26e79ze+ziZeVwcFa5PY+4ep75syfqqG2cH8rCdAMO9Y9sLKnwGlHg1aNG7PHy1YUPtd01T/XGK1lEOuxWgTyPjo7uhbB70QnIO4oGaPO483cm/m19jvPG55q1A/i3tgiP6DqaWXHhy0j40/aJbKwZZJWEP/2d7ed3nMeLJh4dHdlgMGj6CNu8j6iZSCQSideLaCz1kLyeEl9++aX96le/evFrBAwGAzs5ObEf/vCHW+MubPP+P//zP89o3W5YLBb2zTffhJEez71YZeLlolo8iB4mNQpn24OoNKB+SD6RNz3yBLeRZoauFI/Bvre4XeT180LrPaLvKZyejbvYr+l2PZfPUxGlxlb+rfZ6a9soydMtCSNhICLyXrSBIiLdaqcKATyn3aubRkyALHI/AHnkcweDwb21A7QunpBTEqT49136SOl+8/Js6xel/u8JOp5Q5AkKpWvAfaytjh6ito/yidpEI1bYrtFo1GzTqKJnSQTT8lNcSCQSibeD1/hMX61W9u7dO7u4uLB+v2+r1erFh813u107Pz+3733ve/bZZ5/ZarWyr776yn73u989t2nVwE4cpUU1MwIhEeHBkQcR6S49xEreeC/tPojIkFl5Ub02j6imwYuFA8/uaPDOAkKbl7LteJQGZTGxiYhhZDP/Hi1et48nNkqjJCzyEPO7ijFMplhM8LzaUYSA14+0fA+Ya++dG3n2FTVTTHZdBdgj9V7+kY1txzlfL59dtjvy+pXXL0pRIW1rSnj3RO0zxxMg+T1K5wkHaBf+o+bfkWe3223Eg2ix1dKzh8t+jQPNRCKRSGzjtT7LsS36b3/7263jz7H7w65A9MFPfvITm0wmttlsXp14UDNuPGRES+Lt4E1OW/AG65FHPCKlJe9oREA0zNjLT8vzCI8SmhKiekUk2ENE6GoJqZd+lweNd17UXt45ukq9el/5O4gawr09otfpdEK11bOr1tNcIuWc1y7tzmHruyLq47sKBwxvcUM+HkURaBmap1k8lxPXkQUbpN8H+7RldN4hxBNuu16v10xX8O5zRW0kRCKRSCQST4nxeOxux/haCOv5+bn94Ac/eFVTFdbrdRNtkOJBYl8cRDyIwvJrow+iQe+hEJHxfTzl7OXUkHddo6BEsrwQa86/JGy0oc2jvW9as/pdDHYF6st9IvpDUULL1xefu92urVarhnDyNBN4bT0yhzRax7Z1E7w8PEQh/G19MeqHOn1mF5QEMq//euk9gcATDyLy7F3nkgDTdi7jIX21lO8ugl7tdSlFBqHdeItGFg80rYoF+aefSCQSiZeE+Xxuy+UyFNTxf7harZ7Ysjrc3d3Zu3fv7O7uzi4vL+3i4uK5TWpFxDt2OT+RMNtTPNjXk+UNatvO39UTWypzn/O8MHglqh6BZHikx5uD/VCUIiy0/FL6CLVe033rw0SnhvR4IgIfhyeaoxI6ne3t7lSsaBO0vGuvD2NeREftVaJdgpbFx/n+2Vc8gE0lO0vp286NPreVX2OrCpbe82SX6QeP+adYU/dIPOj1erZarbaEAwgJWJFahQOvnRQ5CEgkEonEc4C93214qf9V8/ncfv3rX9uvf/1rMzObzWYvfn2Ah+7EkUgAO4sHngd0l9CXffBQASGypUQasLL9ZrNpVlHFq83TvAuZq2mXGs/sLt7OksdZsUuYdU0ESY1tUZRIm1ig5TEB42MQDrzV6Znce/VggsdbMbZtAcifPVKtfcYTKrzfoi0ad0UpwqBGYPB2UKgRD2rhiTaldGbx1pYeHips6Dk196OGA/I1xRoqPFUBOywMh0MbDof3pi/koCCRSCQSLxmr1cru7u4OOkZ+Smw2G1ssFvbll1+6v73U3SJ0nJFIPAQHW/Mg8vqVBvlR9MFjdnINjY8IKB4APD1B7cN5TFJLRD8iPZ4N/N2L9KgRFBRPTS4OEYHQlk7L0UgC3qpPr5N3vufR9srEZ6TdRWTxyqmta/T90DhE/ruIVCWUIn74Oz7vY6Oe+xDhoA2eoMbilUYfdDrfTlsYDAY2GAys3+9vRc9o9EEikUgkEi8JD/V8P/d/22azsfl8XhQIVqvVi5xq8dxtl3hbOPiaB7uEDZciCp6joysJ4f3WvVXM27zHj4VdogyeCl5ESlu6ku0PJUF6bfCnBSKmIkNE3jwbvL7uCVJc313ui9q6cV775PmQvlN7biQMls73+lIkHmgkSBtqRSlPWDokojpyH4UteMe0BU88UPsf0/ZEIpFIJHZFKWrwtWCxWLROuXjp0xcSiYeis3ntd3IikUgkEolEIpFIJBKJR8VusdaJRCKRSCQSiUQikUgkPjqkeJBIJBKJRCKRSCQSiUSiiBQPEolEIpFIJBKJRCKRSBSR4kEikUgkEolEIpFIJBKJIlI8SCQSiUQikUgkEolEIlFEigeJRCKRSCQSiUQikUgkikjxIJFIJBKJRCKRSCQSiUQRKR4kEolEIpFIJBKJRCKRKCLFg0QikUgkEolEIpFIJBJF/H9xhk4WB8PAXwAAAABJRU5ErkJggg==;clipPath=inset(2.14% 1.33% 3.85% 62%);" parent="1" vertex="1">
          <mxGeometry x="1410" y="473.25" width="256" height="256" as="geometry" />
        </mxCell>
        <mxCell id="7PJMX-n2CAUdrs0Bl3GC-227" value="&lt;b style=&quot;&quot;&gt;&lt;font style=&quot;font-size: 24px;&quot;&gt;64&lt;/font&gt;&lt;/b&gt;" style="text;html=1;align=center;verticalAlign=middle;whiteSpace=wrap;rounded=0;" parent="1" vertex="1">
          <mxGeometry x="-300" y="433.88" width="50" height="26.75" as="geometry" />
        </mxCell>
        <mxCell id="7PJMX-n2CAUdrs0Bl3GC-228" value="&lt;b style=&quot;&quot;&gt;&lt;font style=&quot;font-size: 24px;&quot;&gt;128&lt;/font&gt;&lt;/b&gt;" style="text;html=1;align=center;verticalAlign=middle;whiteSpace=wrap;rounded=0;" parent="1" vertex="1">
          <mxGeometry x="-240" y="425.88" width="50" height="42.75" as="geometry" />
        </mxCell>
        <mxCell id="7PJMX-n2CAUdrs0Bl3GC-229" value="&lt;b style=&quot;&quot;&gt;&lt;font style=&quot;font-size: 24px;&quot;&gt;128&lt;/font&gt;&lt;/b&gt;" style="text;html=1;align=center;verticalAlign=middle;whiteSpace=wrap;rounded=0;" parent="1" vertex="1">
          <mxGeometry x="-182.75" y="433.88" width="43.5" height="26.75" as="geometry" />
        </mxCell>
        <mxCell id="7PJMX-n2CAUdrs0Bl3GC-230" value="&lt;b style=&quot;&quot;&gt;&lt;font style=&quot;font-size: 24px;&quot;&gt;256&lt;/font&gt;&lt;/b&gt;" style="text;html=1;align=center;verticalAlign=middle;whiteSpace=wrap;rounded=0;" parent="1" vertex="1">
          <mxGeometry x="-110" y="432.38" width="50" height="26.75" as="geometry" />
        </mxCell>
        <mxCell id="7PJMX-n2CAUdrs0Bl3GC-231" value="&lt;b style=&quot;&quot;&gt;&lt;font style=&quot;font-size: 24px;&quot;&gt;256&lt;/font&gt;&lt;/b&gt;" style="text;html=1;align=center;verticalAlign=middle;whiteSpace=wrap;rounded=0;" parent="1" vertex="1">
          <mxGeometry x="-35" y="428.88" width="45" height="36.75" as="geometry" />
        </mxCell>
        <mxCell id="7PJMX-n2CAUdrs0Bl3GC-232" value="&lt;b style=&quot;&quot;&gt;&lt;font style=&quot;font-size: 24px;&quot;&gt;512&lt;/font&gt;&lt;/b&gt;" style="text;html=1;align=center;verticalAlign=middle;whiteSpace=wrap;rounded=0;" parent="1" vertex="1">
          <mxGeometry x="55" y="433.88" width="40" height="26.75" as="geometry" />
        </mxCell>
        <mxCell id="7PJMX-n2CAUdrs0Bl3GC-233" value="&lt;b style=&quot;&quot;&gt;&lt;font style=&quot;font-size: 24px;&quot;&gt;256&lt;/font&gt;&lt;/b&gt;" style="text;html=1;align=center;verticalAlign=middle;whiteSpace=wrap;rounded=0;" parent="1" vertex="1">
          <mxGeometry x="140" y="433.88" width="50" height="26.75" as="geometry" />
        </mxCell>
        <mxCell id="7PJMX-n2CAUdrs0Bl3GC-234" value="&lt;b style=&quot;&quot;&gt;&lt;font style=&quot;font-size: 24px;&quot;&gt;256&lt;/font&gt;&lt;/b&gt;" style="text;html=1;align=center;verticalAlign=middle;whiteSpace=wrap;rounded=0;" parent="1" vertex="1">
          <mxGeometry x="290" y="233.25" width="50" height="46.75" as="geometry" />
        </mxCell>
        <mxCell id="7PJMX-n2CAUdrs0Bl3GC-235" value="&lt;b style=&quot;&quot;&gt;&lt;font style=&quot;font-size: 24px;&quot;&gt;768&lt;/font&gt;&lt;/b&gt;" style="text;html=1;align=center;verticalAlign=middle;whiteSpace=wrap;rounded=0;" parent="1" vertex="1">
          <mxGeometry x="260" y="363.25" width="70" height="80" as="geometry" />
        </mxCell>
        <mxCell id="7PJMX-n2CAUdrs0Bl3GC-236" value="&lt;b style=&quot;&quot;&gt;&lt;font style=&quot;font-size: 24px;&quot;&gt;1024&lt;/font&gt;&lt;/b&gt;" style="text;html=1;align=center;verticalAlign=middle;whiteSpace=wrap;rounded=0;" parent="1" vertex="1">
          <mxGeometry x="260" y="540.63" width="55" height="60" as="geometry" />
        </mxCell>
        <mxCell id="7PJMX-n2CAUdrs0Bl3GC-237" value="&lt;b style=&quot;&quot;&gt;&lt;font style=&quot;font-size: 24px;&quot;&gt;1536&lt;/font&gt;&lt;/b&gt;" style="text;html=1;align=center;verticalAlign=middle;whiteSpace=wrap;rounded=0;" parent="1" vertex="1">
          <mxGeometry x="665" y="452.5" width="70" height="80" as="geometry" />
        </mxCell>
        <mxCell id="7PJMX-n2CAUdrs0Bl3GC-238" value="&lt;b style=&quot;&quot;&gt;&lt;font style=&quot;font-size: 24px;&quot;&gt;512&lt;/font&gt;&lt;/b&gt;" style="text;html=1;align=center;verticalAlign=middle;whiteSpace=wrap;rounded=0;" parent="1" vertex="1">
          <mxGeometry x="890" y="728.18" width="30" height="34" as="geometry" />
        </mxCell>
        <mxCell id="7PJMX-n2CAUdrs0Bl3GC-239" value="&lt;b style=&quot;&quot;&gt;&lt;font style=&quot;font-size: 24px;&quot;&gt;256&lt;/font&gt;&lt;/b&gt;" style="text;html=1;align=center;verticalAlign=middle;whiteSpace=wrap;rounded=0;" parent="1" vertex="1">
          <mxGeometry x="1045" y="724.5" width="30" height="41.37" as="geometry" />
        </mxCell>
        <mxCell id="7PJMX-n2CAUdrs0Bl3GC-240" value="&lt;b style=&quot;&quot;&gt;&lt;font style=&quot;font-size: 24px;&quot;&gt;128&lt;/font&gt;&lt;/b&gt;" style="text;html=1;align=center;verticalAlign=middle;whiteSpace=wrap;rounded=0;" parent="1" vertex="1">
          <mxGeometry x="1180" y="729.5" width="30" height="34" as="geometry" />
        </mxCell>
        <mxCell id="7PJMX-n2CAUdrs0Bl3GC-241" value="&lt;b style=&quot;&quot;&gt;&lt;font style=&quot;font-size: 24px;&quot;&gt;64&lt;/font&gt;&lt;/b&gt;" style="text;html=1;align=center;verticalAlign=middle;whiteSpace=wrap;rounded=0;" parent="1" vertex="1">
          <mxGeometry x="1250" y="729.5" width="35" height="34" as="geometry" />
        </mxCell>
        <mxCell id="7PJMX-n2CAUdrs0Bl3GC-242" value="&lt;b style=&quot;&quot;&gt;&lt;font style=&quot;font-size: 24px;&quot;&gt;64&lt;/font&gt;&lt;/b&gt;" style="text;html=1;align=center;verticalAlign=middle;whiteSpace=wrap;rounded=0;" parent="1" vertex="1">
          <mxGeometry x="1302.5" y="729.5" width="35" height="34" as="geometry" />
        </mxCell>
        <mxCell id="7PJMX-n2CAUdrs0Bl3GC-243" value="&lt;b style=&quot;&quot;&gt;&lt;font style=&quot;font-size: 24px;&quot;&gt;32&lt;/font&gt;&lt;/b&gt;" style="text;html=1;align=center;verticalAlign=middle;whiteSpace=wrap;rounded=0;" parent="1" vertex="1">
          <mxGeometry x="1342.5" y="724.5" width="45" height="44" as="geometry" />
        </mxCell>
        <mxCell id="7PJMX-n2CAUdrs0Bl3GC-247" style="edgeStyle=orthogonalEdgeStyle;rounded=0;orthogonalLoop=1;jettySize=auto;html=1;exitX=0;exitY=0;exitDx=50;exitDy=118.5;exitPerimeter=0;strokeWidth=2;" parent="1" edge="1">
          <mxGeometry relative="1" as="geometry">
            <mxPoint x="-190" y="333.25" as="sourcePoint" />
            <mxPoint x="-175" y="333.25" as="targetPoint" />
            <Array as="points">
              <mxPoint x="-175" y="333.25" />
            </Array>
          </mxGeometry>
        </mxCell>
        <mxCell id="7PJMX-n2CAUdrs0Bl3GC-248" style="edgeStyle=orthogonalEdgeStyle;rounded=0;orthogonalLoop=1;jettySize=auto;html=1;exitX=0;exitY=0;exitDx=50;exitDy=118.5;exitPerimeter=0;strokeWidth=2;" parent="1" edge="1">
          <mxGeometry relative="1" as="geometry">
            <mxPoint x="-135" y="373.16999999999996" as="sourcePoint" />
            <mxPoint x="-120" y="373.16999999999996" as="targetPoint" />
            <Array as="points">
              <mxPoint x="-120" y="373.16999999999996" />
            </Array>
          </mxGeometry>
        </mxCell>
        <mxCell id="7PJMX-n2CAUdrs0Bl3GC-249" style="edgeStyle=orthogonalEdgeStyle;rounded=0;orthogonalLoop=1;jettySize=auto;html=1;exitX=0;exitY=0;exitDx=50;exitDy=118.5;exitPerimeter=0;strokeWidth=2;" parent="1" edge="1">
          <mxGeometry relative="1" as="geometry">
            <mxPoint x="-53.5" y="374.5" as="sourcePoint" />
            <mxPoint x="-38.5" y="374.5" as="targetPoint" />
            <Array as="points">
              <mxPoint x="-38.5" y="374.5" />
            </Array>
          </mxGeometry>
        </mxCell>
        <mxCell id="7PJMX-n2CAUdrs0Bl3GC-250" style="edgeStyle=orthogonalEdgeStyle;rounded=0;orthogonalLoop=1;jettySize=auto;html=1;exitX=0;exitY=0;exitDx=50;exitDy=118.5;exitPerimeter=0;strokeWidth=2;" parent="1" edge="1">
          <mxGeometry relative="1" as="geometry">
            <mxPoint x="25" y="389.41999999999996" as="sourcePoint" />
            <mxPoint x="40" y="389.41999999999996" as="targetPoint" />
            <Array as="points">
              <mxPoint x="40" y="389.41999999999996" />
            </Array>
          </mxGeometry>
        </mxCell>
        <mxCell id="7PJMX-n2CAUdrs0Bl3GC-251" style="edgeStyle=orthogonalEdgeStyle;rounded=0;orthogonalLoop=1;jettySize=auto;html=1;exitX=0;exitY=0;exitDx=50;exitDy=118.5;exitPerimeter=0;strokeWidth=2;" parent="1" edge="1">
          <mxGeometry relative="1" as="geometry">
            <mxPoint x="145" y="388.16999999999996" as="sourcePoint" />
            <mxPoint x="160" y="388.16999999999996" as="targetPoint" />
            <Array as="points">
              <mxPoint x="160" y="388.16999999999996" />
            </Array>
          </mxGeometry>
        </mxCell>
        <mxCell id="7PJMX-n2CAUdrs0Bl3GC-266" style="edgeStyle=orthogonalEdgeStyle;rounded=0;orthogonalLoop=1;jettySize=auto;html=1;strokeWidth=2;" parent="1" source="7PJMX-n2CAUdrs0Bl3GC-281" target="7PJMX-n2CAUdrs0Bl3GC-265" edge="1">
          <mxGeometry relative="1" as="geometry" />
        </mxCell>
        <mxCell id="7PJMX-n2CAUdrs0Bl3GC-274" style="edgeStyle=orthogonalEdgeStyle;rounded=0;orthogonalLoop=1;jettySize=auto;html=1;exitX=1;exitY=0.5;exitDx=0;exitDy=0;entryX=0.5;entryY=0;entryDx=0;entryDy=0;strokeWidth=6;" parent="1" source="7PJMX-n2CAUdrs0Bl3GC-305" target="7PJMX-n2CAUdrs0Bl3GC-288" edge="1">
          <mxGeometry relative="1" as="geometry">
            <Array as="points">
              <mxPoint x="985" y="385" />
            </Array>
          </mxGeometry>
        </mxCell>
        <mxCell id="7PJMX-n2CAUdrs0Bl3GC-215" value="" style="shape=cube;whiteSpace=wrap;html=1;boundedLbl=1;backgroundOutline=1;darkOpacity=0.05;darkOpacity2=0.1;size=37;fillColor=#f0a30a;strokeColor=#BD7000;fontColor=#000000;" parent="1" vertex="1">
          <mxGeometry x="310" y="349.87" width="150" height="80" as="geometry" />
        </mxCell>
        <mxCell id="7PJMX-n2CAUdrs0Bl3GC-263" style="edgeStyle=orthogonalEdgeStyle;rounded=0;orthogonalLoop=1;jettySize=auto;html=1;entryX=0.5;entryY=0;entryDx=0;entryDy=0;strokeWidth=2;" parent="1" source="7PJMX-n2CAUdrs0Bl3GC-278" target="7PJMX-n2CAUdrs0Bl3GC-261" edge="1">
          <mxGeometry relative="1" as="geometry" />
        </mxCell>
        <mxCell id="7PJMX-n2CAUdrs0Bl3GC-272" style="edgeStyle=orthogonalEdgeStyle;rounded=0;orthogonalLoop=1;jettySize=auto;html=1;strokeWidth=6;" parent="1" source="7PJMX-n2CAUdrs0Bl3GC-285" target="7PJMX-n2CAUdrs0Bl3GC-255" edge="1">
          <mxGeometry relative="1" as="geometry" />
        </mxCell>
        <mxCell id="7PJMX-n2CAUdrs0Bl3GC-214" value="" style="shape=cube;whiteSpace=wrap;html=1;boundedLbl=1;backgroundOutline=1;darkOpacity=0.05;darkOpacity2=0.1;size=37;fillColor=#f0a30a;strokeColor=#BD7000;fontColor=#000000;" parent="1" vertex="1">
          <mxGeometry x="335" y="226.75" width="100" height="50" as="geometry" />
        </mxCell>
        <mxCell id="7PJMX-n2CAUdrs0Bl3GC-255" value="" style="shape=cube;whiteSpace=wrap;html=1;boundedLbl=1;backgroundOutline=1;darkOpacity=0.05;darkOpacity2=0.1;size=37;fillColor=#f0a30a;strokeColor=#BD7000;fontColor=#000000;" parent="1" vertex="1">
          <mxGeometry x="600" y="425.88" width="100" height="50" as="geometry" />
        </mxCell>
        <mxCell id="7PJMX-n2CAUdrs0Bl3GC-256" value="" style="shape=cube;whiteSpace=wrap;html=1;boundedLbl=1;backgroundOutline=1;darkOpacity=0.05;darkOpacity2=0.1;size=37;fillColor=#f8cecc;strokeColor=#b85450;gradientColor=#ea6b66;" parent="1" vertex="1">
          <mxGeometry x="250" y="656" width="235" height="50" as="geometry" />
        </mxCell>
        <mxCell id="7PJMX-n2CAUdrs0Bl3GC-260" style="edgeStyle=orthogonalEdgeStyle;rounded=0;orthogonalLoop=1;jettySize=auto;html=1;entryX=0;entryY=0;entryDx=31.5;entryDy=0;entryPerimeter=0;strokeWidth=6;" parent="1" source="7PJMX-n2CAUdrs0Bl3GC-213" target="7PJMX-n2CAUdrs0Bl3GC-214" edge="1">
          <mxGeometry relative="1" as="geometry">
            <Array as="points">
              <mxPoint x="270" y="388" />
              <mxPoint x="270" y="200" />
              <mxPoint x="367" y="200" />
            </Array>
          </mxGeometry>
        </mxCell>
        <mxCell id="7PJMX-n2CAUdrs0Bl3GC-264" style="edgeStyle=orthogonalEdgeStyle;rounded=0;orthogonalLoop=1;jettySize=auto;html=1;strokeWidth=2;" parent="1" source="7PJMX-n2CAUdrs0Bl3GC-261" target="7PJMX-n2CAUdrs0Bl3GC-215" edge="1">
          <mxGeometry relative="1" as="geometry" />
        </mxCell>
        <mxCell id="7PJMX-n2CAUdrs0Bl3GC-261" value="" style="ellipse;whiteSpace=wrap;html=1;aspect=fixed;fillColor=#d5e8d4;gradientColor=#97d077;strokeColor=#82b366;" parent="1" vertex="1">
          <mxGeometry x="375" y="313.25" width="20" height="20" as="geometry" />
        </mxCell>
        <mxCell id="7PJMX-n2CAUdrs0Bl3GC-265" value="" style="ellipse;whiteSpace=wrap;html=1;aspect=fixed;fillColor=#d5e8d4;gradientColor=#97d077;strokeColor=#82b366;" parent="1" vertex="1">
          <mxGeometry x="375" y="470" width="20" height="20" as="geometry" />
        </mxCell>
        <mxCell id="7PJMX-n2CAUdrs0Bl3GC-270" style="edgeStyle=orthogonalEdgeStyle;rounded=0;orthogonalLoop=1;jettySize=auto;html=1;entryX=0.412;entryY=-0.005;entryDx=0;entryDy=0;entryPerimeter=0;strokeWidth=2;" parent="1" source="7PJMX-n2CAUdrs0Bl3GC-265" target="7PJMX-n2CAUdrs0Bl3GC-216" edge="1">
          <mxGeometry relative="1" as="geometry" />
        </mxCell>
        <mxCell id="7PJMX-n2CAUdrs0Bl3GC-271" style="edgeStyle=orthogonalEdgeStyle;rounded=0;orthogonalLoop=1;jettySize=auto;html=1;entryX=0.326;entryY=1.009;entryDx=0;entryDy=0;entryPerimeter=0;strokeWidth=6;" parent="1" source="7PJMX-n2CAUdrs0Bl3GC-256" target="7PJMX-n2CAUdrs0Bl3GC-259" edge="1">
          <mxGeometry relative="1" as="geometry">
            <Array as="points">
              <mxPoint x="740" y="681" />
              <mxPoint x="740" y="680" />
              <mxPoint x="742" y="680" />
            </Array>
          </mxGeometry>
        </mxCell>
        <mxCell id="7PJMX-n2CAUdrs0Bl3GC-275" style="edgeStyle=orthogonalEdgeStyle;rounded=0;orthogonalLoop=1;jettySize=auto;html=1;entryX=0.5;entryY=0;entryDx=0;entryDy=0;exitX=0.75;exitY=0;exitDx=0;exitDy=0;strokeWidth=6;" parent="1" source="7PJMX-n2CAUdrs0Bl3GC-306" target="7PJMX-n2CAUdrs0Bl3GC-289" edge="1">
          <mxGeometry relative="1" as="geometry">
            <Array as="points">
              <mxPoint x="626" y="556" />
              <mxPoint x="626" y="520" />
              <mxPoint x="1130" y="520" />
            </Array>
          </mxGeometry>
        </mxCell>
        <mxCell id="7PJMX-n2CAUdrs0Bl3GC-279" value="" style="edgeStyle=orthogonalEdgeStyle;rounded=0;orthogonalLoop=1;jettySize=auto;html=1;entryX=0.5;entryY=0;entryDx=0;entryDy=0;strokeWidth=2;" parent="1" source="7PJMX-n2CAUdrs0Bl3GC-214" target="7PJMX-n2CAUdrs0Bl3GC-278" edge="1">
          <mxGeometry relative="1" as="geometry">
            <mxPoint x="385" y="280" as="sourcePoint" />
            <mxPoint x="385" y="313" as="targetPoint" />
            <Array as="points">
              <mxPoint x="385" y="280" />
              <mxPoint x="385" y="280" />
            </Array>
          </mxGeometry>
        </mxCell>
        <mxCell id="7PJMX-n2CAUdrs0Bl3GC-278" value="" style="rounded=0;whiteSpace=wrap;html=1;" parent="1" vertex="1">
          <mxGeometry x="367.5" y="290" width="35" height="10" as="geometry" />
        </mxCell>
        <mxCell id="7PJMX-n2CAUdrs0Bl3GC-280" value="&lt;b style=&quot;&quot;&gt;&lt;font style=&quot;font-size: 24px;&quot;&gt;2x up&lt;/font&gt;&lt;/b&gt;" style="text;html=1;align=center;verticalAlign=middle;whiteSpace=wrap;rounded=0;" parent="1" vertex="1">
          <mxGeometry x="405" y="288.25" width="65" height="13.5" as="geometry" />
        </mxCell>
        <mxCell id="7PJMX-n2CAUdrs0Bl3GC-283" value="" style="edgeStyle=orthogonalEdgeStyle;rounded=0;orthogonalLoop=1;jettySize=auto;html=1;strokeWidth=2;entryX=0.5;entryY=0;entryDx=0;entryDy=0;" parent="1" target="7PJMX-n2CAUdrs0Bl3GC-281" edge="1">
          <mxGeometry relative="1" as="geometry">
            <mxPoint x="385" y="430" as="sourcePoint" />
            <mxPoint x="385" y="470" as="targetPoint" />
          </mxGeometry>
        </mxCell>
        <mxCell id="7PJMX-n2CAUdrs0Bl3GC-281" value="" style="rounded=0;whiteSpace=wrap;html=1;" parent="1" vertex="1">
          <mxGeometry x="367.5" y="445.88" width="35" height="10" as="geometry" />
        </mxCell>
        <mxCell id="7PJMX-n2CAUdrs0Bl3GC-282" value="&lt;b style=&quot;&quot;&gt;&lt;font style=&quot;font-size: 24px;&quot;&gt;2x up&lt;/font&gt;&lt;/b&gt;" style="text;html=1;align=center;verticalAlign=middle;whiteSpace=wrap;rounded=0;" parent="1" vertex="1">
          <mxGeometry x="402.5" y="446.94" width="67.5" height="14.37" as="geometry" />
        </mxCell>
        <mxCell id="7PJMX-n2CAUdrs0Bl3GC-287" value="" style="edgeStyle=orthogonalEdgeStyle;rounded=0;orthogonalLoop=1;jettySize=auto;html=1;strokeWidth=6;" parent="1" source="7PJMX-n2CAUdrs0Bl3GC-214" target="7PJMX-n2CAUdrs0Bl3GC-285" edge="1">
          <mxGeometry relative="1" as="geometry">
            <mxPoint x="435" y="255" as="sourcePoint" />
            <mxPoint x="650" y="400" as="targetPoint" />
            <Array as="points">
              <mxPoint x="520" y="252" />
              <mxPoint x="520" y="252" />
            </Array>
          </mxGeometry>
        </mxCell>
        <mxCell id="7PJMX-n2CAUdrs0Bl3GC-285" value="" style="rounded=0;whiteSpace=wrap;html=1;" parent="1" vertex="1">
          <mxGeometry x="550" y="246.75" width="35" height="10" as="geometry" />
        </mxCell>
        <mxCell id="7PJMX-n2CAUdrs0Bl3GC-286" value="&lt;b style=&quot;&quot;&gt;&lt;font style=&quot;font-size: 24px;&quot;&gt;1x1 conv&lt;/font&gt;&lt;/b&gt;" style="text;html=1;align=center;verticalAlign=middle;whiteSpace=wrap;rounded=0;" parent="1" vertex="1">
          <mxGeometry x="512.5" y="219.75" width="122.5" height="13.5" as="geometry" />
        </mxCell>
        <mxCell id="7PJMX-n2CAUdrs0Bl3GC-288" value="" style="ellipse;whiteSpace=wrap;html=1;aspect=fixed;fillColor=#d5e8d4;gradientColor=#97d077;strokeColor=#82b366;" parent="1" vertex="1">
          <mxGeometry x="975" y="606" width="20" height="20" as="geometry" />
        </mxCell>
        <mxCell id="7PJMX-n2CAUdrs0Bl3GC-289" value="" style="ellipse;whiteSpace=wrap;html=1;aspect=fixed;fillColor=#d5e8d4;gradientColor=#97d077;strokeColor=#82b366;" parent="1" vertex="1">
          <mxGeometry x="1120" y="610" width="20" height="20" as="geometry" />
        </mxCell>
        <mxCell id="7PJMX-n2CAUdrs0Bl3GC-294" style="edgeStyle=orthogonalEdgeStyle;rounded=0;orthogonalLoop=1;jettySize=auto;html=1;strokeWidth=2;" parent="1" source="7PJMX-n2CAUdrs0Bl3GC-221" target="7PJMX-n2CAUdrs0Bl3GC-289" edge="1">
          <mxGeometry relative="1" as="geometry">
            <Array as="points">
              <mxPoint x="1120" y="620" />
              <mxPoint x="1120" y="620" />
            </Array>
          </mxGeometry>
        </mxCell>
        <mxCell id="7PJMX-n2CAUdrs0Bl3GC-295" style="edgeStyle=orthogonalEdgeStyle;rounded=0;orthogonalLoop=1;jettySize=auto;html=1;entryX=0;entryY=0.48;entryDx=0;entryDy=0;entryPerimeter=0;strokeWidth=2;" parent="1" source="7PJMX-n2CAUdrs0Bl3GC-289" target="7PJMX-n2CAUdrs0Bl3GC-222" edge="1">
          <mxGeometry relative="1" as="geometry">
            <Array as="points">
              <mxPoint x="1160" y="620" />
            </Array>
          </mxGeometry>
        </mxCell>
        <mxCell id="7PJMX-n2CAUdrs0Bl3GC-296" style="edgeStyle=orthogonalEdgeStyle;rounded=0;orthogonalLoop=1;jettySize=auto;html=1;entryX=0;entryY=0.48;entryDx=0;entryDy=0;entryPerimeter=0;exitX=1;exitY=0.5;exitDx=0;exitDy=0;strokeWidth=3;" parent="1" source="7PJMX-n2CAUdrs0Bl3GC-288" edge="1">
          <mxGeometry relative="1" as="geometry">
            <mxPoint x="999.98" y="615.96" as="sourcePoint" />
            <mxPoint x="1009.98" y="615.96" as="targetPoint" />
            <Array as="points" />
          </mxGeometry>
        </mxCell>
        <mxCell id="7PJMX-n2CAUdrs0Bl3GC-299" value="" style="ellipse;whiteSpace=wrap;html=1;aspect=fixed;fillColor=#d5e8d4;gradientColor=#97d077;strokeColor=#82b366;" parent="1" vertex="1">
          <mxGeometry x="1440" y="253.38" width="20" height="20" as="geometry" />
        </mxCell>
        <mxCell id="7PJMX-n2CAUdrs0Bl3GC-300" value="&lt;b style=&quot;&quot;&gt;&lt;font style=&quot;font-size: 24px;&quot;&gt;concatenate&lt;/font&gt;&lt;/b&gt;" style="text;html=1;align=center;verticalAlign=middle;whiteSpace=wrap;rounded=0;" parent="1" vertex="1">
          <mxGeometry x="1475" y="250" width="140" height="26.75" as="geometry" />
        </mxCell>
        <mxCell id="7PJMX-n2CAUdrs0Bl3GC-313" value="" style="edgeStyle=orthogonalEdgeStyle;rounded=0;orthogonalLoop=1;jettySize=auto;html=1;entryX=0;entryY=0.5;entryDx=0;entryDy=0;strokeWidth=6;" parent="1" source="7PJMX-n2CAUdrs0Bl3GC-216" target="7PJMX-n2CAUdrs0Bl3GC-306" edge="1">
          <mxGeometry relative="1" as="geometry">
            <mxPoint x="485" y="571" as="sourcePoint" />
            <mxPoint x="1140" y="610" as="targetPoint" />
            <Array as="points">
              <mxPoint x="550" y="570" />
              <mxPoint x="590" y="571" />
            </Array>
          </mxGeometry>
        </mxCell>
        <mxCell id="7PJMX-n2CAUdrs0Bl3GC-306" value="" style="rounded=0;whiteSpace=wrap;html=1;" parent="1" vertex="1">
          <mxGeometry x="600" y="565.5" width="35" height="10" as="geometry" />
        </mxCell>
        <mxCell id="7PJMX-n2CAUdrs0Bl3GC-314" value="" style="edgeStyle=orthogonalEdgeStyle;rounded=0;orthogonalLoop=1;jettySize=auto;html=1;exitX=0;exitY=0;exitDx=150;exitDy=37;exitPerimeter=0;entryX=0;entryY=0.75;entryDx=0;entryDy=0;strokeWidth=6;" parent="1" source="7PJMX-n2CAUdrs0Bl3GC-215" target="7PJMX-n2CAUdrs0Bl3GC-305" edge="1">
          <mxGeometry relative="1" as="geometry">
            <mxPoint x="460" y="387" as="sourcePoint" />
            <mxPoint x="985" y="606" as="targetPoint" />
            <Array as="points">
              <mxPoint x="738" y="387" />
            </Array>
          </mxGeometry>
        </mxCell>
        <mxCell id="7PJMX-n2CAUdrs0Bl3GC-305" value="" style="rounded=0;whiteSpace=wrap;html=1;" parent="1" vertex="1">
          <mxGeometry x="757.5" y="380" width="35" height="10" as="geometry" />
        </mxCell>
        <mxCell id="7PJMX-n2CAUdrs0Bl3GC-315" style="edgeStyle=orthogonalEdgeStyle;rounded=0;orthogonalLoop=1;jettySize=auto;html=1;entryX=0.3;entryY=0.609;entryDx=0;entryDy=0;entryPerimeter=0;strokeWidth=2;" parent="1" source="7PJMX-n2CAUdrs0Bl3GC-222" target="7PJMX-n2CAUdrs0Bl3GC-223" edge="1">
          <mxGeometry relative="1" as="geometry" />
        </mxCell>
        <mxCell id="7PJMX-n2CAUdrs0Bl3GC-317" style="edgeStyle=orthogonalEdgeStyle;rounded=0;orthogonalLoop=1;jettySize=auto;html=1;entryX=0;entryY=0.53;entryDx=0;entryDy=0;entryPerimeter=0;strokeWidth=2;" parent="1" source="7PJMX-n2CAUdrs0Bl3GC-224" target="7PJMX-n2CAUdrs0Bl3GC-225" edge="1">
          <mxGeometry relative="1" as="geometry" />
        </mxCell>
        <mxCell id="7PJMX-n2CAUdrs0Bl3GC-320" value="&lt;b style=&quot;&quot;&gt;&lt;font style=&quot;font-size: 24px;&quot;&gt;1x1 conv&lt;/font&gt;&lt;/b&gt;" style="text;html=1;align=center;verticalAlign=middle;whiteSpace=wrap;rounded=0;" parent="1" vertex="1">
          <mxGeometry x="707.5" y="351" width="135" height="13.5" as="geometry" />
        </mxCell>
        <mxCell id="7PJMX-n2CAUdrs0Bl3GC-321" value="&lt;b style=&quot;&quot;&gt;&lt;font style=&quot;font-size: 24px;&quot;&gt;1x1 conv&lt;/font&gt;&lt;/b&gt;" style="text;html=1;align=center;verticalAlign=middle;whiteSpace=wrap;rounded=0;" parent="1" vertex="1">
          <mxGeometry x="561.25" y="586.88" width="112.5" height="13.5" as="geometry" />
        </mxCell>
        <mxCell id="nC3sobLAMKG-mXo3YvBy-2" value="" style="shape=image;verticalLabelPosition=bottom;labelBackgroundColor=default;verticalAlign=top;aspect=fixed;imageAspect=0;image=data:image/jpeg,/9j/4AAQSkZJRgABAQEAYABgAAD/2wBDAAMCAgMCAgMDAwMEAwMEBQgFBQQEBQoHBwYIDAoMDAsKCwsNDhIQDQ4RDgsLEBYQERMUFRUVDA8XGBYUGBIUFRT/2wBDAQMEBAUEBQkFBQkUDQsNFBQUFBQUFBQUFBQUFBQUFBQUFBQUFBQUFBQUFBQUFBQUFBQUFBQUFBQUFBQUFBQUFBT/wAARCAEGANkDASIAAhEBAxEB/8QAHwAAAQUBAQEBAQEAAAAAAAAAAAECAwQFBgcICQoL/8QAtRAAAgEDAwIEAwUFBAQAAAF9AQIDAAQRBRIhMUEGE1FhByJxFDKBkaEII0KxwRVS0fAkM2JyggkKFhcYGRolJicoKSo0NTY3ODk6Q0RFRkdISUpTVFVWV1hZWmNkZWZnaGlqc3R1dnd4eXqDhIWGh4iJipKTlJWWl5iZmqKjpKWmp6ipqrKztLW2t7i5usLDxMXGx8jJytLT1NXW19jZ2uHi4+Tl5ufo6erx8vP09fb3+Pn6/8QAHwEAAwEBAQEBAQEBAQAAAAAAAAECAwQFBgcICQoL/8QAtREAAgECBAQDBAcFBAQAAQJ3AAECAxEEBSExBhJBUQdhcRMiMoEIFEKRobHBCSMzUvAVYnLRChYkNOEl8RcYGRomJygpKjU2Nzg5OkNERUZHSElKU1RVVldYWVpjZGVmZ2hpanN0dXZ3eHl6goOEhYaHiImKkpOUlZaXmJmaoqOkpaanqKmqsrO0tba3uLm6wsPExcbHyMnK0tPU1dbX2Nna4uPk5ebn6Onq8vP09fb3+Pn6/9oADAMBAAIRAxEAPwD4A+GfhM6/qUQMeUVhkkV9h+BPCiWMaRww7W4GQK8W+Cnh9o4UbZyzZzX198O9C8zykZMknhjQB2fw78FtI0e5dpPPT6V9U+BfCcGl6eHKDfiuC+H+gpaNGZEGa9oslAjAXp6UAXLGHdJlhkVZkbax9RT4EEcWe9R8M5PWgCMqWPAqxHCV5xT413cdKtLGNuCaAIF3bh3q5CN2Q3Sol2JznNTxyBvxoAjuIPlyBk1nyWxGSRW1mqc3zZoAyDC3Ydqnto2JAwRUhO1qWOQrzmgDRt87alYkDiqlvNxkmrPmigCN5ivao/tKnqtWdysKrSKvYgc0AMkEbEZHeoJLT+IDipTCfqKHDbe9AEEcm3gjvV+GZZMZ5rKkPy4PXNSQXQDAHigDSurdLq3dCOGGMmvEPHWlWp1GYRwfulBG7HevbYrgSHaTXJ+M/DcV5b4RQqsOTQB8j/EzwnFcRxSQ7t/JyK+fPFGlsd+T8ynBWvtPxN4ZENrNYvtWdPuOf4q+b/H3hSddS8todjBdzMBwaAPl/wAVWpXfhCOK4X7G/ofzr2rx1oMsIkC9celeXf2Pdf3TQB6L8LtD+x2NsjKAcAnFfUXw5iKtFF5MjnPBUdK8s+FvhkXflgx/KD97HuK+s/h3odhZrAqQhnB5agDv/A+iutum4EZH8XWu/tIREwA5FQ6TYrHCG4HHGKt+cI2IBoAsSyBemarrJjmq096sS5Zqpf2qkjELzQB0MLk9KtooC5LVh21733Lj3NQ3njCws22NIGb0XmgDbuJUjXg5OabBdD6Vxk/ji18zA3FfXFT2njC2mwoRmz6DmgDuPtYPANQTXIVsY49azNPvo75j5Zz9avSKxG0gGgBVdJF6c0bO2OKijUq1SjceKAHqRjGabJceWASc1PHBkc1Q1S3ZYztPJPFAFkXwdeMY+tVZp2bnjGfWsO9upLNtobCgc1iXPjRLaQiTIXNAHYNeFc/Mfzpy6qzL9/P1rgn8e6ezYMu36mrC+JrW4UeXOvT1oA7CS9V1IPB61EJgp3o3Fco2vqucuG+hqOPxbb27DfJhc4bdQB3lrdZIJPNX7gLc24UjIBrktJ1y1vWUJJ856Dt1611ln8y4JyelAHk3xHh+ytbt5YldHJJzyFrwX4g61az3gS3hY7uGcjgV9YeOvD0OpWyv0ZuuRXy/490XyNcntAmBg4wOtAHzn48tEmkmUqQQf0rzr+yh/dr1zx7Z/Z77PIXBHNcd9kj/ALw/KgD1jwDbGyhjiQctj+lfUfwy0J51SS5AVeAFHOfevnzwDYiS/hd8bF9fqK+t/h3pp+xG6lGEx8uaAOsuClrGFUdKwry8EOWLAY5PPard9dhblu4A/CvKvGXie4u7x7KydWGfmcH9KANbXfG1sJvJWVS+eADVWLxYtrHlsBj05JrG0jwJ9oQSykNKecycV0+lfDwSzISxb65xQBlSeJ7vUPlibywe+aqHw7rN8DIkquC3Uda9b0vwDawxjzIkVvXHNb9loNpZLhEB9uKAPINP8F3nlfvy7H0xXUad4L8mNGwyPnmvR1t41XaEAFK8YZenNAHLafpht7jC/dPpW4ICzEZ5qe3s1hUZ5NStGO1AFNoR170JHtanSDDcc035h2oAtxqCvNQXduGQknNPVzjGDmpVQnGelAHM3WlLKSZFzk965rWPCbXh2wxfjivS2hRuq0qxKvRcUAeBan8OWt5WaTLEDhYxkVzN5byaNJmO1kTHHc19Py2cMi4MYx9Kx9Q8M2V1nfCh+ooA+apdek3KzJIi/wCyCaSTWPMVvn3r/tDBr2+/8I2EbFhAgI9K5vVfCtkysBDGvHpQBwPhbWp9L103Vw5KBcDLcDp2/Cvf9A1RL6zinR1w6h+DXiOp+Do5FO1sccYrr/h9qf2Py7N2I2cAk9eaAPVbpI77T5I2GAB3r5m+Ja/2d4mLEq3ykZ9K+lYJRNvTAO4cHNeA/GrRm+1bo0CseCx+hoA+cPiJaJcWpl2jdzXmX9mn0r1nxtayXFvHCqHcwGMd8d65D+xJfQ/lQB7F8M9La61W0hAzk/1FfXUKrpmjwxD5dq8ivnj4B6O0+qrcuu5VANe8axdBlZQeOlAHM+LNYa3s5PKP71uFwaw/DPhML+/ukDzSEMQexq/cQvqWpQoB8q8E4ru7XTEMKkKPl60AULHRkk2/LjjvXW6bZpDGoxhhVC3gEbYY4OeAO9R3nia3tYXCNm4RSSv06igDpeoo71wFh44nutXTbGzxNH07bvSpNM1jWIfttxPbuXZsRp6D1oA7yisrRdYN/bgyr5cmelauaAFpD0paSgCKQKvI60ilSuciuZ8SeJk0+Yxhske9YNv44/eck4zQB6Qqj0p1Zmh6supW24EE/X6VqUAFFFRyzLCpZiAB60AOznjpVS8vreCBpHkUKp2nnvXMap4kvBMrWkRfy2w4Hcetcl4q/tq481oYmEcpB2g9KAO8uPLuFDK6kOMjmsi+sCeSK81bxHqel31jHMJBCn3nrv8AT/FVrfW+ZnVJ2J/d5zgetAGRe6aGDZWuYvIZdKmWeD5CtejLbreQecv3GOAR3rnta00SRv7dKAOo8Jax9st4JSwLHr7VkfFLw/8A2papMFAXPPFZ3g+5NpNJA/yjNd3qVut9o8iA7ioyKAPkDxNp5tdYgUoNkRZD+NZf2S1/urXc+OtNKXd7IgO7cTivK/Ouv7xoA+m/gnp6aforStjeeK6bVpt2/nHPFct8PrwWtu0WeRwVroWb7RJ6jPNAF/R7NfmOBk4NdrZ2ZFqMcE/4Vz+h25kdcL3rrZImWPEfBFAHnXjTxFc6HDBeW/zrnaQAMqax/D/hm98VSNfzFoIWbcOuTXYHwUdR1B5rr5IM5MfUGupW2Szt0hhUIijAA6UAYlrp9ppKokEYdkXbuxV63v33KCuV6dKjms2kkzjHvUttZpGwLzL/ALvegDQazhmCts2nr8vFWFXbio1kVhhTUtACVT1XUE02xknkONo4FW25U9q898fa0Lg/ZYzlF64oA898Qa5JdXUjs2dzVkQ3zGTANLqKkyN2NZ7DbyBzQB6d8O/EbWuoRwyN8knyc164rbgCOQa+YtL1JrW5jY5DZyDmvefBfiJdZ09VY7ZVGOtAHTVWvLNbxNr9Kn3dahluljzkUAY+qpHYpthjVQRzXNyahIpPzZ56YrpdU1C3mULIfLbtxXOXkES52SIx9utAFO6s7fVIWSaIMx74rzfX/Cl74bvhPbvJJC3G4AnAr1G3jTaCW79jW/Z6bb6lYMlw6sp4wSKAOa8P6xbx6PYwI26Q8FfSrmrWe+PjjueKNN8D/wBkagZlXzIy2V5PT862b63aTdlcCgDz+G3MOo7gDknrXe6RdA27ozclcc1hXFgUk3ACks9QWG6RCO/PNAHlHxNjFnqcinguf5mvO/7AH939K9I+K0iya+GVdwzXKf2g/wDzzFAHdaJMLPXrmPHA6eldfosgvLhjjA3V51puo/atevHTlc12PhW+Ml46jpmgD1bRrdYtuOa2PX1rE0m4CqDWlcXqRpnPNAGXq+sz28uy3429eM1jtq2o3Um0yED6Yqzd3HnSMe9MjUZ5A6+tADLdr2W7eOSZtgHBrUsdPPmb2Ytz3NMjZd2SOtXY7lVUdKANOOPaO1OJxVFbz0qK61Ly42oAp+JNWFpbtGrfMe4rzy6Vpt0jnPfmt7VZTdSEkHFc9ql0scZiXJYnH4UAchqGGuHI57VnpHucBlzzW1Mg3YKZNUbmFo23LQBm39ubeTcBn0rqvAfiZ9Nu4cudueayJUW9hG3qvWq+nwm2uFz60AfSVjqUd7GHXADD1qSeJW5rznw3rTxxqm88V2tvqQkUZyeKAG3tgs2SVBNc9daGsrE/yrqFuFc4PAqFlRsigDjI/D8mZlEhBDfLzVu20iRkP7xvpk1vSKEk3VXaYqTkYHtQBf8ADrNDGYXkLLngMc1c1OMZzjIrnkvPLkBFaUupedCPbmgDM1JQkLHoRXCXeoNDfA7uhrs9YutylQOorzXXpDHOWAxzQBzXxKVv7XhkV/klHX0rnf7PH979a2PG05k02KYjJXIriv8AhIGoA7HwCzXNldXn9+uv8N3HlTFs9TXE/Ddmj8PSgn5j/DXT6bJ5LDnvQB69oupKy5J4+tXrzUYwp5rzvTdYaKMgGrMmsM2SaAOil1VdxGcVAdXKtw1crLeOzZyQKWO5bqTmgDsI9WL960Le9Mi/eNcbb3m2te1vD5fIoA6Jb7b1b9aq3F4ZN3r2rOW6Zz1qQyiFfOlICJycntQBX1q+SxsZHc7WP3RmuNjma6kdySaoeMPFi6vqi28LfuIzzz1qXT7gNgA80AWZFwc1SuMYJIrRm+Zcg8+lZd1naaAMhro20x2/dJ5ra0+3N5GJV7HtXNakQqOc4waueEfEC2V15UxIjbAz6UAeiaTCYcZNdVBclEGTWNDCskaPHyjDIIqz5m1cUAaq3xHfNWFvl25JrnjdBepqu2o4PXigDpJL4HvVeRiy5zWD/aXoc0f2i2OpIoA0nmCNnNKt98u3JxWQ12G9ab5zdqALV5cMy8t7VxXiWE8kfWuskYyRN6gcVg67H51uGXqOD+tAHnutN52jujH7rZNcP9lj/u13V9GAsyHhOSa5HzIaAOq8GqbfT1hI5IIrdeQpLtUYxWX4MQzJKxGcHitURl7h/TOaALkDsvsPrV5JCyjJqslttANSfdXFAFnf8o5zT1z1qsuWxVmNSykUAOhcjvWnbz/KBms1UII4q5ZxmRu/WgDfsU8xlJ5zXPfE7VH03SYrYEp5x+bH411mlqDjjgVznxY0KXUtNtriNSwi4bFAHjdtJM03nEN15OK2dJ8VWM119l+0qs/9zv1rU0HRFkUh0OOhz2rmfE3wvW58QR6nDN5PljKiMYoA9ChmWRDkjP1qnfONrHIrG0+7uLeMRyqSemabeTTXTeXEDlu5oAw/EHiCyspDDNcRRyMOAXFYkmosVDx5KnncDxVDxF8B21LWEv8A7U2Sd7oxJz7V1beE4tJ0mOGNNrAfWgD0D4S+KG1a3ksZsmRM7WJ9xXd3QMfOOOa8l+EOlyQ+ImkCssQXDZGBXst5GHUD0oA5y7ucZ4rHm1AqvPWr2rMY2cAVyVxcOGIJxQBsDUicg9at2+obup4rkhdFepNW7S7PfJoA7G3mE2Mema0EjXZnNc1ZXXTsK1vtg2jIoA0xGrZGQOKx9WjEcMg/EVZtbjzJOnNGr4aE7eMjmgDyfXn8tZiFxkYrkP7JuPQ13PiKHZIq9dzCr/2G1/ur+dAGX8L5DcafK33s85rpbK3Z5pMjODWJ8O4RZ2TRDrsHH1rsbGHYHJ6mgCJlCr0qmx+Y1duDtJqgXB60AWoRV6CMfWqFqeavhvTigB/8QxWhZwncDnGaq2sBlYV0lnYBYwSMfWgCWyxGuB1zmtSN4rpWjmAdCPumsdpRG2BxUkd0FyevFAE1x4YsUZ3hwoI5Wuem0qJWOSGGa1NV1gw2rGMjdjjmuKvtcnmYrHkunJHqaALOpafbLn5AO1Y8LQ2dyuVyMd6jbUp7i9a3IL7Mbm7D2q9qGns0YdVwcUATz3ltIgZmwnepbfQ7a/X5pMqefcVz3zsvktuLMMcjir2m6kbWY7jhVGD81AHd6LpVpoVuwgAJY5L96nuL4NnnGa52PWg0YIbP41G2p5+8aAJNXyVZuuK5C8jMh6c11PnifI65rLu7Xa3tQBzRhZSQakhkK9DitCS379aqNb7WNAF6C6CqMtWlDdGQAZrBjxxmtO3+Xb2BNAHQ2JIZTVi8/eKw/GqVnIWXrV5f3hOeeKAPOvFUZ+0oqjkkYqv9lm960PFEY/tFFHXcB+tXfsKen60AY/g24AmXIGHQdDXZQy7lJHXNeQfCvWJJ4U81txUYFenafN5jHJx1oAnvGrPZT6delXbr/WDup7VEsLkH60ALbudgyMN6VpWymTAqtBbtuGeT0rYtbU8HFAGhpVp82SK3biQJB9KgsoxDAWbgYqpqFy3lNheOuaAKs10F+9xx97NRf2hGHKhxjise6ae7njjXIDdqePD8zNFKXwQ2WoAg1HVGYks2YFb7uKz1spNpfOPMckD2roLmwiDHzFBUjpWbdzLGTg/SgCDS9PFvvLKCc5Unrmtk7FtW3sDXOS3ki9GqBr+Rjgk4+tADtTAmnRUHy1kXsD/ZiU5Ibk9K0fOwc55zmqt5coy7SBj0zQBSXVJLPcGGVx61MviRZQrqysv8XPK1Q1LFxbsOBk9a5dbSW3luULfLIe1AHqdjq0cnlkEc+lbDJ9qQMv415Zot01mkDZZtp+avTvDmoJdrtVuHHftQBFJZZOMVRurPa2QK6m5thG2Ov+etU720AUcUAcpJCF4rRtYiVVWIOO4qC4jxKARxUlg7xygE5XNAG5aQ7Y+vNTWl0n2gqTjjmlt5k3KGXFU7pkhmmbGCeQRQBy/iSRP7cj543/8A16d/bS/89BXPeKL4HUlYNjnn61y/2l/+ev60AVPhzeJbqMNzj0r1jSZxNahzx81fOvwu1f7Vcxgsete76RfDyVjwSxbgUAdE0glkG306Vp2dkZVzj3rDhnC3XTt0rq9PbzYBs60AFvY7WGRmteC02ewp8UaDBz2/OnvJ056UAWOJIzEOOOTTns1+ykNVZJDuDDpUtwxkh4+WgDlbrXdNs77atwokT+GnTeKbULneMH3rE1vw5Et1LMI1LE53VzF8jR/JtwKAOl1LxVFKTsOe1YVxrJmbisYbjkdKntoWZhznNAGhb3Ekx5zU7xuvODUlrCIV54Oa0VCsgxzQBgTTSLnAzWTdXkuSSuMe1ddNbqV4GKxb6zznpigDnZtTbbtY4FOtWSZvmZcnrk06409GkGeeas6X4fW8Yrjv1oA2NK0eKQhlwRnnjiups9OSx2yxttTuopfC3hKS1j2qS6H1rV1bS3tlbPyDFAEguRKox8wPfvTp2Vo8HNVLH5flzjAq3NIPJPPNAHL6lhZCveorZgHjXJOT1Xmn6ox+0ctjiqkKjzAhYgdiOtAHXiUNEYzxIq5B9axL64PzA9RS2ZW1Vi0zSNngmma8qrE0sb44z068UAeU+Mr1FvZGDYKjmuH/ALZH/PStLx1qW2eYEbWbnrXnP24ev60AU/htrax39oN23LDuBnJr6e0XdJerJnMYUEflX48+Dfixr8PiLTWl1CRo1nQlcjpur9b/AIeaw+seHbG5jOVmiVwevBFAHdeYrBmUZbHX8a3tNudu1VPGK5yyUqqxY+6Pmb1rZjZo5FMagg0AdWt1tgA/iXpTY2Z1yetZsdwxxnr6VfglO3pQBqW0eccVZuFxEfWq1mzbNxGKviEzLgmgDn9QsxJGa4fWrBUY/L0Neo3lr5cZFcrf2YnkI25560Aedm0G4gnH4Vfs7FRhs/pW5J4d8yYAgqM5rXs/CLGVFAO3HWgDnfsZUAuc56cVJmOGSONn2ux4GK6a60EwttZe+BVW+0kMVJ6qPl4oAxZrcbRuZVrCu5Ydzpv3MK6aSwZrjYqlttNuPCvy+YFAYnJ4oA4T/W3O0JgeuK6XQbM7lIXvUkmgiNzkCt7RbHy1HagDr/D6mONRjFXdbtFnjPy84qrp5WFVZj+VXLy7SSJvmHC5PrQBxd4ptpPlTJPFU5JCY2DZB9K1Jma4uCxYKo6DHJrNuIZJd2RgjpmgDl9TuPMk5UgqeeaLeQTMvOCRxVi+t5JpGQovPRhVKMfZ2EbrjnG6gDQtoZlaRJX3LniqutXxhtHRjlgp/lWtuDRMGGWQ/Kf73vXBfEDVk03w9qF48mwxxseeOxoA+P8Axh+0NpsfxC1fRNSY2vlS7YpDyDz3qv8A8LJ0L/oJWv8A33Xxv8TNcbXPGWq3juzvJO5LE+/Fcx9pf/no350AVtPlNvcpKDgqciv1v/ZH8YR+LPhfpMwfcY41iYZ6FetfkQG5A6bq+5/+CffxOi0833h25Y7mkEkOT6//AKxQB+ksFqt3HiPCcc1oW+nFo1+8wAx8wxVLR7qOWMSqMkIP3ddnp6/aLdWmXygwzQBz0MIhyu3jOK0oY9qgjmo7pVjuGEfzrnrUsci4IztOKALtk3mSYK4XNdNpdujctg4rkbO8ZW+WPI9a6GyvTFHkrgntQAmvuseQK5ZcSyEdK2dWuPOY5OKxhIoY0ATrAqtnGa3NNuoVjGQBj1rnZLjHI6VC18y0AdldXFrdKA20EHOazJrK1nkDBuK5ltSbzBnNWLfUTu69PU0AdD/Z9vG5ePaCetUL5FXPFQi+bIwcim3EpdSTz9KAMS8j/eZAq5YgAAU6S1ON5BAx3FVrclJM579qANuOTcuCcAelVmkYFuxz94+lOSVU5boR1PNIzpIQC64z0oArSQzK28MjZ6c9KjnjaTgJl6la4S3Y7seWD970pkcKNMXDcMcLz+tAGLdWTzB3wUZDyayJrVJJVzncTjNdjqUgghIGASetYTWYuFMrA8dKAI4YfLt2ckkLw3uK+fv2mvE0Oh+ANVkU7HaMgEnrweK+g7648i0OEKKBz718A/t5eOA/kaZbXC8bvNj3Y5/yaAPgzV5DNf3Ep/jfNUamun3THJyahyKAKi/N1rtfhT40m8D+NtK1SKVo1imTzAp+8M81xKn05qWFvLkDZwV5FAH7m/B3xpbeJtIs7u3lEqywK3X2HH1r3Lw/cJNbKJHXO7hTX5T/ALEf7QS6ddW3hrUrlhuYeW7ngdAK/TLw/q63VnHLbOGkPIA9KAOi1SAm4cDCKOTgVjyMmHUNyB1zW6rTXNqTICJMYIrFaBFYDYxG7mgBLW5aFVdVbjvWvb3LSRs5bBPTJrHuH8t8Z+QDODwBUvnSyQIsabWxwcUAJqU0jbvnGfrUce/5vlzgdakWNfPRXIeSTgHH50kjB5riBZNpXA4oAjmnSNenAHNVGk3R5xTLkIsc8TSYVBz70lrtktx8+c9KAG7CrKWpIY924+lI0jumdvR9vFPVW3DHTOaALNs4SRUyTmtCFmmV8YDZ4yazpIZAhnjXJHRav6bdpOjKAC45bPUUALcXR8s7xwo/Cq8cPmIrqOD+lNkxJerCxwjHpWrb24t41iHO/vQBD+7jKgON2KrX0hhmDCRdnXa3HFaUMdtJG25QJFJX34IrKvVjkfyZRtkx8hboKAKV9MZbN5YQokUZ2dd3tWfps13MjSIm1o+dhbj6VJHcyec8dxGsXoyn71a+m25jY5gBVur0AUri4F1aRnazMPvKBnHNW9PhLRsChVeMVbbT0hYBdx3Hkgd6fql0NOtZCRgnpQBwPxG8QQeH9HvJp2+WKMuc8V+Nv7QnjdvGnjzUblZ3khMp2hjx1Nfob+2F45udF+HupXcbspdvKzn1P+Fflbq119svJJMj5juPPuaAM5sE+tN2ilxzRQBQ+704qRc4+tR8N14pdwH8VAG74X1qXRNWt7yCRopInU7lOK/Yv9mvx5c6v4J0jUXdphNEvzMfTFfi9DhXHHBNfrt+wfKutfBHShINxi3oe/TGKAPr7TdZadRyCCMGp7y3UtvTjjJH+Fcpo0kVvJtYtszjNdLcAeQJbeQsR2NAGBPbvNe7BvSN25z1xXTrIIZFjjXKlRhj6dzUMJ+2RrKzKJVGD61C11LH8sSb3yTg+9AELSLHdSqR8+D5dZCyLZ6hKd4cEK5P9K27eza4ZjcKVbbwvpVHUPD8dzMVilKHaN+0elAGZe3AuJAiRlmkIBx25qWxsUtiVkBUgk4Pt2o1a3fTZbeaDLQJ99wO9XGmN1ZmWOEu0pOMnoTQA1IUFu7oOcFtoqit0f3WIztkOPpV+GGS101HkbD5596rxt9ttFEQ8soeaANa1hLPIiLkKB0PWpb3Sxp0z3Cr8+0Fh0qrpbteanbwsSqqMuy962biOW41R4DjyieM+mKAMi8jDrbyIMu3zdOnIq8t0S3AwqrzV5ljjme12/NsxjH61j6jcLYqEPWTgnHGKAKt+zW6tIhJUKWZvc1D5H9rafFJK22QDhu5o1m+SOEqBhGUfN14FM0rN5a+ZCeR1z3oApaPorxXEguMuhOck813WmaWsNkWVgyHojVS0Jl1CRgU/eLxnFdP/ZgsYfmfap520AZklvFZL50hDPjNeaeLtbF5cG3SQg4Ocdq6PxhfSs7GJjgds1h6D4Jm1FJb2RQ2/PDfSgD4x/b2szp/wjGcjzrxPw4NfmjIP3jfQfzNfqX/AMFMrdrf4Z2cW3aftQzjp0NfllIx3t/nuaAIm60UUUAZ4YDpTt/vUYGTTlANAFiJvmX61+rv/BN/U1vfhUkROBDcEfWvydVtufXB/lX6b/8ABMGW4PgvVVYfuVuvlHpkCgD9CpvDsVxaGWIKj44IFUbGR7OUW0qZQ9M112kqHtVyMisvXNLRm8zOwL0wKAKElhH5++N9o7qKSaJV/eZyuOcUsNtJCzpuDqRkCrMFsWQo64UjrQBFa3Ucy4WT8algWOKOUQje7nhjVX+zUt3HlHK5zSxaoY5SrxbSDQBdj0syQlZvn3clcUyOzNpbuAo+U5VcVp2V/bSSbmbB21aurUXEeV+buO1AHHahF9qt3Lj5f4R0qjp6eTDKhXJIzWxfWxtwwkIGD90VlzSCFMDqaANLSVjuGjfbs8v7x6ZrTmVIJBIPm8xevpzXMQ6g0alV+9Ujao0kflEneoz9KANrVJ/OuopVYBwu0+9ZF5MLq8C4DLjjPSqs0kk2FdmjK/xjmpreFo/Kbl0BwzY6UARNpaSQrF5jYY4HHStvQ9LNrERJGY1Xgf7XvTIZLXcAoLDOF+tarKZlCBixxyKANbRbG2tInePaHY5AxzVfxJfSKgYum1RztOTUtqrW8O4Lhx+NZGpRy3TvK4AwOlAHO+XHfXqZBdW613Wm2aWti6KP4a5/SbcySBymAPaurs2UwuG5JBH6GgD8+f8AgqJmP4e2eDgfaf5A1+UczfvCMHGa/V3/AIKnW0jfDmxYDCi75/EGvyhkb5j78/qaAG0UUUAZm75qctFFAEkX3vr/APqr9R/+CZ1uIvh3eNnO+5z+X/6qKKAP0a0PP2FfpTriMTAg9M0UUAV5LJDIrDg7cVJ5RjQ4wfrRRQBDNF53BwPoKzrjTUjYletFFAGbe77BFcNk5pkOtXjOIYpmjRh060UUARXGoNHJgjcR1Ynms9ZvtMrMRgg4oooAY1uZGOHK49Ktx2ojkTHUryfWiigCayhkM5y4/KtJY5PM2bgUI5FFFAGha6fHHtYKMitu1tPMXjaOPSiigCQB45NobA9qq3kKsQCOKKKAGhBEuFGKvWC9CaKKAPhr/gqDCJPhKXOMpcqR+or8gpuJAPr/ADoooAZmjNFFAH//2Q==;" vertex="1" parent="1">
          <mxGeometry x="-790" y="368" width="217" height="262" as="geometry" />
        </mxCell>
      </root>
    </mxGraphModel>
  </diagram>
</mxfile>
